<?xml version="1.0" encoding="UTF-8"?>
<svg version="1.1" xmlns="http://www.w3.org/2000/svg" width="500" height="500">
<path d="M0 0 C165 0 330 0 500 0 C500 165 500 330 500 500 C335 500 170 500 0 500 C0 335 0 170 0 0 Z " fill="#FEFEFE" transform="translate(0,0)"/>
<path d="M0 0 C0.66 0.33 1.32 0.66 2 1 C2 5.62 2 10.24 2 15 C0.68 14.34 -0.64 13.68 -2 13 C-5.83210571 13.40337955 -9.37242154 14.73456565 -13 16 C-13 19.96 -13 23.92 -13 28 C-11.35 28.33 -9.7 28.66 -8 29 C-7.34 29.66 -6.68 30.32 -6 31 C-3.04955188 30.61245568 -0.76657302 29.44831589 1.78515625 27.96875 C2.48060547 27.57042969 3.17605469 27.17210937 3.89257812 26.76171875 C4.60865234 26.34535156 5.32472656 25.92898437 6.0625 25.5 C7.48951428 24.67470794 8.91785018 23.85169582 10.34765625 23.03125 C10.97679932 22.66580078 11.60594238 22.30035156 12.25415039 21.92382812 C14 21 14 21 17 20 C17 24.62 17 29.24 17 34 C14.13097333 35.65705838 11.25556248 37.30071527 8.375 38.9375 C7.56675781 39.40607422 6.75851563 39.87464844 5.92578125 40.35742188 C1.66475886 42.76507274 -1.99363571 44.82120128 -7 45 C-10.375 43.5625 -10.375 43.5625 -13 42 C-13 43.65 -13 45.3 -13 47 C-15.31 47 -17.62 47 -20 47 C-20 48.32 -20 49.64 -20 51 C-21.65 51 -23.3 51 -25 51 C-25 37.14 -25 23.28 -25 9 C-6.8313253 -1.21987952 -6.8313253 -1.21987952 0 0 Z " fill="#0F95DF" transform="translate(241,198)"/>
<path d="M0 0 C1.32 0 2.64 0 4 0 C4 1.32 4 2.64 4 4 C6.31 4 8.62 4 11 4 C11 5.65 11 7.3 11 9 C12.0725 8.34 13.145 7.68 14.25 7 C17.30980686 5.11704193 18.1335864 5 22 5 C22 5.66 22 6.32 22 7 C22.9075 7.268125 23.815 7.53625 24.75 7.8125 C27.75835378 8.91170619 29.50358617 10.08608273 32 12 C34.14733927 12.70514846 34.14733927 12.70514846 36 13 C36 13.66 36 14.32 36 15 C38.475 15.99 38.475 15.99 41 17 C42.96279789 38.56309634 42.96279789 38.56309634 38.57421875 44.01171875 C35.42796397 45.7552846 32.42408761 46.91735248 29 48 C27.68465617 48.79543562 26.38709122 49.62251897 25.125 50.5 C21.35346263 52.31033794 19.93922726 52.31307575 16 51 C13.5722614 49.7763018 11.31604599 48.43594851 9 47 C9 46.34 9 45.68 9 45 C10.72827148 43.93774414 10.72827148 43.93774414 13.12109375 42.78515625 C22.82723416 38.45690972 22.82723416 38.45690972 29.484375 30.828125 C29.67170225 28.04703585 29.60416114 25.71609833 29 23 C28.401875 22.87625 27.80375 22.7525 27.1875 22.625 C25 22 25 22 22 20 C17.09145218 20.19981699 13.34014721 23.01152655 9.3125 25.5625 C2.24886191 30 2.24886191 30 0 30 C0 20.1 0 10.2 0 0 Z " fill="#6DC502" transform="translate(246,191)"/>
<path d="M0 0 C2.96175123 0.61277612 4.38058783 1.25372522 7 3 C7 2.34 7 1.68 7 1 C8.32 1.33 9.64 1.66 11 2 C10.01 2.66 9.02 3.32 8 4 C8 4.66 8 5.32 8 6 C10.01822917 6.45572917 12.03645833 6.91145833 14.0546875 7.3671875 C16 8 16 8 18 10 C18.27585938 10.92039062 18.55171875 11.84078125 18.8359375 12.7890625 C20.18011729 16.49683359 21.92681223 18.52263008 24.625 21.375 C25.44226563 22.24898438 26.25953125 23.12296875 27.1015625 24.0234375 C27.72804687 24.67570312 28.35453125 25.32796875 29 26 C28.67 26.66 28.34 27.32 28 28 C25.03 27.67 22.06 27.34 19 27 C19 26.34 19 25.68 19 25 C18.34 25 17.68 25 17 25 C17 25.66 17 26.32 17 27 C13.31599416 28.23104155 10.08525024 27.90767252 6.25 27.5625 C5.07953125 27.46066406 3.9090625 27.35882813 2.703125 27.25390625 C1.81109375 27.17011719 0.9190625 27.08632813 0 27 C0 25.68 0 24.36 0 23 C-0.66 23 -1.32 23 -2 23 C-2.12375 23.639375 -2.2475 24.27875 -2.375 24.9375 C-2.684375 25.9584375 -2.684375 25.9584375 -3 27 C-6.18824568 28.59412284 -9.62896662 28.10174735 -13.125 28.0625 C-13.87910156 28.05798828 -14.63320312 28.05347656 -15.41015625 28.04882812 C-17.27347127 28.03703499 -19.13674555 28.01909942 -21 28 C-21 29.98 -21 31.96 -21 34 C-22.32 34 -23.64 34 -25 34 C-25 25.42 -25 16.84 -25 8 C-19.864375 7.9071875 -19.864375 7.9071875 -14.625 7.8125 C-13.54686035 7.78518799 -12.4687207 7.75787598 -11.35791016 7.72973633 C-10.08633057 7.71849731 -10.08633057 7.71849731 -8.7890625 7.70703125 C-7.91975098 7.6913208 -7.05043945 7.67561035 -6.15478516 7.65942383 C-5.44370605 7.77181396 -4.73262695 7.8842041 -4 8 C-1.43383368 11.84924948 -1.44902324 14.4349304 -1 19 C-0.67 15.37 -0.34 11.74 0 8 C0.99 7.67 1.98 7.34 3 7 C3 6.34 3 5.68 3 5 C2.01 4.67 1.02 4.34 0 4 C0 2.68 0 1.36 0 0 Z " fill="#D7F7FB" transform="translate(193,275)"/>
<path d="M0 0 C0.33 0 0.66 0 1 0 C1 9.9 1 19.8 1 30 C7.08098849 26.34842873 7.08098849 26.34842873 13.14550781 22.66967773 C14.28777832 21.99594116 14.28777832 21.99594116 15.453125 21.30859375 C16.22817383 20.84251709 17.00322266 20.37644043 17.80175781 19.89624023 C20.42323907 18.82744218 21.39720593 18.99365252 24 20 C26.01526169 20.96887581 28.01833966 21.9641321 30 23 C30.54743291 26.7982382 30.75173585 30.22043918 30 34 C27.4506609 36.85620399 24.40209269 38.31944819 21 40 C19.35271332 40.95583301 17.70680318 41.9140436 16.0625 42.875 C12.27358491 45 12.27358491 45 10 45 C9.67 45.66 9.34 46.32 9 47 C7.02 47 5.04 47 3 47 C5.36797991 44.38275905 7.89600354 42.67138271 11 41 C11.66 41 12.32 41 13 41 C13 36.38 13 31.76 13 27 C12.14277344 27.53109375 11.28554688 28.0621875 10.40234375 28.609375 C8.05355799 30.06273125 5.70026409 31.50843015 3.34375 32.94921875 C1.46009627 34.10449703 -0.41897472 35.26759858 -2.28125 36.45703125 C-6.40767611 39.01794921 -6.40767611 39.01794921 -9.0625 38.9375 C-9.701875 38.628125 -10.34125 38.31875 -11 38 C-12.0725 37.484375 -13.145 36.96875 -14.25 36.4375 C-15.1575 35.963125 -16.065 35.48875 -17 35 C-17 31.04 -17 27.08 -17 23 C-10.76447876 18.96525097 -10.76447876 18.96525097 -7.25 19.125 C-5 20 -5 20 -2 22 C-2 17.38 -2 12.76 -2 8 C-4.64 7.34 -7.28 6.68 -10 6 C-10 5.67 -10 5.34 -10 5 C-6.625 4.875 -6.625 4.875 -3 5 C-2.34 5.66 -1.68 6.32 -1 7 C-0.67 4.69 -0.34 2.38 0 0 Z " fill="#F8FDF2" transform="translate(245,191)"/>
<path d="M0 0 C1.97558594 1.15356445 1.97558594 1.15356445 4 3 C4.45410156 5.54370117 4.45410156 5.54370117 4.390625 8.54296875 C4.37128906 10.15268555 4.37128906 10.15268555 4.3515625 11.79492188 C4.31804687 12.91447266 4.28453125 14.03402344 4.25 15.1875 C4.23195312 16.31865234 4.21390625 17.44980469 4.1953125 18.61523438 C4.14812652 21.41100376 4.08230595 24.20507972 4 27 C5.65 27 7.3 27 9 27 C9 27.99 9 28.98 9 30 C7.02 30 5.04 30 3 30 C2.67 29.01 2.34 28.02 2 27 C1.34 27 0.68 27 0 27 C-0.495 22.05 -0.495 22.05 -1 17 C-1.33 18.65 -1.66 20.3 -2 22 C-8.6 22 -15.2 22 -22 22 C-22 23.65 -22 25.3 -22 27 C-16.06 27 -10.12 27 -4 27 C-4 27.99 -4 28.98 -4 30 C-7.12482562 30.08687496 -10.24934246 30.14034568 -13.375 30.1875 C-14.26445312 30.21263672 -15.15390625 30.23777344 -16.0703125 30.26367188 C-17.34648437 30.27817383 -17.34648437 30.27817383 -18.6484375 30.29296875 C-19.82672119 30.31653442 -19.82672119 30.31653442 -21.02880859 30.34057617 C-21.67930176 30.22818604 -22.32979492 30.1157959 -23 30 C-25.38225541 26.42661688 -25.24033109 24.79378986 -25.1875 20.5625 C-25.18105469 19.42941406 -25.17460937 18.29632813 -25.16796875 17.12890625 C-25 14 -25 14 -24 10 C-17.73 9.67 -11.46 9.34 -5 9 C-4.34 7.02 -3.68 5.04 -3 3 C-2.34 3.33 -1.68 3.66 -1 4 C-0.67 2.68 -0.34 1.36 0 0 Z " fill="#CFFCFD" transform="translate(250,272)"/>
<path d="M0 0 C1.65 0 3.3 0 5 0 C5 2.31 5 4.62 5 7 C5.97582031 6.97679687 6.95164062 6.95359375 7.95703125 6.9296875 C9.22933594 6.91164063 10.50164062 6.89359375 11.8125 6.875 C13.07707031 6.85179687 14.34164063 6.82859375 15.64453125 6.8046875 C19 7 19 7 22 9 C22.30395006 11.59847505 22.4186308 13.90639107 22.375 16.5 C22.38660156 17.18964844 22.39820313 17.87929688 22.41015625 18.58984375 C22.3984375 20.59375 22.3984375 20.59375 22 24 C18.84685215 26.10209857 18.13896919 26.2434761 14.55078125 26.1953125 C13.78677002 26.19031738 13.02275879 26.18532227 12.2355957 26.18017578 C10.78866333 26.15286377 10.78866333 26.15286377 9.3125 26.125 C6.239375 26.08375 3.16625 26.0425 0 26 C0 17.42 0 8.84 0 0 Z " fill="#90CC3F" transform="translate(263,276)"/>
<path d="M0 0 C3.09375 -0.04125 6.1875 -0.0825 9.375 -0.125 C10.83558838 -0.15231201 10.83558838 -0.15231201 12.32568359 -0.18017578 C13.09219238 -0.1851709 13.85870117 -0.19016602 14.6484375 -0.1953125 C15.82672119 -0.21102295 15.82672119 -0.21102295 17.02880859 -0.22705078 C19 0 19 0 21 2 C21.22503811 4.54848356 21.32440357 6.95263669 21.3125 9.5 C21.32861328 10.18964844 21.34472656 10.87929688 21.36132812 11.58984375 C21.36328125 13.59375 21.36328125 13.59375 21 17 C17.31912647 19.45391569 14.55644412 19.22802759 10.3125 19.125 C9.61060547 19.11597656 8.90871094 19.10695313 8.18554688 19.09765625 C6.45688475 19.07413704 4.72839855 19.03826713 3 19 C3 21.31 3 23.62 3 26 C2.01 26 1.02 26 0 26 C0 17.42 0 8.84 0 0 Z " fill="#33C2E6" transform="translate(168,283)"/>
<path d="M0 0 C1.32 0.66 2.64 1.32 4 2 C4 4.64 4 7.28 4 10 C6.64 10 9.28 10 12 10 C12 11.32 12 12.64 12 14 C9.36 14 6.72 14 4 14 C4 17.3 4 20.6 4 24 C6.64 24 9.28 24 12 24 C12 25.65 12 27.3 12 29 C10.22992286 29.08114106 8.45877902 29.13925505 6.6875 29.1875 C5.70136719 29.22230469 4.71523438 29.25710938 3.69921875 29.29296875 C1 29 1 29 -0.63671875 27.74609375 C-2.30080165 25.61473256 -2.41668622 24.44944863 -2.51171875 21.76953125 C-2.54716797 20.96708984 -2.58261719 20.16464844 -2.61914062 19.33789062 C-2.64169922 18.50451172 -2.66425781 17.67113281 -2.6875 16.8125 C-2.73874023 15.5450293 -2.73874023 15.5450293 -2.79101562 14.25195312 C-2.87341471 12.16843351 -2.93838645 10.08423784 -3 8 C-4.14654482 10.29308963 -4.19729117 11.79909656 -4.31640625 14.3515625 C-4.35830078 15.20234375 -4.40019531 16.053125 -4.44335938 16.9296875 C-4.48267578 17.81914062 -4.52199219 18.70859375 -4.5625 19.625 C-4.62727539 20.97078125 -4.62727539 20.97078125 -4.69335938 22.34375 C-4.79956861 24.56234283 -4.90161194 26.7810488 -5 29 C-6.98 29 -8.96 29 -11 29 C-11 22.73 -11 16.46 -11 10 C-9.68 9.67 -8.36 9.34 -7 9 C-7 8.34 -7 7.68 -7 7 C-8.32 7.33 -9.64 7.66 -11 8 C-10.67 6.35 -10.34 4.7 -10 3 C-8.3603125 3.0928125 -8.3603125 3.0928125 -6.6875 3.1875 C-3.07873917 3.35597914 -3.07873917 3.35597914 -1.0625 1.5 C-0.711875 1.005 -0.36125 0.51 0 0 Z " fill="#D6F3AF" transform="translate(300,273)"/>
<path d="M0 0 C1.32 0 2.64 0 4 0 C4 1.32 4 2.64 4 4 C6.31 4 8.62 4 11 4 C11 5.65 11 7.3 11 9 C12.65 9.33 14.3 9.66 16 10 C16.33 10.99 16.66 11.98 17 13 C16.67 13.66 16.34 14.32 16 15 C16.66 15 17.32 15 18 15 C18 15.66 18 16.32 18 17 C20.97 17 23.94 17 27 17 C26.67 17.99 26.34 18.98 26 20 C25.02675781 19.896875 24.05351562 19.79375 23.05078125 19.6875 C17.94646845 19.6875 14.36452631 22.31916785 10.1875 25 C8.68317281 25.94099926 7.1767608 26.87867645 5.66796875 27.8125 C5.01078857 28.23144531 4.3536084 28.65039062 3.67651367 29.08203125 C2 30 2 30 0 30 C0 20.1 0 10.2 0 0 Z " fill="#63AC09" transform="translate(246,191)"/>
<path d="M0 0 C6.46828245 -0.3661292 6.46828245 -0.3661292 8.7121582 1.17895508 C10.46578753 3.65863681 10.34300688 5.30525156 10.29296875 8.32421875 C10.28330078 9.35224609 10.27363281 10.38027344 10.26367188 11.43945312 C10.23853516 12.51130859 10.21339844 13.58316406 10.1875 14.6875 C10.16719727 16.31268555 10.16719727 16.31268555 10.14648438 17.97070312 C10.11110643 20.64763405 10.06174189 23.32356838 10 26 C9.34 26 8.68 26 8 26 C8 26.99 8 27.98 8 29 C7.34 29 6.68 29 6 29 C6 29.99 6 30.98 6 32 C3 34 3 34 1.1875 33.8125 C-1.65991787 32.75488765 -4.31017712 31.40604378 -7 30 C-7 26.04 -7 22.08 -7 18 C-0.76447876 13.96525097 -0.76447876 13.96525097 2.75 14.125 C5 15 5 15 8 17 C8 12.38 8 7.76 8 3 C5.36 2.34 2.72 1.68 0 1 C0 0.67 0 0.34 0 0 Z " fill="#FAFDF9" transform="translate(235,196)"/>
<path d="M0 0 C1.47668858 0.0133035 2.95331108 0.03716415 4.4296875 0.0703125 C5.18378906 0.07933594 5.93789063 0.08835937 6.71484375 0.09765625 C8.57826004 0.1212438 10.44151343 0.15711531 12.3046875 0.1953125 C12.9646875 1.5153125 13.6246875 2.8353125 14.3046875 4.1953125 C9.3546875 4.1953125 4.4046875 4.1953125 -0.6953125 4.1953125 C-0.6953125 5.1853125 -0.6953125 6.1753125 -0.6953125 7.1953125 C0.20832031 7.17210937 1.11195313 7.14890625 2.04296875 7.125 C3.22246094 7.10695313 4.40195312 7.08890625 5.6171875 7.0703125 C7.37482422 7.03550781 7.37482422 7.03550781 9.16796875 7 C12.3046875 7.1953125 12.3046875 7.1953125 15.3046875 9.1953125 C15.703125 11.0703125 15.703125 11.0703125 15.6796875 13.1953125 C15.68742187 13.8965625 15.69515625 14.5978125 15.703125 15.3203125 C15.3046875 17.1953125 15.3046875 17.1953125 12.3046875 19.1953125 C9.7584484 19.39029477 7.34724855 19.47437034 4.8046875 19.4453125 C4.12792969 19.45304687 3.45117188 19.46078125 2.75390625 19.46875 C-0.94450507 19.45416061 -2.54134587 19.29795692 -5.6953125 17.1953125 C-5.6953125 16.2053125 -5.6953125 15.2153125 -5.6953125 14.1953125 C-0.4153125 14.1953125 4.8646875 14.1953125 10.3046875 14.1953125 C10.3046875 13.5353125 10.3046875 12.8753125 10.3046875 12.1953125 C9.40105469 12.23011719 8.49742187 12.26492188 7.56640625 12.30078125 C6.38691406 12.32785156 5.20742188 12.35492188 3.9921875 12.3828125 C2.23455078 12.43501953 2.23455078 12.43501953 0.44140625 12.48828125 C-2.6953125 12.1953125 -2.6953125 12.1953125 -4.59375 10.90625 C-6.42189857 8.0667852 -5.99219873 5.46106107 -5.6953125 2.1953125 C-3.6953125 0.1953125 -3.6953125 0.1953125 0 0 Z " fill="#7FD219" transform="translate(320.6953125,282.8046875)"/>
<path d="M0 0 C0 4.62 0 9.24 0 14 C-2.88884223 15.67990826 -5.78500358 17.34398817 -8.6875 19 C-9.50412109 19.47695312 -10.32074219 19.95390625 -11.16210938 20.4453125 C-11.95810547 20.89648438 -12.75410156 21.34765625 -13.57421875 21.8125 C-14.30213623 22.23144531 -15.03005371 22.65039062 -15.7800293 23.08203125 C-18.33372919 24.13799865 -20.26261386 24.16832505 -23 24 C-24.06125335 20.28561327 -24 16.85305154 -24 13 C-20.7 13.33 -17.4 13.66 -14 14 C-14.66 13.01 -15.32 12.02 -16 11 C-12.20918993 6.84233734 -5.90642573 0 0 0 Z " fill="#04B4F4" transform="translate(258,218)"/>
<path d="M0 0 C0.66 0 1.32 0 2 0 C2 0.66 2 1.32 2 2 C4.475 2.99 4.475 2.99 7 4 C7 11.92 7 19.84 7 28 C-3.875 34 -3.875 34 -5 34 C-5.05441656 32.10448978 -5.09298035 30.2085208 -5.125 28.3125 C-5.14820313 27.25675781 -5.17140625 26.20101562 -5.1953125 25.11328125 C-4.99858729 21.97748141 -4.33057654 19.82354627 -3 17 C-1.68 17.33 -0.36 17.66 1 18 C1.66 17.01 2.32 16.02 3 15 C2.34 15 1.68 15 1 15 C1 14.34 1 13.68 1 13 C-0.65 12.67 -2.3 12.34 -4 12 C-4 11.01 -4 10.02 -4 9 C-3.34 9 -2.68 9 -2 9 C-2.04125 8.2575 -2.0825 7.515 -2.125 6.75 C-1.99601866 3.91241048 -1.42948778 2.41226062 0 0 Z " fill="#7DD706" transform="translate(280,204)"/>
<path d="M0 0 C0.33 3.3 0.66 6.6 1 10 C-6.75 11.125 -6.75 11.125 -9 10 C-9 10.66 -9 11.32 -9 12 C-9.66 12 -10.32 12 -11 12 C-11.0721875 12.59296875 -11.144375 13.1859375 -11.21875 13.796875 C-12.28387419 16.80052523 -13.82969531 17.5768344 -16.5 19.25 C-17.3146875 19.77078125 -18.129375 20.2915625 -18.96875 20.828125 C-21 22 -21 22 -22 22 C-23.05362289 11.51394358 -23.05362289 11.51394358 -20.79296875 8.265625 C-18.93032421 6.92207812 -17.08343775 5.9678381 -15 5 C-14.16984375 4.53851563 -13.3396875 4.07703125 -12.484375 3.6015625 C-7.81413252 1.07068259 -5.4862853 0 0 0 Z " fill="#059CE9" transform="translate(239,199)"/>
<path d="M0 0 C0 8.25 0 16.5 0 25 C4.6096875 24.7834375 4.6096875 24.7834375 9.3125 24.5625 C10.27712158 24.51939697 11.24174316 24.47629395 12.2355957 24.43188477 C13.38161255 24.3747229 13.38161255 24.3747229 14.55078125 24.31640625 C15.33106689 24.27974854 16.11135254 24.24309082 16.9152832 24.20532227 C19.19329101 24.05874737 19.19329101 24.05874737 22 23 C22 18.05 22 13.1 22 8 C21.01 7.67 20.02 7.34 19 7 C19.66 6.67 20.32 6.34 21 6 C21.99 6.66 22.98 7.32 24 8 C24.33 6.35 24.66 4.7 25 3 C26.65 3 28.3 3 30 3 C30.495 4.485 30.495 4.485 31 6 C29.35 6 27.7 6 26 6 C26 12.27 26 18.54 26 25 C25.505 23.515 25.505 23.515 25 22 C24.34 22 23.68 22 23 22 C23 23.32 23 24.64 23 26 C10.625 26.495 10.625 26.495 -2 27 C-2 25.02 -2 23.04 -2 21 C-3.98 21 -5.96 21 -8 21 C-8 18.36 -8 15.72 -8 13 C-7.01 13 -6.02 13 -5 13 C-4.67 12.01 -4.34 11.02 -4 10 C-3.34 10 -2.68 10 -2 10 C-2 8.35 -2 6.7 -2 5 C-2.99 5 -3.98 5 -5 5 C-5 3.68 -5 2.36 -5 1 C-1.125 0 -1.125 0 0 0 Z " fill="#FAFCF8" transform="translate(263,277)"/>
<path d="M0 0 C0.33 0.66 0.66 1.32 1 2 C1.928125 1.938125 2.85625 1.87625 3.8125 1.8125 C7 2 7 2 8.65625 3.125 C10.55437342 5.77354431 10.51407847 7.96185963 10.6875 11.1875 C10.75324219 12.27417969 10.81898438 13.36085937 10.88671875 14.48046875 C10.92410156 15.31191406 10.96148437 16.14335937 11 17 C10.01 17 9.02 17 8 17 C8 18.32 8 19.64 8 21 C7.195625 21.28875 6.39125 21.5775 5.5625 21.875 C2.8673532 22.73262568 2.8673532 22.73262568 2 25 C1.01 25 0.02 25 -1 25 C-1.02886984 21.02084841 -1.04675406 17.04172347 -1.0625 13.0625 C-1.07087891 11.92619141 -1.07925781 10.78988281 -1.08789062 9.61914062 C-1.09111328 8.53955078 -1.09433594 7.45996094 -1.09765625 6.34765625 C-1.10289307 5.34742432 -1.10812988 4.34719238 -1.11352539 3.31665039 C-1 1 -1 1 0 0 Z " fill="#03B4F4" transform="translate(218,222)"/>
<path d="M0 0 C1.43655854 -0.08131463 2.8744483 -0.13933559 4.3125 -0.1875 C5.51326172 -0.23970703 5.51326172 -0.23970703 6.73828125 -0.29296875 C9 0 9 0 10.7890625 1.2890625 C12.70189756 3.99171332 12.05861188 6.77634645 12 10 C14.77042109 12.77042109 16.76533805 12.39796106 20.625 12.625 C21.81351562 12.69976562 23.00203125 12.77453125 24.2265625 12.8515625 C25.14179688 12.90054687 26.05703125 12.94953125 27 13 C27 13.66 27 14.32 27 15 C21.72 15 16.44 15 11 15 C11 15.99 11 16.98 11 18 C14.56086658 19.18695553 17.97331024 19.35095418 21.6875 19.5625 C22.38939453 19.60568359 23.09128906 19.64886719 23.81445312 19.69335938 C25.54275206 19.7991736 27.2713511 19.90006581 29 20 C29 20.33 29 20.66 29 21 C26.4374282 21.02710123 23.87514635 21.04688771 21.3125 21.0625 C20.59126953 21.07087891 19.87003906 21.07925781 19.12695312 21.08789062 C15.28444618 21.10543632 11.73360474 20.93524221 8 20 C8 18.35 8 16.7 8 15 C5.36 15 2.72 15 0 15 C0 11.7 0 8.4 0 5 C2.64 5 5.28 5 8 5 C8 3.68 8 2.36 8 1 C5.36 1 2.72 1 0 1 C0 0.67 0 0.34 0 0 Z " fill="#F6FEE4" transform="translate(304,282)"/>
<path d="M0 0 C0.33 0 0.66 0 1 0 C1 13.53 1 27.06 1 41 C2.65 41 4.3 41 6 41 C6 39.68 6 38.36 6 37 C8.31 37 10.62 37 13 37 C13 37.99 13 38.98 13 40 C13.185625 41.03125 13.37125 42.0625 13.5625 43.125 C13.706875 44.07375 13.85125 45.0225 14 46 C13 47 13 47 10.4375 47.0625 C9.633125 47.041875 8.82875 47.02125 8 47 C8 47.99 8 48.98 8 50 C8.66 50 9.32 50 10 50 C9.67 52.64 9.34 55.28 9 58 C8.34 58 7.68 58 7 58 C7 57.34 7 56.68 7 56 C6.34 56 5.68 56 5 56 C5.33 54.35 5.66 52.7 6 51 C4.68 51 3.36 51 2 51 C1.896875 50.05125 1.79375 49.1025 1.6875 48.125 C1.31460705 44.70892499 1.31460705 44.70892499 -2 43 C-1.84152588 42.021521 -1.68305176 41.04304199 -1.51977539 40.03491211 C-0.9222994 35.83731258 -0.77779007 31.67609694 -0.68359375 27.44140625 C-0.66281265 26.65225327 -0.64203156 25.86310028 -0.62062073 25.05003357 C-0.55576695 22.55426891 -0.49654195 20.05840822 -0.4375 17.5625 C-0.39425358 15.86001652 -0.35063744 14.15754238 -0.30664062 12.45507812 C-0.20015237 8.30348127 -0.09870853 4.15178882 0 0 Z " fill="#CEFBFE" transform="translate(215,208)"/>
<path d="M0 0 C4.95 0 9.9 0 15 0 C15 4.29 15 8.58 15 13 C10.05 13 5.1 13 0 13 C0 8.71 0 4.42 0 0 Z " fill="#DDFEFD" transform="translate(171,286)"/>
<path d="M0 0 C1.32 0 2.64 0 4 0 C4.33 1.65 4.66 3.3 5 5 C7.64 5.33 10.28 5.66 13 6 C13 7.32 13 8.64 13 10 C10.36 10 7.72 10 5 10 C5 13.3 5 16.6 5 20 C7.64 20 10.28 20 13 20 C13 21.65 13 23.3 13 25 C11.20866022 25.05391993 9.41686101 25.09275571 7.625 25.125 C6.62726563 25.14820313 5.62953125 25.17140625 4.6015625 25.1953125 C2 25 2 25 0 23 C-0.22705078 20.66162109 -0.22705078 20.66162109 -0.1953125 17.7734375 C-0.18886719 16.7421875 -0.18242187 15.7109375 -0.17578125 14.6484375 C-0.15902344 13.56820313 -0.14226562 12.48796875 -0.125 11.375 C-0.11597656 10.28703125 -0.10695313 9.1990625 -0.09765625 8.078125 C-0.07403409 5.38519848 -0.04109556 2.69270745 0 0 Z " fill="#82CA25" transform="translate(299,277)"/>
<path d="M0 0 C1.32 0 2.64 0 4 0 C4 1.32 4 2.64 4 4 C6.31 4 8.62 4 11 4 C11 5.65 11 7.3 11 9 C11.66 9.33 12.32 9.66 13 10 C12.34 10 11.68 10 11 10 C11 12.64 11 15.28 11 18 C10.278125 17.95875 9.55625 17.9175 8.8125 17.875 C5.79270631 18.00921305 3.73064271 18.75170619 1 20 C0.09761253 17.29283758 -0.11851302 15.76223232 -0.09765625 12.98828125 C-0.09443359 12.23095703 -0.09121094 11.47363281 -0.08789062 10.69335938 C-0.07951172 9.90767578 -0.07113281 9.12199219 -0.0625 8.3125 C-0.05798828 7.51521484 -0.05347656 6.71792969 -0.04882812 5.89648438 C-0.0370585 3.93095743 -0.01912348 1.96546915 0 0 Z " fill="#7AD702" transform="translate(246,191)"/>
<path d="M0 0 C0.66 0.33 1.32 0.66 2 1 C2 5.62 2 10.24 2 15 C0.68 14.34 -0.64 13.68 -2 13 C-5.83210571 13.40337955 -9.37242154 14.73456565 -13 16 C-13 15.01 -13 14.02 -13 13 C-12.34 13 -11.68 13 -11 13 C-11 12.34 -11 11.68 -11 11 C-7.7 11 -4.4 11 -1 11 C-1.495 6.05 -1.495 6.05 -2 1 C-9.16160521 2.73924698 -14.11060556 5.09718748 -19.96875 9.57421875 C-22 11 -22 11 -24 11 C-24 23.54 -24 36.08 -24 49 C-23.01 49 -22.02 49 -21 49 C-20.67 48.34 -20.34 47.68 -20 47 C-20 48.32 -20 49.64 -20 51 C-21.65 51 -23.3 51 -25 51 C-25 37.14 -25 23.28 -25 9 C-6.8313253 -1.21987952 -6.8313253 -1.21987952 0 0 Z " fill="#35BBE4" transform="translate(241,198)"/>
<path d="M0 0 C0.66 0 1.32 0 2 0 C3 2 3 2 3 11 C-2.94 11 -8.88 11 -15 11 C-15 8.03 -15 5.06 -15 2 C-14.00097656 1.93941406 -13.00195312 1.87882812 -11.97265625 1.81640625 C-10.68230469 1.73261719 -9.39195312 1.64882813 -8.0625 1.5625 C-6.77472656 1.48128906 -5.48695313 1.40007812 -4.16015625 1.31640625 C-1.13976043 1.35080812 -1.13976043 1.35080812 0 0 Z " fill="#3BC5EA" transform="translate(243,283)"/>
<path d="M0 0 C0.99 0.33 1.98 0.66 3 1 C3.66 4.3 4.32 7.6 5 11 C5.33 7.37 5.66 3.74 6 0 C7.32 0 8.64 0 10 0 C10 6.27 10 12.54 10 19 C8.68 19 7.36 19 6 19 C6 17.68 6 16.36 6 15 C5.34 15 4.68 15 4 15 C3.87625 15.639375 3.7525 16.27875 3.625 16.9375 C3.315625 17.9584375 3.315625 17.9584375 3 19 C-0.18824568 20.59412284 -3.62896662 20.10174735 -7.125 20.0625 C-7.87910156 20.05798828 -8.63320312 20.05347656 -9.41015625 20.04882812 C-11.27347127 20.03703499 -13.13674555 20.01909942 -15 20 C-15 21.98 -15 23.96 -15 26 C-15.33 26 -15.66 26 -16 26 C-16 23.69 -16 21.38 -16 19 C-14.41058594 18.90912109 -14.41058594 18.90912109 -12.7890625 18.81640625 C-11.40102779 18.73199873 -10.01300768 18.64735083 -8.625 18.5625 C-7.92632812 18.52318359 -7.22765625 18.48386719 -6.5078125 18.44335938 C-2.62639508 18.25719866 -2.62639508 18.25719866 1 17 C1.02691685 14.54159395 1.04679802 12.08348118 1.0625 9.625 C1.07087891 8.92632812 1.07925781 8.22765625 1.08789062 7.5078125 C1.1835442 3.62704624 1.1835442 3.62704624 0 0 Z " fill="#BFFAFE" transform="translate(187,283)"/>
<path d="M0 0 C0.66 0.33 1.32 0.66 2 1 C1.67 1.99 1.34 2.98 1 4 C1.16442277 7.06991681 1.16442277 7.06991681 2 10 C2.99 10.66 3.98 11.32 5 12 C1.86485678 13.86615668 -0.24703912 15.01602044 -3.9375 14.9375 C-7.72710098 13.77741807 -10.63351847 12.08721855 -14 10 C-14 9.34 -14 8.68 -14 8 C-11.7136988 6.63597957 -9.42178251 5.28365726 -7.125 3.9375 C-6.47402344 3.54755859 -5.82304687 3.15761719 -5.15234375 2.75585938 C-3.46934275 1.77555467 -1.73703801 0.88101568 0 0 Z " fill="#79BD20" transform="translate(269,228)"/>
<path d="M0 0 C2.7885289 -0.22107787 5.34653181 -0.28107535 8.125 -0.1875 C8.87910156 -0.17396484 9.63320312 -0.16042969 10.41015625 -0.14648438 C12.27374127 -0.11109985 14.13695978 -0.05729167 16 0 C15.67 0.66 15.34 1.32 15 2 C10.38 2 5.76 2 1 2 C1 4.31 1 6.62 1 9 C3.64 9 6.28 9 9 9 C9 9.33 9 9.66 9 10 C6.36 10 3.72 10 1 10 C1 11.98 1 13.96 1 16 C6.94 16 12.88 16 19 16 C19 16.99 19 17.98 19 19 C15.87517438 19.08687496 12.75065754 19.14034568 9.625 19.1875 C8.73554688 19.21263672 7.84609375 19.23777344 6.9296875 19.26367188 C5.65351563 19.27817383 5.65351563 19.27817383 4.3515625 19.29296875 C3.17327881 19.31653442 3.17327881 19.31653442 1.97119141 19.34057617 C1.32069824 19.22818604 0.67020508 19.1157959 0 19 C-2.38081145 15.42878282 -2.26906871 13.73325367 -2.25 9.5 C-2.25773438 7.78296875 -2.25773438 7.78296875 -2.265625 6.03125 C-2 3 -2 3 0 0 Z " fill="#22BDE2" transform="translate(227,283)"/>
<path d="M0 0 C0.99 0.33 1.98 0.66 3 1 C3.29296875 7.0546875 3.29296875 7.0546875 3 9 C-0.62346069 11.41564046 -3.31603982 11.29781669 -7.5 11.25 C-8.17675781 11.25773437 -8.85351562 11.26546875 -9.55078125 11.2734375 C-13.24919257 11.25884811 -14.84603337 11.10264442 -18 9 C-18 8.01 -18 7.02 -18 6 C-12.72 6 -7.44 6 -2 6 C-2 5.34 -2 4.68 -2 4 C-6.29 4 -10.58 4 -15 4 C-15 3.67 -15 3.34 -15 3 C-13.75283203 2.92652344 -13.75283203 2.92652344 -12.48046875 2.8515625 C-11.39378906 2.77679688 -10.30710937 2.70203125 -9.1875 2.625 C-8.10855469 2.55539062 -7.02960938 2.48578125 -5.91796875 2.4140625 C-2.81373814 2.18804267 -2.81373814 2.18804267 0 0 Z " fill="#98D749" transform="translate(333,291)"/>
<path d="M0 0 C3.96 0 7.92 0 12 0 C12 3.63 12 7.26 12 11 C8.04 11 4.08 11 0 11 C0 7.37 0 3.74 0 0 Z " fill="#E2F9C9" transform="translate(268,287)"/>
<path d="M0 0 C0.33 0 0.66 0 1 0 C1 6.27 1 12.54 1 19 C0.34 19.33 -0.32 19.66 -1 20 C-1.66 20.99 -2.32 21.98 -3 23 C-3 22.01 -3 21.02 -3 20 C-8.94 20 -14.88 20 -21 20 C-21 18.35 -21 16.7 -21 15 C-14.4 15 -7.8 15 -1 15 C-0.67 10.05 -0.34 5.1 0 0 Z " fill="#DBFEFE" transform="translate(249,279)"/>
<path d="M0 0 C0 0.66 0 1.32 0 2 C1.3921875 2.4021875 1.3921875 2.4021875 2.8125 2.8125 C5.76240366 3.91148371 7.05615186 4.62418561 9 7 C6.6200262 9.63049736 4.2107223 11.47108462 1 13 C-1.8125 12.6875 -1.8125 12.6875 -4 12 C-4 11.34 -4 10.68 -4 10 C-4.66 10 -5.32 10 -6 10 C-6.59732819 7.23735711 -7 4.83967231 -7 2 C-4 0 -4 0 0 0 Z " fill="#74CB06" transform="translate(268,196)"/>
<path d="M0 0 C2.125 0.875 2.125 0.875 3.125 2.875 C1.475 2.875 -0.175 2.875 -1.875 2.875 C-1.875 3.535 -1.875 4.195 -1.875 4.875 C-2.535 4.875 -3.195 4.875 -3.875 4.875 C-3.86339844 5.50148437 -3.85179687 6.12796875 -3.83984375 6.7734375 C-3.83082031 7.59070313 -3.82179687 8.40796875 -3.8125 9.25 C-3.80089844 10.06210938 -3.78929687 10.87421875 -3.77734375 11.7109375 C-3.875 13.875 -3.875 13.875 -4.875 15.875 C-2.235 16.205 0.405 16.535 3.125 16.875 C1.875 18.4375 1.875 18.4375 0.125 19.875 C-3.51729052 19.62380755 -6.68675788 17.54158111 -9.875 15.875 C-9.875 11.915 -9.875 7.955 -9.875 3.875 C-3.64166667 -0.15833333 -3.64166667 -0.15833333 0 0 Z " fill="#E1F8FD" transform="translate(237.875,210.125)"/>
<path d="M0 0 C4.49702625 -0.41299221 4.49702625 -0.41299221 6.703125 1.3984375 C7.21359375 2.05070312 7.7240625 2.70296875 8.25 3.375 C8.83394531 4.09429687 9.41789063 4.81359375 10.01953125 5.5546875 C10.67308594 6.36164063 11.32664063 7.16859375 12 8 C13.63599146 9.84212117 15.28191018 11.67547244 16.9375 13.5 C17.70964844 14.3559375 18.48179687 15.211875 19.27734375 16.09375 C19.84582031 16.7228125 20.41429687 17.351875 21 18 C19.203125 18.68359375 19.203125 18.68359375 17 19 C15.296875 17.78515625 15.296875 17.78515625 13.75 16.0625 C13.22921875 15.49660156 12.7084375 14.93070312 12.171875 14.34765625 C11.78515625 13.90292969 11.3984375 13.45820313 11 13 C7.31197956 14.22934015 6.27643027 15.93859378 4 19 C2.68 18.67 1.36 18.34 0 18 C1.375 16 1.375 16 3 14 C3.66 14 4.32 14 5 14 C5.33 13.01 5.66 12.02 6 11 C6.66 11 7.32 11 8 11 C5.71461395 6.91036181 3.04293074 3.53637896 0 0 Z " fill="#2ABFF1" transform="translate(201,283)"/>
<path d="M0 0 C0.33 0.66 0.66 1.32 1 2 C1.66 2 2.32 2 3 2 C3 4.31 3 6.62 3 9 C2.34 9 1.68 9 1 9 C1 9.99 1 10.98 1 12 C-4.625 15 -4.625 15 -8 15 C-8.16682272 10.07872966 -8.24828052 6.49656104 -6 2 C-4.68 2.33 -3.36 2.66 -2 3 C-1.34 2.01 -0.68 1.02 0 0 Z " fill="#79D603" transform="translate(283,219)"/>
<path d="M0 0 C-0.33 0.99 -0.66 1.98 -1 3 C-0.01 3 0.98 3 2 3 C2.23828125 5.296875 2.23828125 5.296875 2 8 C0.35546875 9.765625 0.35546875 9.765625 -1.8125 11.25 C-2.52019531 11.75015625 -3.22789062 12.2503125 -3.95703125 12.765625 C-6 14 -6 14 -9 15 C-9.34435435 10.94427097 -9.53167044 7.04391758 -9 3 C-4.5 -1.5 -4.5 -1.5 0 0 Z " fill="#05BEFA" transform="translate(226,206)"/>
<path d="M0 0 C0.66 0 1.32 0 2 0 C2.33 0.99 2.66 1.98 3 3 C9.93 3.495 9.93 3.495 17 4 C17.9230348 7.69213922 18.10346196 10.48149954 18.0625 14.25 C18.05347656 15.32765625 18.04445313 16.4053125 18.03515625 17.515625 C18.02355469 18.33546875 18.01195312 19.1553125 18 20 C17.01 19.67 16.02 19.34 15 19 C15 15.37 15 11.74 15 8 C14.00097656 8.01160156 13.00195312 8.02320313 11.97265625 8.03515625 C10.68230469 8.04417969 9.39195312 8.05320312 8.0625 8.0625 C6.77472656 8.07410156 5.48695313 8.08570313 4.16015625 8.09765625 C1 8 1 8 0 7 C-0.04092937 4.66702567 -0.04241723 2.33294775 0 0 Z " fill="#81CC17" transform="translate(265,279)"/>
<path d="M0 0 C1.65 0 3.3 0 5 0 C5.33 0.99 5.66 1.98 6 3 C4.35 3 2.7 3 1 3 C1 9.27 1 15.54 1 22 C0.67 21.01 0.34 20.02 0 19 C-0.66 19 -1.32 19 -2 19 C-2 20.32 -2 21.64 -2 23 C-8.93 23 -15.86 23 -23 23 C-23 22.67 -23 22.34 -23 22 C-21.80761719 21.93941406 -20.61523438 21.87882812 -19.38671875 21.81640625 C-17.82030075 21.73198851 -16.25389512 21.64734113 -14.6875 21.5625 C-13.90181641 21.52318359 -13.11613281 21.48386719 -12.30664062 21.44335938 C-11.54931641 21.40146484 -10.79199219 21.35957031 -10.01171875 21.31640625 C-8.96697388 21.26141968 -8.96697388 21.26141968 -7.90112305 21.20532227 C-5.7783428 21.04418847 -5.7783428 21.04418847 -3 20 C-3 15.05 -3 10.1 -3 5 C-3.99 4.67 -4.98 4.34 -6 4 C-5.34 3.67 -4.68 3.34 -4 3 C-3.01 3.66 -2.02 4.32 -1 5 C-0.67 3.35 -0.34 1.7 0 0 Z " fill="#F0FED9" transform="translate(288,280)"/>
<path d="M0 0 C0.66 0.33 1.32 0.66 2 1 C0.68 2.32 -0.64 3.64 -2 5 C-1.34 5.66 -0.68 6.32 0 7 C-4.00200378 8.60080151 -7.04556236 7.29279692 -11 6 C-10.649375 6.9075 -10.29875 7.815 -9.9375 8.75 C-9.03531221 11.87758436 -8.86618493 13.05208081 -10 16 C-9.01 16.66 -8.02 17.32 -7 18 C-10.71888239 17.49287967 -13.73454239 16.88391785 -17 15 C-17 16.65 -17 18.3 -17 20 C-19.31 20 -21.62 20 -24 20 C-23.67 19.34 -23.34 18.68 -23 18 C-21.68 18 -20.36 18 -19 18 C-19 16.68 -19 15.36 -19 14 C-17.02 13.67 -15.04 13.34 -13 13 C-13.0721875 12.38511719 -13.144375 11.77023438 -13.21875 11.13671875 C-13.3115625 10.32847656 -13.404375 9.52023438 -13.5 8.6875 C-13.5928125 7.88699219 -13.685625 7.08648437 -13.78125 6.26171875 C-14 4 -14 4 -14 1 C-13.4225 1.515625 -12.845 2.03125 -12.25 2.5625 C-10.18008745 4.19822109 -10.18008745 4.19822109 -8.125 3.875 C-5.7969937 2.95318951 -5.7969937 2.95318951 -2.875 1.375 C-1.451875 0.694375 -1.451875 0.694375 0 0 Z " fill="#1A9FDF" transform="translate(245,225)"/>
<path d="M0 0 C0.33 0 0.66 0 1 0 C1.66 5.28 2.32 10.56 3 16 C3.99 15.67 4.98 15.34 6 15 C5.67 15.99 5.34 16.98 5 18 C8.25543229 17.65120368 9.01873107 16.97866739 11.25 14.4375 C11.8275 13.633125 12.405 12.82875 13 12 C16.38749978 13.45178562 18.45161209 15.36940603 21 18 C21.99 18.66 22.98 19.32 24 20 C21.03 19.67 18.06 19.34 15 19 C15 18.34 15 17.68 15 17 C14.34 17 13.68 17 13 17 C13 17.66 13 18.32 13 19 C8.85529486 20.32630565 3.96769422 20.98384711 0 19 C0 12.73 0 6.46 0 0 Z " fill="#D1FCFC" transform="translate(197,283)"/>
<path d="M0 0 C1.65 0 3.3 0 5 0 C5 6.27 5 12.54 5 19 C3.35 19 1.7 19 0 19 C0 12.73 0 6.46 0 0 Z " fill="#87CD29" transform="translate(289,283)"/>
<path d="M0 0 C2.72869407 0.03287583 5.2966618 0.56397771 8 1 C7.67 1.99 7.34 2.98 7 4 C6.77281504 6.56634861 6.58391816 9.11678107 6.4375 11.6875 C6.39431641 12.38939453 6.35113281 13.09128906 6.30664062 13.81445312 C6.2008264 15.54275206 6.09993419 17.2713511 6 19 C5.01 19 4.02 19 3 19 C1.875 14.25 1.875 14.25 3 12 C3.66 12 4.32 12 5 12 C5 11.34 5 10.68 5 10 C4.030625 9.690625 3.06125 9.38125 2.0625 9.0625 C-1 8 -1 8 -2 7 C-2.1875 4.5625 -2.1875 4.5625 -2 2 C-1.34 1.34 -0.68 0.68 0 0 Z " fill="#FBFCFA" transform="translate(217,280)"/>
<path d="M0 0 C0.33 0 0.66 0 1 0 C1 9.9 1 19.8 1 30 C6.94 26.535 6.94 26.535 13 23 C13.66 23 14.32 23 15 23 C14.67 23.99 14.34 24.98 14 26 C13.01 26 12.02 26 11 26 C10.7834375 26.59296875 10.566875 27.1859375 10.34375 27.796875 C8.54575361 30.74475281 6.5428652 31.66450708 3.5 33.25 C2.03046875 34.03117187 2.03046875 34.03117187 0.53125 34.828125 C-2 36 -2 36 -4 36 C-4 35.34 -4 34.68 -4 34 C-3.34 34 -2.68 34 -2 34 C-2 33.01 -2 32.02 -2 31 C-1.34 31 -0.68 31 0 31 C0 20.77 0 10.54 0 0 Z " fill="#CDF1D0" transform="translate(245,191)"/>
<path d="M0 0 C0.66 0.33 1.32 0.66 2 1 C1.9666545 9.58646588 1.9666545 9.58646588 -0.19140625 12.7421875 C-3.5089735 15.66996225 -6.65406583 16.68957613 -11 17 C-11 13.7 -11 10.4 -11 7 C-10.34 7.66 -9.68 8.32 -9 9 C-8.071875 8.649375 -7.14375 8.29875 -6.1875 7.9375 C-3 7 -3 7 0 8 C0 5.36 0 2.72 0 0 Z " fill="#6BBB03" transform="translate(257,201)"/>
<path d="M0 0 C0.99 0 1.98 0 3 0 C3 7.26 3 14.52 3 22 C4.65 22 6.3 22 8 22 C8 22.99 8 23.98 8 25 C5.125 25.1875 5.125 25.1875 2 25 C-0.20192224 21.69711664 -0.23959968 20.72537273 -0.1953125 16.89453125 C-0.18886719 15.91162109 -0.18242187 14.92871094 -0.17578125 13.91601562 C-0.15902344 12.89185547 -0.14226562 11.86769531 -0.125 10.8125 C-0.11597656 9.77673828 -0.10695312 8.74097656 -0.09765625 7.67382812 C-0.0740786 5.11565315 -0.0411703 2.55794252 0 0 Z " fill="#31BFE2" transform="translate(251,277)"/>
<path d="M0 0 C4.97306516 0.49730652 8.63799813 1.55302334 13 4 C13 4.66 13 5.32 13 6 C7.25 9 7.25 9 5 9 C5 9.66 5 10.32 5 11 C3.35 10.67 1.7 10.34 0 10 C0.185625 9.0925 0.37125 8.185 0.5625 7.25 C0.95734621 4.31685676 0.94691572 2.7355343 0 0 Z " fill="#04B1F7" transform="translate(234,231)"/>
<path d="M0 0 C6.75 0.875 6.75 0.875 9 2 C9 6.62 9 11.24 9 16 C7.68 15.34 6.36 14.68 5 14 C1.16789429 14.40337955 -2.37242154 15.73456565 -6 17 C-6 16.01 -6 15.02 -6 14 C-5.34 14 -4.68 14 -4 14 C-4 13.34 -4 12.68 -4 12 C-0.7 12 2.6 12 6 12 C5.67 8.7 5.34 5.4 5 2 C3.35 2 1.7 2 0 2 C0 1.34 0 0.68 0 0 Z " fill="#1492D7" transform="translate(234,197)"/>
<path d="M0 0 C0.99 0 1.98 0 3 0 C3 3.96 3 7.92 3 12 C-0.96 11.67 -4.92 11.34 -9 11 C-8.01 10.67 -7.02 10.34 -6 10 C-6.33 8.68 -6.66 7.36 -7 6 C-6.01 6 -5.02 6 -4 6 C-4 4.68 -4 3.36 -4 2 C-3.34 2 -2.68 2 -2 2 C-2 2.66 -2 3.32 -2 4 C-1.34 3.67 -0.68 3.34 0 3 C0 2.01 0 1.02 0 0 Z " fill="#FCFCFC" transform="translate(182,286)"/>
<path d="M0 0 C0.66 0.66 1.32 1.32 2 2 C2.66 1.67 3.32 1.34 4 1 C4 2.32 4 3.64 4 5 C4.99 5 5.98 5 7 5 C7.36458333 9.49652778 7.36458333 9.49652778 5.6875 11.8125 C4 13 4 13 1 13 C1 15.64 1 18.28 1 21 C2.98 21 4.96 21 7 21 C7 22.32 7 23.64 7 25 C6.34 25 5.68 25 5 25 C5 24.01 5 23.02 5 22 C3.35 22 1.7 22 0 22 C0 14.74 0 7.48 0 0 Z " fill="#E5FDFE" transform="translate(254,277)"/>
<path d="M0 0 C4.95 0 9.9 0 15 0 C15 1.65 15 3.3 15 5 C10.05 5 5.1 5 0 5 C0 3.35 0 1.7 0 0 Z " fill="#E1FEFD" transform="translate(228,286)"/>
<path d="M0 0 C1.98 0 3.96 0 6 0 C6.38133299 1.9914056 6.71325582 3.99279077 7 6 C6 7 6 7 3.4375 7.0625 C2.2309375 7.0315625 2.2309375 7.0315625 1 7 C1 7.99 1 8.98 1 10 C1.66 10 2.32 10 3 10 C3 10.99 3 11.98 3 13 C2.01 13 1.02 13 0 13 C0 12.01 0 11.02 0 10 C-1.32 10 -2.64 10 -4 10 C-4 8.35 -4 6.7 -4 5 C-2.68 5 -1.36 5 0 5 C0 3.35 0 1.7 0 0 Z " fill="#AFEDF5" transform="translate(222,248)"/>
<path d="M0 0 C0.66 0 1.32 0 2 0 C2 0.66 2 1.32 2 2 C4.475 2.99 4.475 2.99 7 4 C7 11.92 7 19.84 7 28 C3.37 29.98 -0.26 31.96 -4 34 C-4.33 32.68 -4.66 31.36 -5 30 C-2.03 29.01 0.94 28.02 4 27 C4 26.01 4 25.02 4 24 C4.66 24 5.32 24 6 24 C5.67 17.73 5.34 11.46 5 5 C3.68 4.34 2.36 3.68 1 3 C0.67 2.01 0.34 1.02 0 0 Z " fill="#8FD131" transform="translate(280,204)"/>
<path d="M0 0 C5.61 0 11.22 0 17 0 C17 1.32 17 2.64 17 4 C12.05 4 7.1 4 2 4 C1.34 2.68 0.68 1.36 0 0 Z " fill="#7ECE15" transform="translate(316,298)"/>
<path d="M0 0 C6.27 0 12.54 0 19 0 C19 0.33 19 0.66 19 1 C13.06 1 7.12 1 1 1 C1 9.58 1 18.16 1 27 C2.32 27 3.64 27 5 27 C5 25.02 5 23.04 5 21 C5.33 21 5.66 21 6 21 C6 23.64 6 26.28 6 29 C4.125 29.625 4.125 29.625 2 30 C0 28 0 28 -0.22705078 25.20263672 C-0.21134033 23.45877686 -0.21134033 23.45877686 -0.1953125 21.6796875 C-0.18886719 20.42285156 -0.18242187 19.16601562 -0.17578125 17.87109375 C-0.15902344 16.55238281 -0.14226562 15.23367188 -0.125 13.875 C-0.11496983 12.53516279 -0.10584404 11.19531848 -0.09765625 9.85546875 C-0.07402148 6.57023624 -0.0381495 3.28509602 0 0 Z " fill="#C8FCFE" transform="translate(167,282)"/>
<path d="M0 0 C0.66 0 1.32 0 2 0 C2 2.97 2 5.94 2 9 C6.29 9 10.58 9 15 9 C15.33 9.99 15.66 10.98 16 12 C13.52076199 12.02685095 11.0418116 12.04676547 8.5625 12.0625 C7.85544922 12.07087891 7.14839844 12.07925781 6.41992188 12.08789062 C4.61306441 12.09653588 2.80612397 12.05220011 1 12 C0 11 0 11 -0.09765625 8.49609375 C-0.08605469 7.48675781 -0.07445312 6.47742188 -0.0625 5.4375 C-0.05347656 4.42558594 -0.04445313 3.41367187 -0.03515625 2.37109375 C-0.02355469 1.58863281 -0.01195312 0.80617188 0 0 Z " fill="#77D507" transform="translate(265,289)"/>
<path d="M0 0 C1.32 0 2.64 0 4 0 C4 1.32 4 2.64 4 4 C6.31 4 8.62 4 11 4 C11 5.65 11 7.3 11 9 C11.66 9.33 12.32 9.66 13 10 C12.34 10 11.68 10 11 10 C10.67 10.99 10.34 11.98 10 13 C9.34 12.67 8.68 12.34 8 12 C8.33 10.02 8.66 8.04 9 6 C6.06556598 6.26656572 6.06556598 6.26656572 3 7 C2.34 7.99 1.68 8.98 1 10 C-0.60725635 6.78548731 -0.05748185 3.56387464 0 0 Z " fill="#86D61A" transform="translate(246,191)"/>
<path d="M0 0 C1.32 0 2.64 0 4 0 C4 3.96 4 7.92 4 12 C2.35 11.67 0.7 11.34 -1 11 C-2.23076923 4.6 -2.23076923 4.6 -1.0625 1.5625 C-0.711875 1.046875 -0.36125 0.53125 0 0 Z " fill="#63B305" transform="translate(271,227)"/>
<path d="M0 0 C0 2.64 0 5.28 0 8 C-4.7517398 7.56802365 -6.92000054 6.67230705 -10 3 C-4.37755102 -1.45918367 -4.37755102 -1.45918367 0 0 Z " fill="#06BBF8" transform="translate(237,200)"/>
<path d="M0 0 C0.99 0 1.98 0 3 0 C3 6.27 3 12.54 3 19 C2.01 19 1.02 19 0 19 C0 12.73 0 6.46 0 0 Z " fill="#34BDE8" transform="translate(194,283)"/>
<path d="M0 0 C0 8.25 0 16.5 0 25 C-0.33 25 -0.66 25 -1 25 C-1 21.04 -1 17.08 -1 13 C-2.32 13 -3.64 13 -5 13 C-4.67 12.01 -4.34 11.02 -4 10 C-3.34 10 -2.68 10 -2 10 C-2 8.35 -2 6.7 -2 5 C-2.99 5 -3.98 5 -5 5 C-5 3.68 -5 2.36 -5 1 C-1.125 0 -1.125 0 0 0 Z " fill="#F6FEE3" transform="translate(263,277)"/>
<path d="M0 0 C0.66 0 1.32 0 2 0 C2 0.99 2 1.98 2 3 C1.34 3 0.68 3 0 3 C0 4.65 0 6.3 0 8 C1.32 8 2.64 8 4 8 C4 9.65 4 11.3 4 13 C2.35 12.67 0.7 12.34 -1 12 C-1 10.68 -1 9.36 -1 8 C-2.32 8 -3.64 8 -5 8 C-5 6.35 -5 4.7 -5 3 C-3.68 3 -2.36 3 -1 3 C-0.67 2.01 -0.34 1.02 0 0 Z " fill="#9CDB4A" transform="translate(252,179)"/>
<path d="M0 0 C1.47668858 0.0133035 2.95331108 0.03716415 4.4296875 0.0703125 C5.18378906 0.07933594 5.93789063 0.08835937 6.71484375 0.09765625 C8.57826004 0.1212438 10.44151343 0.15711531 12.3046875 0.1953125 C12.9646875 1.5153125 13.6246875 2.8353125 14.3046875 4.1953125 C9.3546875 4.1953125 4.4046875 4.1953125 -0.6953125 4.1953125 C-0.6953125 3.8653125 -0.6953125 3.5353125 -0.6953125 3.1953125 C3.2646875 3.1953125 7.2246875 3.1953125 11.3046875 3.1953125 C11.3046875 2.5353125 11.3046875 1.8753125 11.3046875 1.1953125 C6.3546875 1.5253125 1.4046875 1.8553125 -3.6953125 2.1953125 C-3.6953125 4.8353125 -3.6953125 7.4753125 -3.6953125 10.1953125 C-4.3553125 9.8653125 -5.0153125 9.5353125 -5.6953125 9.1953125 C-5.8203125 5.8203125 -5.8203125 5.8203125 -5.6953125 2.1953125 C-3.6953125 0.1953125 -3.6953125 0.1953125 0 0 Z " fill="#8AC63A" transform="translate(320.6953125,282.8046875)"/>
<path d="M0 0 C0.66 0 1.32 0 2 0 C2 0.99 2 1.98 2 3 C2.99 3 3.98 3 5 3 C5 6.3 5 9.6 5 13 C2.69 13 0.38 13 -2 13 C-2 11.68 -2 10.36 -2 9 C-3.32 8.67 -4.64 8.34 -6 8 C-4.68 8 -3.36 8 -2 8 C-2 7.34 -2 6.68 -2 6 C-2.99 5.67 -3.98 5.34 -5 5 C-3.68 5 -2.36 5 -1 5 C-0.67 6.32 -0.34 7.64 0 9 C1.32 9.33 2.64 9.66 4 10 C4 8.35 4 6.7 4 5 C2.68 5 1.36 5 0 5 C0 3.35 0 1.7 0 0 Z " fill="#E5FDC1" transform="translate(252,182)"/>
<path d="M0 0 C1.81505677 3.63011353 1.00884371 7.94280504 0.9375 11.93359375 C0.84909275 15.04199474 0.84909275 15.04199474 2 18 C8.27 18 14.54 18 21 18 C21 18.33 21 18.66 21 19 C14.4 19 7.8 19 1 19 C1 18.34 1 17.68 1 17 C0.34 17 -0.32 17 -1 17 C-1.66 17.66 -2.32 18.32 -3 19 C-3.66 17.68 -4.32 16.36 -5 15 C-3.68 15 -2.36 15 -1 15 C-1.01160156 14.00097656 -1.02320313 13.00195312 -1.03515625 11.97265625 C-1.04869141 10.03712891 -1.04869141 10.03712891 -1.0625 8.0625 C-1.07410156 6.77472656 -1.08570313 5.48695313 -1.09765625 4.16015625 C-1 1 -1 1 0 0 Z " fill="#C9FAFE" transform="translate(225,284)"/>
<path d="M0 0 C1.32 0 2.64 0 4 0 C3.79375 0.61875 3.5875 1.2375 3.375 1.875 C3.25125 2.57625 3.1275 3.2775 3 4 C3.66 4.66 4.32 5.32 5 6 C5 6.99 5 7.98 5 9 C2.15673536 9.23053497 0.53854651 9.35903101 -1.875 7.75 C-3 6 -3 6 -2.6875 3.8125 C-2.460625 3.214375 -2.23375 2.61625 -2 2 C-1.34 2 -0.68 2 0 2 C0 1.34 0 0.68 0 0 Z " fill="#75CE05" transform="translate(264,232)"/>
<path d="M0 0 C0.33 0.66 0.66 1.32 1 2 C3.52733235 2.65555119 3.52733235 2.65555119 6 3 C6 3.66 6 4.32 6 5 C6.66 5 7.32 5 8 5 C7.34 6.32 6.68 7.64 6 9 C4.68 8.67 3.36 8.34 2 8 C1.34 9.65 0.68 11.3 0 13 C-0.66 12.67 -1.32 12.34 -2 12 C-1.67 11.67 -1.34 11.34 -1 11 C-0.76636119 9.15108054 -0.58696365 7.29511969 -0.4375 5.4375 C-0.35371094 4.42558594 -0.26992188 3.41367188 -0.18359375 2.37109375 C-0.12300781 1.58863281 -0.06242187 0.80617187 0 0 Z " fill="#6BB312" transform="translate(275,214)"/>
<path d="M0 0 C6.37936593 -0.36109618 6.37936593 -0.36109618 8.71875 1 C10.75518944 4.17883229 10.31160535 7.54389423 10.1875 11.1875 C10.17396484 11.93708984 10.16042969 12.68667969 10.14648438 13.45898438 C10.11118539 15.30629767 10.05737917 17.15324066 10 19 C8.68 18.34 7.36 17.68 6 17 C6.66 17 7.32 17 8 17 C8 12.38 8 7.76 8 3 C5.36 2.34 2.72 1.68 0 1 C0 0.67 0 0.34 0 0 Z " fill="#E2FCF8" transform="translate(235,196)"/>
<path d="M0 0 C0.99 0 1.98 0 3 0 C3.33 5.61 3.66 11.22 4 17 C2.35 17.66 0.7 18.32 -1 19 C-1.33 19.66 -1.66 20.32 -2 21 C-3.98 21 -5.96 21 -8 21 C-5.63202009 18.38275905 -3.10399646 16.67138271 0 15 C0.66 15 1.32 15 2 15 C2 10.38 2 5.76 2 1 C1.34 0.67 0.68 0.34 0 0 Z " fill="#D8FBF4" transform="translate(256,217)"/>
<path d="M0 0 C4.27786748 0.49360009 7.09567131 1.04783565 11 3 C11 11.58 11 20.16 11 29 C10.67 29 10.34 29 10 29 C9.67 21.41 9.34 13.82 9 6 C7.68 5.34 6.36 4.68 5 4 C5 3.34 5 2.68 5 2 C3.35 1.67 1.7 1.34 0 1 C0 0.67 0 0.34 0 0 Z " fill="#DFFBBC" transform="translate(277,202)"/>
<path d="M0 0 C0.33 0 0.66 0 1 0 C1 2.97 1 5.94 1 9 C3.64 9 6.28 9 9 9 C9 10.65 9 12.3 9 14 C5.37 14 1.74 14 -2 14 C-2.33 13.34 -2.66 12.68 -3 12 C-1.02 12 0.96 12 3 12 C3 11.34 3 10.68 3 10 C2.01 10 1.02 10 0 10 C0 6.7 0 3.4 0 0 Z " fill="#9AD750" transform="translate(303,288)"/>
<path d="M0 0 C0.33 0 0.66 0 1 0 C1.04241723 2.33294775 1.04092937 4.66702567 1 7 C0 8 0 8 -1.76586914 8.11352539 C-2.51473389 8.10828857 -3.26359863 8.10305176 -4.03515625 8.09765625 C-4.84404297 8.09443359 -5.65292969 8.09121094 -6.48632812 8.08789062 C-7.33646484 8.07951172 -8.18660156 8.07113281 -9.0625 8.0625 C-9.91650391 8.05798828 -10.77050781 8.05347656 -11.65039062 8.04882812 C-13.76695663 8.03700373 -15.88348685 8.01906769 -18 8 C-18 7.34 -18 6.68 -18 6 C-12.06 5.67 -6.12 5.34 0 5 C0 3.35 0 1.7 0 0 Z " fill="#FBFDFA" transform="translate(248,289)"/>
<path d="M0 0 C0.33 0 0.66 0 1 0 C1 5.61 1 11.22 1 17 C0.01 16.67 -0.98 16.34 -2 16 C-2.05402274 13.89611431 -2.09280256 11.79183286 -2.125 9.6875 C-2.14820313 8.51574219 -2.17140625 7.34398437 -2.1953125 6.13671875 C-2 3 -2 3 0 0 Z " fill="#F6FEE7" transform="translate(297,280)"/>
<path d="M0 0 C0 0.66 0 1.32 0 2 C-0.66 2 -1.32 2 -2 2 C-1.34 4.64 -0.68 7.28 0 10 C-3.40312738 8.94124926 -6.01353231 7.99097846 -9 6 C-9 5.34 -9 4.68 -9 4 C-2.25 0 -2.25 0 0 0 Z " fill="#86D727" transform="translate(264,232)"/>
<path d="M0 0 C0.33 0.66 0.66 1.32 1 2 C1.66 2 2.32 2 3 2 C3 4.31 3 6.62 3 9 C2.67 9 2.34 9 2 9 C2 7.35 2 5.7 2 4 C0.02 4.66 -1.96 5.32 -4 6 C-4 6.66 -4 7.32 -4 8 C-4.66 8 -5.32 8 -6 8 C-6.33 8.99 -6.66 9.98 -7 11 C-8.0326802 8.21176345 -8.04509293 7.1322726 -7.0625 4.25 C-6.711875 3.5075 -6.36125 2.765 -6 2 C-4.68 2.33 -3.36 2.66 -2 3 C-1.34 2.01 -0.68 1.02 0 0 Z " fill="#75C603" transform="translate(283,219)"/>
<path d="M0 0 C0.66 0.33 1.32 0.66 2 1 C2.08086147 2.79093191 2.13912702 4.58289628 2.1875 6.375 C2.22230469 7.37273437 2.25710937 8.37046875 2.29296875 9.3984375 C2.19628906 10.25695312 2.09960938 11.11546875 2 12 C-1.08888522 14.05925681 -1.70935927 14.2390374 -5.1875 14.125 C-7.0746875 14.063125 -7.0746875 14.063125 -9 14 C-8.67 13.34 -8.34 12.68 -8 12 C-5.35139573 11.40644386 -2.70802678 11.25790731 0 11 C0 7.37 0 3.74 0 0 Z " fill="#20BBE7" transform="translate(187,288)"/>
<path d="M0 0 C0.66 0 1.32 0 2 0 C2 0.66 2 1.32 2 2 C2.66 2.33 3.32 2.66 4 3 C4 5.97 4 8.94 4 12 C2.68 12 1.36 12 0 12 C0 8.04 0 4.08 0 0 Z " fill="#0288D9" transform="translate(228,226)"/>
<path d="M0 0 C0 4.62 0 9.24 0 14 C-0.66 14 -1.32 14 -2 14 C-2 10.7 -2 7.4 -2 4 C-6.455 5.485 -6.455 5.485 -11 7 C-4 0 -4 0 0 0 Z " fill="#3CC3EB" transform="translate(258,218)"/>
<path d="M0 0 C0.99 0.33 1.98 0.66 3 1 C3.33 1.99 3.66 2.98 4 4 C3.34 4 2.68 4 2 4 C2 6.31 2 8.62 2 11 C-1.93548431 7.93906776 -4.68116787 5.50884026 -7 1 C-6.38125 1.33 -5.7625 1.66 -5.125 2 C-3.08981656 3.14193235 -3.08981656 3.14193235 -1 3 C-0.67 2.01 -0.34 1.02 0 0 Z " fill="#DFFDFC" transform="translate(218,288)"/>
<path d="M0 0 C0.86625 0.350625 1.7325 0.70125 2.625 1.0625 C6.31179234 2.08660898 8.32140541 1.87966392 12 1 C12.78375 0.814375 13.5675 0.62875 14.375 0.4375 C15.179375 0.2209375 15.179375 0.2209375 16 0 C15.67 1.32 15.34 2.64 15 4 C10.05 4.33 5.1 4.66 0 5 C0 3.35 0 1.7 0 0 Z " fill="#DAFAFE" transform="translate(228,240)"/>
<path d="M0 0 C3.3 0 6.6 0 10 0 C9.67 0.66 9.34 1.32 9 2 C6.36 1.67 3.72 1.34 1 1 C1 2.65 1 4.3 1 6 C2.65 5.34 4.3 4.68 6 4 C5.67 5.32 5.34 6.64 5 8 C6.32 8.33 7.64 8.66 9 9 C6.03 9 3.06 9 0 9 C0 6.03 0 3.06 0 0 Z " fill="#F9FEE6" transform="translate(269,288)"/>
<path d="M0 0 C5.61 0 11.22 0 17 0 C17 1.98 17 3.96 17 6 C11.72 6 6.44 6 1 6 C1 5.67 1 5.34 1 5 C5.95 5 10.9 5 16 5 C15.34 4.01 14.68 3.02 14 2 C10.65386488 1.41312216 10.65386488 1.41312216 6.875 1.3125 C5.59367187 1.24675781 4.31234375 1.18101562 2.9921875 1.11328125 C2.00476563 1.07589844 1.01734375 1.03851563 0 1 C0 0.67 0 0.34 0 0 Z " fill="#D2FBA4" transform="translate(319,282)"/>
<path d="M0 0 C0.66 0 1.32 0 2 0 C2 0.66 2 1.32 2 2 C2.66 2 3.32 2 4 2 C4 2.99 4 3.98 4 5 C3.195625 5.28875 2.39125 5.5775 1.5625 5.875 C-1.1326468 6.73262568 -1.1326468 6.73262568 -2 9 C-2.99 9 -3.98 9 -5 9 C-5 6.69 -5 4.38 -5 2 C-4.01 3.485 -4.01 3.485 -3 5 C-2.54625 4.175 -2.0925 3.35 -1.625 2.5 C-1.08875 1.675 -0.5525 0.85 0 0 Z " fill="#07C3FB" transform="translate(222,238)"/>
<path d="M0 0 C0.33 0.99 0.66 1.98 1 3 C2.65 3 4.3 3 6 3 C5.67 4.98 5.34 6.96 5 9 C4.01 9 3.02 9 2 9 C1.67 9.66 1.34 10.32 1 11 C-0.62950412 6.87831311 -1.26264601 4.29299643 0 0 Z " fill="#FBFBF9" transform="translate(199,289)"/>
<path d="M0 0 C1.051875 0.5259375 1.051875 0.5259375 2.125 1.0625 C6.62538688 2.53001746 10.54230756 1.20014796 15 0 C13.875 2.4375 13.875 2.4375 12 5 C8.69296839 6.05543562 6.87278698 6.34452118 3.625 5.0625 C3.08875 4.711875 2.5525 4.36125 2 4 C2 3.34 2 2.68 2 2 C1.34 2 0.68 2 0 2 C0 1.34 0 0.68 0 0 Z " fill="#E4F9CC" transform="translate(259,240)"/>
<path d="M0 0 C2.26171875 -0.23828125 2.26171875 -0.23828125 5 0 C7.01953125 1.64453125 7.01953125 1.64453125 8.8125 3.8125 C9.71935547 4.87404297 9.71935547 4.87404297 10.64453125 5.95703125 C12 8 12 8 12 11 C7.36279281 7.72469104 3.31457218 4.69564393 0 0 Z " fill="#39C0E3" transform="translate(201,283)"/>
<path d="M0 0 C0.33 0 0.66 0 1 0 C1.05796132 4.10410755 1.09358313 8.20811016 1.125 12.3125 C1.14175781 13.47974609 1.15851563 14.64699219 1.17578125 15.84960938 C1.18222656 16.96787109 1.18867188 18.08613281 1.1953125 19.23828125 C1.20578613 20.26993408 1.21625977 21.30158691 1.22705078 22.36450195 C1 25 1 25 -1 28 C-3.625 28.1875 -3.625 28.1875 -6 28 C-5.19175781 27.59265625 -4.38351562 27.1853125 -3.55078125 26.765625 C0.50832193 22.36463717 -0.21767546 17.53027723 -0.1875 11.75 C-0.16236328 10.62335938 -0.13722656 9.49671875 -0.11132812 8.3359375 C-0.05245108 5.55694092 -0.01617475 2.77951967 0 0 Z " fill="#F3FDE1" transform="translate(288,207)"/>
<path d="M0 0 C2.475 0.99 2.475 0.99 5 2 C3.95125002 4.62187494 3.35068687 5.79371361 0.875 7.25 C0.25625 7.4975 -0.3625 7.745 -1 8 C-2 7 -2 7 -2.1875 4.5625 C-2 2 -2 2 0 0 Z " fill="#CAE49C" transform="translate(217,280)"/>
<path d="M0 0 C1.43655854 -0.08131463 2.8744483 -0.13933559 4.3125 -0.1875 C5.51326172 -0.23970703 5.51326172 -0.23970703 6.73828125 -0.29296875 C9 0 9 0 10.8125 1.28125 C12 3 12 3 11.6875 6.6875 C11.460625 7.780625 11.23375 8.87375 11 10 C10.67 8.68 10.34 7.36 10 6 C6.7 6 3.4 6 0 6 C0 5.67 0 5.34 0 5 C2.64 5 5.28 5 8 5 C8 3.68 8 2.36 8 1 C5.36 1 2.72 1 0 1 C0 0.67 0 0.34 0 0 Z " fill="#DEFCB6" transform="translate(304,282)"/>
<path d="M0 0 C1.32 0.33 2.64 0.66 4 1 C-1.28 3.97 -6.56 6.94 -12 10 C-12.33 9.34 -12.66 8.68 -13 8 C-8.375 5 -8.375 5 -5 5 C-5.33 4.01 -5.66 3.02 -6 2 C-5.34 1.67 -4.68 1.34 -4 1 C-3.67 1.33 -3.34 1.66 -3 2 C-2.01 1.34 -1.02 0.68 0 0 Z " fill="#24ADE0" transform="translate(252,232)"/>
<path d="M0 0 C0.9590625 0.2784375 0.9590625 0.2784375 1.9375 0.5625 C2.9584375 0.7790625 2.9584375 0.7790625 4 1 C4.33 0.67 4.66 0.34 5 0 C7.67058851 -0.14115161 10.32432238 -0.04247107 13 0 C13 0.66 13 1.32 13 2 C13.66 2 14.32 2 15 2 C15 2.66 15 3.32 15 4 C13.68 3.67 12.36 3.34 11 3 C11 2.34 11 1.68 11 1 C9.9275 1.474375 8.855 1.94875 7.75 2.4375 C5.19160135 3.53766332 2.74164983 4.45167003 0 5 C0 3.35 0 1.7 0 0 Z " fill="#E1FBC8" transform="translate(257,195)"/>
<path d="M0 0 C1.485 0.99 1.485 0.99 3 2 C6.19806665 2.4603764 6.19806665 2.4603764 9.6875 2.625 C11.45673828 2.73714844 11.45673828 2.73714844 13.26171875 2.8515625 C14.61716797 2.92503906 14.61716797 2.92503906 16 3 C16 3.66 16 4.32 16 5 C11.05 5 6.1 5 1 5 C0.67 3.35 0.34 1.7 0 0 Z " fill="#EEFDCC" transform="translate(315,292)"/>
<path d="M0 0 C-2.93301771 2.27138348 -5.95068793 4.26869942 -9.125 6.1875 C-9.99382812 6.71730469 -10.86265625 7.24710938 -11.7578125 7.79296875 C-14 9 -14 9 -16 9 C-16 8.01 -16 7.02 -16 6 C-14.9275 5.566875 -13.855 5.13375 -12.75 4.6875 C-10.44908777 3.71723581 -8.85138277 2.88198044 -6.875 1.3125 C-4.47166038 -0.36983774 -2.86923803 -0.23910317 0 0 Z " fill="#679C26" transform="translate(262,212)"/>
<path d="M0 0 C0.66 0.66 1.32 1.32 2 2 C0.02 4.31 -1.96 6.62 -4 9 C-5.32 8.67 -6.64 8.34 -8 8 C-6.625 6 -6.625 6 -5 4 C-4.34 4 -3.68 4 -3 4 C-2.67 3.01 -2.34 2.02 -2 1 C-1.34 0.67 -0.68 0.34 0 0 Z " fill="#36BFE6" transform="translate(209,293)"/>
<path d="M0 0 C0.66 0.33 1.32 0.66 2 1 C0.68 2.32 -0.64 3.64 -2 5 C-1.34 5.66 -0.68 6.32 0 7 C-1.75 7.6875 -1.75 7.6875 -4 8 C-6.25 6.5625 -6.25 6.5625 -8 5 C-6.71475739 4.13619741 -5.42157581 3.28419631 -4.125 2.4375 C-3.04605469 1.72400391 -3.04605469 1.72400391 -1.9453125 0.99609375 C-1.30335938 0.66738281 -0.66140625 0.33867187 0 0 Z " fill="#1690D0" transform="translate(245,225)"/>
<path d="M0 0 C0.66 0 1.32 0 2 0 C2 4.62 2 9.24 2 14 C0.68 13.34 -0.64 12.68 -2 12 C-1.34 11.67 -0.68 11.34 0 11 C0 7.37 0 3.74 0 0 Z " fill="#3588C1" transform="translate(241,199)"/>
<path d="M0 0 C0.33 0 0.66 0 1 0 C1 2.31 1 4.62 1 7 C2.32 7 3.64 7 5 7 C5 7.66 5 8.32 5 9 C6.32 9.33 7.64 9.66 9 10 C1.25 10.125 1.25 10.125 -1 9 C-0.67 6.03 -0.34 3.06 0 0 Z " fill="#7ECF05" transform="translate(301,291)"/>
<path d="M0 0 C0.99 0 1.98 0 3 0 C3 2.64 3 5.28 3 8 C1.68 7.67 0.36 7.34 -1 7 C-1.625 5.1875 -1.625 5.1875 -2 3 C-1.34 2.01 -0.68 1.02 0 0 Z " fill="#04C1F7" transform="translate(253,222)"/>
<path d="M0 0 C0.33 0.66 0.66 1.32 1 2 C6.94 2 12.88 2 19 2 C18.67 2.99 18.34 3.98 18 5 C18 4.34 18 3.68 18 3 C15.74971671 3.14139481 13.49977794 3.28828003 11.25 3.4375 C9.99703125 3.51871094 8.7440625 3.59992188 7.453125 3.68359375 C4.81682447 3.92515522 2.51962706 4.24283934 0 5 C-0.33 4.01 -0.66 3.02 -1 2 C-0.67 1.34 -0.34 0.68 0 0 Z " fill="#45BEDD" transform="translate(227,297)"/>
<path d="M0 0 C2.375 0.6875 2.375 0.6875 5 2 C6.3125 4.625 6.3125 4.625 7 7 C3.23312136 7 2.08809695 6.76462683 -1 5 C-0.34 4.67 0.32 4.34 1 4 C0.34 3.01 -0.32 2.02 -1 1 C-0.67 0.67 -0.34 0.34 0 0 Z " fill="#0A97EA" transform="translate(243,228)"/>
<path d="M0 0 C0.66 0 1.32 0 2 0 C2 3.96 2 7.92 2 12 C1.01 12 0.02 12 -1 12 C-0.67 8.04 -0.34 4.08 0 0 Z " fill="#59A405" transform="translate(273,227)"/>
<path d="M0 0 C0.33 0 0.66 0 1 0 C1 2.64 1 5.28 1 8 C2.65 7.67 4.3 7.34 6 7 C5.67 8.32 5.34 9.64 5 11 C3.68 11.33 2.36 11.66 1 12 C0.03929566 9.11788698 -0.10581883 7.30149956 -0.0625 4.3125 C-0.05347656 3.50425781 -0.04445312 2.69601563 -0.03515625 1.86328125 C-0.02355469 1.24839844 -0.01195312 0.63351563 0 0 Z " fill="#72C90F" transform="translate(246,199)"/>
<path d="M0 0 C1.65 0 3.3 0 5 0 C5 0.99 5 1.98 5 3 C5.66 3.66 6.32 4.32 7 5 C6.67 5.66 6.34 6.32 6 7 C4.02 6.34 2.04 5.68 0 5 C0 3.33333333 0 1.66666667 0 0 Z " fill="#04A6EE" transform="translate(224,204)"/>
<path d="M0 0 C0.66 0 1.32 0 2 0 C2.33 0.99 2.66 1.98 3 3 C-3.93 3 -10.86 3 -18 3 C-18 2.67 -18 2.34 -18 2 C-16.17662109 1.90912109 -16.17662109 1.90912109 -14.31640625 1.81640625 C-12.73175772 1.73201668 -11.14712298 1.6473679 -9.5625 1.5625 C-8.76005859 1.52318359 -7.95761719 1.48386719 -7.13085938 1.44335938 C-3.24760439 1.5945704 -3.24760439 1.5945704 0 0 Z " fill="#ECFCCF" transform="translate(283,300)"/>
<path d="M0 0 C0.66 0 1.32 0 2 0 C2.33 1.65 2.66 3.3 3 5 C3.66 5 4.32 5 5 5 C5 5.99 5 6.98 5 8 C3.35 7.67 1.7 7.34 0 7 C0 4.69 0 2.38 0 0 Z " fill="#79D105" transform="translate(265,279)"/>
<path d="M0 0 C2.31 0.66 4.62 1.32 7 2 C7 2.66 7 3.32 7 4 C3.535 5.485 3.535 5.485 0 7 C0 4.66666667 0 2.33333333 0 0 Z " fill="#05C0FB" transform="translate(240,233)"/>
<path d="M0 0 C3.96 0 7.92 0 12 0 C12 0.33 12 0.66 12 1 C7.82262526 2.59138085 4.46839215 3.21278058 0 3 C0 2.01 0 1.02 0 0 Z " fill="#36BCEC" transform="translate(172,299)"/>
<path d="M0 0 C1.98 0 3.96 0 6 0 C4.95125002 2.62187494 4.35068687 3.79371361 1.875 5.25 C1.25625 5.4975 0.6375 5.745 0 6 C0 4.02 0 2.04 0 0 Z " fill="#FCFEFC" transform="translate(305,289)"/>
<path d="M0 0 C1.65 0 3.3 0 5 0 C5 1.65 5 3.3 5 5 C3.35 5 1.7 5 0 5 C0 3.35 0 1.7 0 0 Z " fill="#3EC6E7" transform="translate(222,248)"/>
<path d="M0 0 C0.99 0.33 1.98 0.66 3 1 C3 2.65 3 4.3 3 6 C0.03 5.505 0.03 5.505 -3 5 C-2.01 3.35 -1.02 1.7 0 0 Z " fill="#02B0F4" transform="translate(234,202)"/>
<path d="M0 0 C2.64 0 5.28 0 8 0 C6 3 6 3 2.875 3.6875 C1.92625 3.790625 0.9775 3.89375 0 4 C0 2.68 0 1.36 0 0 Z " fill="#65A305" transform="translate(246,214)"/>
<path d="M0 0 C0.99 0 1.98 0 3 0 C3 2.97 3 5.94 3 9 C2.01 9 1.02 9 0 9 C0 6.03 0 3.06 0 0 Z " fill="#7ACC0C" transform="translate(300,278)"/>
<path d="M0 0 C1.32 0.33 2.64 0.66 4 1 C3.34 2.98 2.68 4.96 2 7 C0.35 7.33 -1.3 7.66 -3 8 C-2.505 7.4225 -2.01 6.845 -1.5 6.25 C0.36980013 3.89599371 0.36980013 3.89599371 0 0 Z " fill="#F0FBDD" transform="translate(221,280)"/>
<path d="M0 0 C3.63 0 7.26 0 11 0 C11.33 0.99 11.66 1.98 12 3 C10.02 3 8.04 3 6 3 C6 2.67 6 2.34 6 2 C3.03 1.505 3.03 1.505 0 1 C0 0.67 0 0.34 0 0 Z " fill="#75CE12" transform="translate(269,298)"/>
<path d="M0 0 C5.41538462 -0.36923077 5.41538462 -0.36923077 8.375 1.5 C8.91125 1.995 9.4475 2.49 10 3 C9.67 4.32 9.34 5.64 9 7 C7.62437146 5.71034824 6.29233607 4.37310707 5 3 C5 2.34 5 1.68 5 1 C3.35 1 1.7 1 0 1 C0 0.67 0 0.34 0 0 Z " fill="#CFF9FE" transform="translate(201,282)"/>
<path d="M0 0 C4.95 0.33 9.9 0.66 15 1 C15 1.33 15 1.66 15 2 C14.09636719 2.06058594 13.19273437 2.12117188 12.26171875 2.18359375 C11.08222656 2.26738281 9.90273438 2.35117187 8.6875 2.4375 C7.51574219 2.51871094 6.34398437 2.59992188 5.13671875 2.68359375 C1.97409042 2.8867371 1.97409042 2.8867371 -1 4 C-0.67 2.68 -0.34 1.36 0 0 Z " fill="#F2FEDE" transform="translate(317,280)"/>
<path d="M0 0 C0.99 0.33 1.98 0.66 3 1 C2.67 2.65 2.34 4.3 2 6 C-0.31 6 -2.62 6 -5 6 C-4.67 5.34 -4.34 4.68 -4 4 C-2.68 4 -1.36 4 0 4 C0 2.68 0 1.36 0 0 Z " fill="#34C4E2" transform="translate(226,239)"/>
<path d="M0 0 C2.10806099 0.98376179 3.35611881 2.12828663 4.875 3.875 C2.11223823 3.35231534 -0.4510876 2.76630413 -3.125 1.875 C-3.125 2.535 -3.125 3.195 -3.125 3.875 C-4.445 3.545 -5.765 3.215 -7.125 2.875 C-2.75189805 -0.16187636 -2.75189805 -0.16187636 0 0 Z " fill="#E3F7C7" transform="translate(267.125,210.125)"/>
<path d="M0 0 C2.97 0 5.94 0 9 0 C8.01 1.485 8.01 1.485 7 3 C3.375 3.1875 3.375 3.1875 0 3 C0 2.01 0 1.02 0 0 Z " fill="#78CA10" transform="translate(324,291)"/>
<path d="M0 0 C0.33 0.66 0.66 1.32 1 2 C1.99 2.33 2.98 2.66 4 3 C4 3.66 4 4.32 4 5 C-0.75 5.125 -0.75 5.125 -3 4 C-2.67 3.01 -2.34 2.02 -2 1 C-1.34 0.67 -0.68 0.34 0 0 Z " fill="#0198E5" transform="translate(220,219)"/>
<path d="M0 0 C1.65 0 3.3 0 5 0 C2.47211993 2.79872437 0.79588866 4.45773019 -3 5 C-3 4.01 -3 3.02 -3 2 C-2.01 2 -1.02 2 0 2 C0 1.34 0 0.68 0 0 Z " fill="#D4FAFE" transform="translate(219,202)"/>
<path d="M0 0 C1.65 1.65 3.3 3.3 5 5 C3.68 6.32 2.36 7.64 1 9 C0.29925156 5.846632 0 3.27275026 0 0 Z " fill="#FAFCF2" transform="translate(214,284)"/>
<path d="M0 0 C0.99 0.33 1.98 0.66 3 1 C3 1.66 3 2.32 3 3 C-1.95 3 -6.9 3 -12 3 C-12 2.67 -12 2.34 -12 2 C-8.04 2 -4.08 2 0 2 C0 1.34 0 0.68 0 0 Z " fill="#83C62C" transform="translate(332,284)"/>
<path d="M0 0 C1.32 0 2.64 0 4 0 C4 1.65 4 3.3 4 5 C2.68 5 1.36 5 0 5 C0 3.35 0 1.7 0 0 Z " fill="#2DC2E3" transform="translate(218,253)"/>
<path d="M0 0 C-0.33 1.32 -0.66 2.64 -1 4 C-3.64 4 -6.28 4 -9 4 C-3 0 -3 0 0 0 Z " fill="#BDF4FB" transform="translate(244,240)"/>
<path d="M0 0 C-0.33 0.99 -0.66 1.98 -1 3 C-1.99 3 -2.98 3 -4 3 C-4 3.66 -4 4.32 -4 5 C-5.98 5.33 -7.96 5.66 -10 6 C-7.35570758 3.077361 -4.105808 0 0 0 Z " fill="#D9F7CD" transform="translate(260,214)"/>
<path d="M0 0 C1.98 0.66 3.96 1.32 6 2 C4.25 3.5625 4.25 3.5625 2 5 C-0.25 4.6875 -0.25 4.6875 -2 4 C-1.34 2.68 -0.68 1.36 0 0 Z " fill="#7BD106" transform="translate(270,202)"/>
<path d="M0 0 C0 0.66 0 1.32 0 2 C-3.6678852 3.96189209 -6.87248551 5.39301257 -11 6 C-8.24029211 2.78034079 -4.3526723 0 0 0 Z " fill="#38BCE2" transform="translate(234,198)"/>
<path d="M0 0 C1.32 0 2.64 0 4 0 C4 1.65 4 3.3 4 5 C2.68 5 1.36 5 0 5 C0 3.35 0 1.7 0 0 Z " fill="#8ED12E" transform="translate(252,187)"/>
<path d="M0 0 C2.91517292 1.07401108 4.77810176 1.77810176 7 4 C5.1875 4.625 5.1875 4.625 3 5 C2.01 4.34 1.02 3.68 0 3 C0 2.01 0 1.02 0 0 Z " fill="#86D41D" transform="translate(270,199)"/>
<path d="M0 0 C0.66 0.33 1.32 0.66 2 1 C2 3.64 2 6.28 2 9 C1.34 9 0.68 9 0 9 C-0.87890625 2.84765625 -0.87890625 2.84765625 -1 1 C-0.67 0.67 -0.34 0.34 0 0 Z " fill="#0491E9" transform="translate(230,229)"/>
<path d="M0 0 C0.33 0.66 0.66 1.32 1 2 C1.66 2 2.32 2 3 2 C3 4.31 3 6.62 3 9 C2.67 9 2.34 9 2 9 C2 7.35 2 5.7 2 4 C0.68 4.33 -0.64 4.66 -2 5 C-1.34 3.35 -0.68 1.7 0 0 Z " fill="#6EC108" transform="translate(283,219)"/>
<path d="M0 0 C0.66 0.33 1.32 0.66 2 1 C2 2.65 2 4.3 2 6 C-0.86724686 5.42655063 -1.8614515 5.1385485 -4 3 C-3.01 3 -2.02 3 -1 3 C-0.67 2.01 -0.34 1.02 0 0 Z " fill="#7FBC24" transform="translate(273,208)"/>
<path d="M0 0 C3.375 -0.125 3.375 -0.125 7 0 C9 2 9 2 9.125 4.625 C9.08375 5.40875 9.0425 6.1925 9 7 C8.67 5.68 8.34 4.36 8 3 C5.36 2.34 2.72 1.68 0 1 C0 0.67 0 0.34 0 0 Z " fill="#C5F1F9" transform="translate(235,196)"/>
<path d="M0 0 C0.66 0.33 1.32 0.66 2 1 C2 2.65 2 4.3 2 6 C0.68 6 -0.64 6 -2 6 C-2 4.35 -2 2.7 -2 1 C-1.34 0.67 -0.68 0.34 0 0 Z " fill="#EFFFE7" transform="translate(314,296)"/>
<path d="M0 0 C0.99 0.33 1.98 0.66 3 1 C2.34099246 4.07536854 1.46132217 6.07735566 0 9 C0 6.03 0 3.06 0 0 Z " fill="#10C0F5" transform="translate(169,298)"/>
<path d="M0 0 C1.32 0.66 2.64 1.32 4 2 C3.67 3.32 3.34 4.64 3 6 C2.34 6 1.68 6 1 6 C1 5.34 1 4.68 1 4 C0.34 4 -0.32 4 -1 4 C-0.67 2.68 -0.34 1.36 0 0 Z " fill="#EFFEF8" transform="translate(221,260)"/>
<path d="M0 0 C0.66 0.33 1.32 0.66 2 1 C2 1.66 2 2.32 2 3 C0.35 3.66 -1.3 4.32 -3 5 C-3.33 4.01 -3.66 3.02 -4 2 C-2.125 0.9375 -2.125 0.9375 0 0 Z " fill="#98D839" transform="translate(259,234)"/>
<path d="M0 0 C0.99 0.33 1.98 0.66 3 1 C3 3.64 3 6.28 3 9 C1.35173889 6.03312999 0.55728913 3.34373475 0 0 Z " fill="#07A5F2" transform="translate(225,226)"/>
<path d="M0 0 C1.98 0.99 1.98 0.99 4 2 C4 3.32 4 4.64 4 6 C2.68 6 1.36 6 0 6 C0 4.02 0 2.04 0 0 Z " fill="#62BA0F" transform="translate(246,208)"/>
<path d="M0 0 C1.32 0.66 2.64 1.32 4 2 C0.25 5 0.25 5 -2 5 C-2 4.01 -2 3.02 -2 2 C-1.34 2 -0.68 2 0 2 C0 1.34 0 0.68 0 0 Z " fill="#1F9FD6" transform="translate(230,209)"/>
<path d="M0 0 C2.92879371 0.62759865 5.36095629 1.58622659 8 3 C7.67 3.66 7.34 4.32 7 5 C4.0625 4.1875 4.0625 4.1875 1 3 C0.67 2.01 0.34 1.02 0 0 Z " fill="#0291E4" transform="translate(227,205)"/>
<path d="M0 0 C0.598125 0.20625 1.19625 0.4125 1.8125 0.625 C0.8225 0.625 -0.1675 0.625 -1.1875 0.625 C-1.1875 1.615 -1.1875 2.605 -1.1875 3.625 C-2.5075 3.955 -3.8275 4.285 -5.1875 4.625 C-5.1875 3.635 -5.1875 2.645 -5.1875 1.625 C-2.1875 -0.375 -2.1875 -0.375 0 0 Z " fill="#93CC47" transform="translate(266.1875,196.375)"/>
</svg>
