<?xml version="1.0" encoding="UTF-8"?>
<svg version="1.1" xmlns="http://www.w3.org/2000/svg" width="735" height="551">
<path d="M0 0 C242.55 0 485.1 0 735 0 C735 181.83 735 363.66 735 551 C492.45 551 249.9 551 0 551 C0 369.17 0 187.34 0 0 Z " fill="#FEFEFE" transform="translate(0,0)"/>
<path d="M0 0 C4.91902104 2.36841754 7.59785618 5.81274607 11 10 C12.66270287 11.33827304 14.32916181 12.67189785 16 14 C17.35386936 15.65002828 18.68678142 17.3174387 20 19 C21.6454378 20.68762851 23.31288577 22.3540349 25 24 C26.2684375 25.423125 26.2684375 25.423125 27.5625 26.875 C29.72835402 29.21699124 29.72835402 29.21699124 32.125 29.0625 C34.43282789 27.75473086 35.47863717 26.14373853 37 24 C37.66 24 38.32 24 39 24 C39.495 22.515 39.495 22.515 40 21 C41.6015625 19.421875 41.6015625 19.421875 43.625 17.75 C47.6302704 14.35375998 51.33387785 10.75575839 55 7 C62.12569745 -0.28764512 62.12569745 -0.28764512 67.8125 -0.375 C72.65698401 -0.25512194 75.36082174 0.62076305 79 4 C82.36297728 9.02987294 83.50089671 12.22582277 83.50170898 18.40063477 C83.50981346 19.45572739 83.50981346 19.45572739 83.51808167 20.53213501 C83.53049437 22.83566582 83.51413125 25.13792842 83.49609375 27.44140625 C83.4962489 29.05370651 83.49774046 30.66600715 83.50050354 32.27830505 C83.50188412 35.64818928 83.48938576 39.01764613 83.46655273 42.38745117 C83.43814597 46.69713354 83.44091606 51.00610766 83.45364285 55.31584263 C83.46061179 58.64196272 83.45279731 61.96792036 83.44038582 65.2940197 C83.43588472 66.88276483 83.43552275 68.47152748 83.43945122 70.06027412 C83.44237608 72.28346391 83.42579809 74.50569186 83.40405273 76.72875977 C83.39864975 77.99115982 83.39324677 79.25355988 83.38768005 80.55421448 C82.81494903 85.64477372 81.23162678 88.88853193 77.4375 92.3125 C72.70734463 95.58722295 68.65575427 95.6031639 63 95 C58.17811154 92.73087602 55.15615897 89.13560662 51.80859375 85.09765625 C49.65594529 82.60095598 47.3447726 80.31730821 45 78 C43.99579344 76.97552657 42.99325053 75.94942034 41.9921875 74.921875 C40.95317091 73.86453822 39.91410795 72.807247 38.875 71.75 C38.35035156 71.20859375 37.82570312 70.6671875 37.28515625 70.109375 C34.87974956 67.67352012 33.29465595 66.09821865 30 65 C29.7525 65.5775 29.505 66.155 29.25 66.75 C27.81700012 69.32939979 26.21575324 71.06121592 24 73 C23.34 73 22.68 73 22 73 C21.7525 73.5775 21.505 74.155 21.25 74.75 C19.81700012 77.32939979 18.21575324 79.06121592 16 81 C15.34 81 14.68 81 14 81 C13.62875 81.928125 13.62875 81.928125 13.25 82.875 C11.76259631 85.40358627 10.56321991 85.71839004 8 87 C7.71125 87.61875 7.4225 88.2375 7.125 88.875 C5.3365916 92.25310475 3.42567198 93.31721377 0 95 C-4.44175523 95.71939275 -8.85915507 96.07254211 -12.97265625 94.01171875 C-15.82425001 91.74866032 -17.7264321 89.3718957 -19 86 C-19.19975526 83.48734187 -19.29379816 81.08511948 -19.29052734 78.57275391 C-19.29724457 77.83078262 -19.30396179 77.08881134 -19.31088257 76.32435608 C-19.329858 73.87502316 -19.33378651 71.42596432 -19.3359375 68.9765625 C-19.34236581 67.27029305 -19.3490942 65.56402471 -19.35610962 63.85775757 C-19.36808127 60.28177333 -19.37179057 56.70588568 -19.37060547 53.12988281 C-19.3704023 48.55439893 -19.39770256 43.9795363 -19.43214989 39.4041996 C-19.45442066 35.8799456 -19.45844296 32.35584106 -19.45738602 28.8315239 C-19.45974178 27.1450626 -19.46856398 25.45859718 -19.48405075 23.77220535 C-19.50371481 21.40970996 -19.4978721 19.04855352 -19.48583984 16.68603516 C-19.49707886 15.99388412 -19.50831787 15.30173309 -19.51989746 14.58860779 C-19.45584715 9.62309389 -18.05467181 6.85272997 -15 3 C-10.6345405 -1.21400478 -5.74038198 -0.74257848 0 0 Z " fill="#55A9FC" transform="translate(179,228)"/>
<path d="M0 0 C0.33 0.66 0.66 1.32 1 2 C1.66 2 2.32 2 3 2 C7.76744186 6.30232558 7.76744186 6.30232558 9 10 C9.66 10 10.32 10 11 10 C15.76744186 14.30232558 15.76744186 14.30232558 17 18 C17.66 18 18.32 18 19 18 C23.76744186 22.30232558 23.76744186 22.30232558 25 26 C25.66 26 26.32 26 27 26 C31.76744186 30.30232558 31.76744186 30.30232558 33 34 C33.66 34 34.32 34 35 34 C39.76744186 38.30232558 39.76744186 38.30232558 41 42 C41.66 42 42.32 42 43 42 C44.7265625 43.75 44.7265625 43.75 46.625 46 C47.25664062 46.7425 47.88828125 47.485 48.5390625 48.25 C49.26222656 49.11625 49.26222656 49.11625 50 50 C48.04343039 53.5218253 46.04899025 56.34442785 43 59 C42.34 59 41.68 59 41 59 C40.7525 59.5775 40.505 60.155 40.25 60.75 C38.81700012 63.32939979 37.21575324 65.06121592 35 67 C34.34 67 33.68 67 33 67 C32.62875 67.928125 32.62875 67.928125 32.25 68.875 C30.76259631 71.40358627 29.56321991 71.71839004 27 73 C26.71125 73.61875 26.4225 74.2375 26.125 74.875 C24.3365916 78.25310475 22.42567198 79.31721377 19 81 C14.55824477 81.71939275 10.14084493 82.07254211 6.02734375 80.01171875 C3.17734958 77.74992976 1.27901089 75.3681541 0 72 C-0.24050903 68.7855835 -0.24050903 68.7855835 -0.22705078 64.93652344 C-0.22734283 64.23368225 -0.22763489 63.53084106 -0.22793579 62.80670166 C-0.22654592 60.49079916 -0.21100113 58.17522108 -0.1953125 55.859375 C-0.19158115 54.25083594 -0.18873475 52.64229459 -0.18673706 51.03375244 C-0.17911023 46.80539649 -0.15946994 42.5771785 -0.1373291 38.34887695 C-0.11685018 34.03208278 -0.10773097 29.71526627 -0.09765625 25.3984375 C-0.07622312 16.93222844 -0.04209868 8.4661314 0 0 Z " fill="#2C8FFC" transform="translate(160,242)"/>
<path d="M0 0 C3.98456573 2.02850619 6.72576435 4.15565121 9 8 C9.36076355 11.2144165 9.36076355 11.2144165 9.34057617 15.06347656 C9.34123329 16.11773834 9.34123329 16.11773834 9.34190369 17.19329834 C9.33981874 19.50935948 9.31650259 21.8246908 9.29296875 24.140625 C9.28737173 25.74916183 9.28310213 27.35770378 9.28010559 28.96624756 C9.26866513 33.19468366 9.239205 37.42280937 9.20599365 41.65112305 C9.17527544 45.96789349 9.16159652 50.28471421 9.14648438 54.6015625 C9.11433438 63.06785058 9.06314789 71.53388665 9 80 C3.94573728 75.77125467 -0.77436033 71.34826562 -5.40234375 66.66015625 C-6.08373917 65.97497421 -6.76513458 65.28979218 -7.46717834 64.58384705 C-10.35167985 61.68316355 -13.23015366 58.77652617 -16.10913086 55.87036133 C-18.22558547 53.73568003 -20.34514626 51.60411672 -22.46484375 49.47265625 C-23.41991066 48.50514183 -23.41991066 48.50514183 -24.39427185 47.51808167 C-28.23235531 43.65946583 -32.18294179 40.0819215 -36.41725159 36.65916443 C-38.22029889 34.76906495 -38.4602399 33.50295778 -39 31 C-39.66 30.67 -40.32 30.34 -41 30 C-39.38405168 27.95880212 -37.7143618 25.95927063 -36 24 C-35.34 24 -34.68 24 -34 24 C-33.67 23.01 -33.34 22.02 -33 21 C-31.3984375 19.421875 -31.3984375 19.421875 -29.375 17.75 C-25.3697296 14.35375998 -21.66612215 10.75575839 -18 7 C-12.04129465 0.90586953 -8.53214788 -1.0897759 0 0 Z " fill="#2C8FFC" transform="translate(252,228)"/>
<path d="M0 0 C4.29 0 8.58 0 13 0 C15.11846237 3.80829235 17.23636934 7.61689285 19.35375977 11.42578125 C20.07430976 12.72176484 20.79501207 14.01766375 21.51586914 15.31347656 C22.55134392 17.17490817 23.58627248 19.03664253 24.62109375 20.8984375 C25.2442749 22.01911621 25.86745605 23.13979492 26.50952148 24.29443359 C27.36583046 25.84883426 28.20634687 27.41269373 29 29 C29.33 19.43 29.66 9.86 30 0 C34.62 0 39.24 0 44 0 C44 19.14 44 38.28 44 58 C40.04 58 36.08 58 32 58 C29.19291715 54.81366923 27.78034704 52.69946637 26 49 C25.00833768 47.24544499 24.01086994 45.49415931 23.0078125 43.74609375 C22.04192231 41.97926103 21.08185614 40.20924153 20.125 38.4375 C18.43375 35.323125 16.7425 32.20875 15 29 C14.67 38.57 14.34 48.14 14 58 C9.38 58 4.76 58 0 58 C0 38.86 0 19.72 0 0 Z " fill="#070707" transform="translate(284,247)"/>
<path d="M0 0 C4.29 0 8.58 0 13 0 C13.33 7.59 13.66 15.18 14 23 C15.98 21.68 17.96 20.36 20 19 C24.02151356 18.061154 27.41455391 18.786087 31.25 20.1875 C35.23561154 22.81438033 37.48980531 25.46941592 39 30 C39.08358958 32.21089945 39.10731764 34.42426078 39.09765625 36.63671875 C39.09443359 37.93544922 39.09121094 39.23417969 39.08789062 40.57226562 C39.07953531 41.94401108 39.07107037 43.31575587 39.0625 44.6875 C39.05748335 46.07096195 39.05292073 47.45442563 39.04882812 48.83789062 C39.03702538 52.22527896 39.01908967 55.6126449 39 59 C34.71 59 30.42 59 26 59 C25.95101562 57.29070312 25.90203125 55.58140625 25.8515625 53.8203125 C25.77654442 51.58852471 25.70099619 49.3567547 25.625 47.125 C25.5940625 45.99707031 25.563125 44.86914062 25.53125 43.70703125 C25.49257813 42.63066406 25.45390625 41.55429687 25.4140625 40.4453125 C25.36693115 38.95281982 25.36693115 38.95281982 25.31884766 37.43017578 C25.22752917 34.82145483 25.22752917 34.82145483 23 33 C19.5 32.66666667 19.5 32.66666667 16 33 C13.39911378 35.60088622 13.70037775 36.82137113 13.5859375 40.4453125 C13.52792969 42.05986328 13.52792969 42.05986328 13.46875 43.70703125 C13.4378125 44.83496094 13.406875 45.96289062 13.375 47.125 C13.31699219 48.82849609 13.31699219 48.82849609 13.2578125 50.56640625 C13.16332767 53.37732987 13.08056679 56.18864304 13 59 C8.71 59 4.42 59 0 59 C0 39.53 0 20.06 0 0 Z " fill="#050505" transform="translate(536,246)"/>
<path d="M0 0 C4.58669856 2.65990921 7.32094167 6.07737341 9.9375 10.6875 C10.625 13.375 10.625 13.375 10.625 22.375 C1.385 22.375 -7.855 22.375 -17.375 22.375 C-13.12872174 27.64451262 -13.12872174 27.64451262 -8.875 27.8125 C-5.42419708 27.60598099 -5.42419708 27.60598099 -2.9375 26 C-0.375 25.375 -0.375 25.375 1.7109375 26.578125 C3.75160244 28.11041377 5.70810242 29.69117434 7.625 31.375 C3.68279527 35.5362161 1.21681943 38.13191827 -4.58203125 38.67578125 C-18.90638033 38.72233926 -18.90638033 38.72233926 -24.05078125 33.7578125 C-29.3923514 27.81706861 -30.89493302 23.45321998 -30.7578125 15.421875 C-30.01991097 9.54878119 -27.06017318 5.97591452 -22.875 2 C-15.94776859 -2.50270042 -7.6375396 -3.4781964 0 0 Z " fill="#070707" transform="translate(366.375,266.625)"/>
<path d="M0 0 C5.30988288 2.42737503 8.98292472 6.05178693 11.61328125 11.3125 C11.61328125 15.2725 11.61328125 19.2325 11.61328125 23.3125 C2.70328125 23.3125 -6.20671875 23.3125 -15.38671875 23.3125 C-15.05671875 24.6325 -14.72671875 25.9525 -14.38671875 27.3125 C-7.70556881 28.44554491 -7.70556881 28.44554491 -1.26171875 27 C1.61328125 26.3125 1.61328125 26.3125 3.75390625 27.51171875 C5.78842497 29.03760779 7.72204531 30.61326771 9.61328125 32.3125 C5.32118622 36.97248889 2.4090844 39.04857127 -3.9453125 39.6484375 C-5.22535156 39.66132813 -6.50539063 39.67421875 -7.82421875 39.6875 C-9.10167969 39.71585937 -10.37914062 39.74421875 -11.6953125 39.7734375 C-18.07473078 38.97685405 -22.24557475 35.02880289 -26.38671875 30.3125 C-29.24181348 24.45256781 -29.68565894 17.39382911 -27.69921875 11.15234375 C-22.10060724 0.53830944 -11.29821242 -3.2544769 0 0 Z " fill="#070707" transform="translate(472.38671875,265.6875)"/>
<path d="M0 0 C2.63194551 1.93367425 4.89114126 3.81807821 7.0625 6.25 C6.0625 9.25 6.0625 9.25 3.77734375 10.63671875 C2.86082031 11.06597656 1.94429687 11.49523437 1 11.9375 C-0.37865234 12.59298828 -0.37865234 12.59298828 -1.78515625 13.26171875 C-2.49542969 13.58785156 -3.20570313 13.91398437 -3.9375 14.25 C-4.52273438 13.75113281 -5.10796875 13.25226563 -5.7109375 12.73828125 C-7.99469669 10.89075319 -7.99469669 10.89075319 -11.5625 11.4375 C-14.98669943 11.95122285 -14.98669943 11.95122285 -16.9375 14.25 C-17.4465614 19.45389101 -17.4465614 19.45389101 -15.875 24.25 C-12.82416625 25.82462387 -10.31349627 25.54103416 -6.9375 25.25 C-6.15375 24.816875 -5.37 24.38375 -4.5625 23.9375 C-1.13650863 23.04021655 -0.1645088 23.93216905 2.875 25.625 C4.28133261 26.48302348 5.68075429 27.35291891 7.0625 28.25 C5.21383714 32.39843485 2.68996813 34.51089141 -0.9375 37.25 C-6.83441985 39.21563995 -13.7419979 39.31669998 -19.65234375 37.34375 C-25.63258378 34.23919943 -28.79098114 30.68955659 -30.9375 24.25 C-31.4808474 17.68803521 -31.43998575 12.01215398 -27.9375 6.25 C-20.97122668 -1.34957089 -9.64677315 -5.28077668 0 0 Z " fill="#070707" transform="translate(520.9375,266.75)"/>
<path d="M0 0 C4.29 0 8.58 0 13 0 C13 4.62 13 9.24 13 14 C15.97 14 18.94 14 22 14 C22 17.3 22 20.6 22 24 C19.36 24 16.72 24 14 24 C14 33.57 14 43.14 14 53 C9.38 53 4.76 53 0 53 C0 43.43 0 33.86 0 24 C-2.31 24 -4.62 24 -7 24 C-7 20.7 -7 17.4 -7 14 C-4.69 14 -2.38 14 0 14 C0 9.38 0 4.76 0 0 Z " fill="#0E0E0E" transform="translate(387,252)"/>
<path d="M0 0 C3.96747553 2.01980572 6.80812126 4.1213636 9 8 C9.25703045 10.97528862 9.3496991 13.73336978 9.29296875 16.703125 C9.28872391 17.54091492 9.28447906 18.37870483 9.28010559 19.24188232 C9.26334408 21.91158502 9.22569711 24.58052637 9.1875 27.25 C9.17244987 29.06248908 9.15876203 30.87499002 9.14648438 32.6875 C9.11344889 37.12529231 9.06168443 41.56251717 9 46 C5.298979 43.9150915 2.89988682 41.89121235 0.24609375 38.54296875 C-2.49390607 35.150179 -5.62325243 32.3061074 -9 29.5625 C-12 27 -12 27 -14.4375 24.0625 C-17.33220367 20.6029761 -20.51065628 17.83572025 -24 15 C-19.20732318 4.91586098 -11.60637284 -2.08761492 0 0 Z " fill="#035FF8" transform="translate(252,228)"/>
<path d="M0 0 C1.12487507 0.94236098 2.2466795 1.88838806 3.3671875 2.8359375 C4.30473877 3.62556885 4.30473877 3.62556885 5.26123047 4.43115234 C7.45820856 6.41342997 9.16925082 8.68105104 11 11 C12.65002828 12.35386936 14.3174387 13.68678142 16 15 C19.49270051 18.31358767 22.61127961 21.83690928 25.66796875 25.546875 C26.9579691 27.12779183 26.9579691 27.12779183 29 28 C29 28.66 29 29.32 29 30 C29.99 30.33 30.98 30.66 32 31 C32 31.99 32 32.98 32 34 C30.68 34 29.36 34 28 34 C28 35.03125 28 36.0625 28 37.125 C27.47957771 40.57807223 26.26653245 42.17872021 23.625 44.4375 C19.34724385 47.29959584 15.64532087 47.81660285 10.55859375 47.52734375 C5.93104142 46.57357342 3.56598231 44.23596789 0.85986328 40.37207031 C-0.45651269 36.74063676 -0.24385506 33.10857871 -0.1953125 29.296875 C-0.1924826 28.45908508 -0.18965271 27.62129517 -0.18673706 26.75811768 C-0.17556349 24.08859837 -0.15046421 21.4194175 -0.125 18.75 C-0.11496654 16.93750485 -0.10584133 15.12500444 -0.09765625 13.3125 C-0.0756334 8.87487007 -0.04112304 4.43749237 0 0 Z " fill="#045FF7" transform="translate(160,276)"/>
<path d="M0 0 C4.29 0 8.58 0 13 0 C13 4.62 13 9.24 13 14 C15.64 14 18.28 14 21 14 C21 17.3 21 20.6 21 24 C18.36 24 15.72 24 13 24 C13 33.57 13 43.14 13 53 C8.71 53 4.42 53 0 53 C0 43.43 0 33.86 0 24 C-2.31 24 -4.62 24 -7 24 C-7 20.7 -7 17.4 -7 14 C-4.69 14 -2.38 14 0 14 C0 9.38 0 4.76 0 0 Z " fill="#050505" transform="translate(419,252)"/>
<path d="M0 0 C3.69230769 0.69230769 3.69230769 0.69230769 5 2 C8.70880369 2.13638093 12.41169003 2.24795379 16.12304688 2.25390625 C16.91130859 2.27839844 17.69957031 2.30289063 18.51171875 2.328125 C19.58619263 2.34214355 19.58619263 2.34214355 20.68237305 2.35644531 C24.18207341 3.32823612 26.71393138 5.2372377 29 8 C29.59477806 10.90681271 29.79594507 12.98260359 29.72875977 15.87963867 C29.73730232 17.04634346 29.73730232 17.04634346 29.74601746 18.23661804 C29.75709928 20.79800224 29.7251074 23.35681311 29.69140625 25.91796875 C29.68782877 27.69964803 29.6864718 29.48133304 29.6872406 31.26301575 C29.6825538 34.99137952 29.65774293 38.71887586 29.61743164 42.44702148 C29.56635006 47.23247845 29.55499205 52.01698614 29.55726719 56.80268383 C29.5564528 60.4786744 29.54002283 64.15445629 29.51826286 67.83037758 C29.50870066 69.59546645 29.50280013 71.36057899 29.50058174 73.12569237 C29.49409872 75.5870563 29.46789019 78.04739931 29.43579102 80.50854492 C29.43715057 81.24155823 29.43851013 81.97457153 29.43991089 82.72979736 C29.40113831 84.75602722 29.40113831 84.75602722 29 88 C27.515 88.99 27.515 88.99 26 90 C26.00888245 89.07593857 26.01776489 88.15187714 26.0269165 87.19981384 C26.10718993 78.475372 26.16802921 69.75105488 26.20724869 61.02632809 C26.22809 56.5412357 26.25634405 52.05644943 26.30175781 47.5715332 C26.34533951 43.24025542 26.36916309 38.9092714 26.37950897 34.57779121 C26.3868783 32.92841533 26.40126898 31.27905484 26.42292023 29.62980461 C26.45211925 27.31266895 26.4559493 24.9967345 26.45410156 22.67944336 C26.46298401 21.3626207 26.47186646 20.04579803 26.48101807 18.68907166 C25.79726452 13.44516089 23.8470718 9.68409488 19.875 6.0625 C15.11099228 4.30188845 9.74999888 3.74704193 5.01953125 5.90234375 C3.1966444 7.07502275 3.1966444 7.07502275 1 9 C0.63877119 7.68942607 0.28619689 6.37646376 -0.0625 5.0625 C-0.35833984 3.96615234 -0.35833984 3.96615234 -0.66015625 2.84765625 C-0.77230469 2.23792969 -0.88445312 1.62820312 -1 1 C-0.67 0.67 -0.34 0.34 0 0 Z " fill="#EFFEFE" transform="translate(235,224)"/>
<path d="M0 0 C9.24 0 18.48 0 28 0 C26.95206337 4.19174654 26.08236365 5.21592961 23 8 C22.113125 7.29875 21.22625 6.5975 20.3125 5.875 C18.6728125 4.946875 18.6728125 4.946875 17 4 C14.49034386 4.70339566 14.49034386 4.70339566 12 6 C7.72336238 6.45821117 5.72234197 6.46106934 2.0625 4.125 C0 2 0 2 0 0 Z " fill="#EDEDED" transform="translate(349,289)"/>
<path d="M0 0 C7.92 0 15.84 0 24 0 C23.67 0.66 23.34 1.32 23 2 C22.01 2.33 21.02 2.66 20 3 C19.34 3.66 18.68 4.32 18 5 C16.68 5 15.36 5 14 5 C11.73409151 5.29520639 9.47711922 5.62852615 7.21875 5.9765625 C4.52620351 6.00500489 3.18848444 5.5645744 1 4 C0.67 2.68 0.34 1.36 0 0 Z " fill="#EDEDED" transform="translate(457,289)"/>
<path d="M0 0 C1.22589844 0.15275391 1.22589844 0.15275391 2.4765625 0.30859375 C3.41628906 0.43427734 3.41628906 0.43427734 4.375 0.5625 C5.035 2.2125 5.695 3.8625 6.375 5.5625 C1.425 5.5625 -3.525 5.5625 -8.625 5.5625 C-6.22089952 -0.44775119 -5.8578777 -0.7531557 0 0 Z " fill="#DEDEDE" transform="translate(357.625,276.4375)"/>
<path d="M0 0 C2.875 1.875 2.875 1.875 5 4 C5 4.66 5 5.32 5 6 C0.05 6 -4.9 6 -10 6 C-8.50509359 0.02037436 -5.77723019 -0.69326762 0 0 Z " fill="#DFDFDF" transform="translate(467,276)"/>
<path d="M0 0 C2.41498287 1.24644277 3.47835228 2.73832103 4.9375 5 C3.6175 5 2.2975 5 0.9375 5 C0.6075 6.32 0.2775 7.64 -0.0625 9 C-3.0325 9 -6.0025 9 -9.0625 9 C-9.0625 9.66 -9.0625 10.32 -9.0625 11 C-9.7225 10.67 -10.3825 10.34 -11.0625 10 C-9.41255906 7.98340552 -7.74873626 5.98579685 -6.0625 4 C-5.381875 3.195625 -4.70125 2.39125 -4 1.5625 C-2.0625 0 -2.0625 0 0 0 Z " fill="#E5F6FB" transform="translate(211.0625,293)"/>
<path d="M0 0 C3.69230769 0.69230769 3.69230769 0.69230769 5 2 C8.23159519 2.2875572 11.46347722 2.44885003 14.703125 2.62109375 C19.00445639 3.11544108 21.91720946 3.91720946 25 7 C24.625 9.125 24.625 9.125 24 11 C23.21625 10.195625 22.4325 9.39125 21.625 8.5625 C17.60474919 4.63796945 14.99240879 4.67557648 9.5546875 4.69921875 C5.76663645 5.14521253 3.88333233 6.57193067 1 9 C0.63877119 7.68942607 0.28619689 6.37646376 -0.0625 5.0625 C-0.35833984 3.96615234 -0.35833984 3.96615234 -0.66015625 2.84765625 C-0.77230469 2.23792969 -0.88445312 1.62820312 -1 1 C-0.67 0.67 -0.34 0.34 0 0 Z " fill="#E8F3FA" transform="translate(235,224)"/>
<path d="M0 0 C0.66 0.33 1.32 0.66 2 1 C2.33 1.99 2.66 2.98 3 4 C3.99 4.33 4.98 4.66 6 5 C4.50260417 6.23697917 3.00520833 7.47395833 1.5078125 8.7109375 C0.28948839 9.75250992 -0.86660097 10.86660097 -2 12 C-2 11.34 -2 10.68 -2 10 C-2.66 10 -3.32 10 -4 10 C-4.8125 7.8125 -4.8125 7.8125 -5 5 C-2.5625 2.1875 -2.5625 2.1875 0 0 Z " fill="#EFF9FA" transform="translate(216,243)"/>
<path d="M0 0 C0 0.99 0 1.98 0 3 C-0.99 2.67 -1.98 2.34 -3 2 C-8.01817211 1.52614783 -12.46515741 1.20060282 -17 3.5625 C-19.48439887 6.59036112 -20.65769002 9.32630954 -22 13 C-22.33 13 -22.66 13 -23 13 C-23.3503211 9.32162848 -23.06960695 7.15737224 -21.5625 3.75 C-16.37710179 -1.81481759 -7.01803709 -2.3393457 0 0 Z " fill="#E3FAFF" transform="translate(182,227)"/>
<path d="M0 0 C6 6 6 6 6.11352539 9.60180664 C6.11336625 11.20459856 6.10767063 12.8073956 6.09765625 14.41015625 C6.0962413 15.25219101 6.09482635 16.09422577 6.09336853 16.96177673 C6.08775263 19.66205335 6.07519748 22.36224828 6.0625 25.0625 C6.05748705 26.88867068 6.05292379 28.71484266 6.04882812 30.54101562 C6.03777804 35.02737542 6.02050279 39.51367384 6 44 C5.67 44 5.34 44 5 44 C4.9906543 42.97640381 4.98130859 41.95280762 4.97167969 40.89819336 C4.93159832 37.07533353 4.86579108 33.25326322 4.79248047 29.4309082 C4.76437544 27.78127234 4.74310909 26.13150442 4.72900391 24.48168945 C4.70742767 22.10039175 4.66070755 19.72066412 4.609375 17.33984375 C4.60814636 16.61039047 4.60691772 15.88093719 4.60565186 15.12937927 C4.45253942 9.69244117 2.8975171 6.58388936 0 2 C0 1.34 0 0.68 0 0 Z " fill="#1154CD" transform="translate(255,230)"/>
<path d="M0 0 C-0.54226981 3.79588866 -2.20127563 5.47211993 -5 8 C-7.5 6.1875 -7.5 6.1875 -10 4 C-10 3.01 -10 2.02 -10 1 C-6.52674819 -0.1577506 -3.63932552 -0.06866652 0 0 Z " fill="#F5F5F5" transform="translate(377,289)"/>
<path d="M0 0 C1.134375 0.020625 2.26875 0.04125 3.4375 0.0625 C2.48632866 1.2350131 1.52632991 2.40037015 0.5625 3.5625 C-0.23800781 4.53703125 -0.23800781 4.53703125 -1.0546875 5.53125 C-1.55226562 6.0365625 -2.04984375 6.541875 -2.5625 7.0625 C-3.2225 7.0625 -3.8825 7.0625 -4.5625 7.0625 C-4.81 7.660625 -5.0575 8.25875 -5.3125 8.875 C-6.72620012 11.34897521 -8.21305383 12.49620255 -10.5625 14.0625 C-10.2325 12.7425 -9.9025 11.4225 -9.5625 10.0625 C-8.9025 10.0625 -8.2425 10.0625 -7.5625 10.0625 C-7.5625 8.4125 -7.5625 6.7625 -7.5625 5.0625 C-6.2425 5.0625 -4.9225 5.0625 -3.5625 5.0625 C-3.8409375 4.1034375 -3.8409375 4.1034375 -4.125 3.125 C-4.269375 2.444375 -4.41375 1.76375 -4.5625 1.0625 C-3.5625 0.0625 -3.5625 0.0625 0 0 Z " fill="#4996EB" transform="translate(205.5625,293.9375)"/>
<path d="M0 0 C0.763125 0.66 1.52625 1.32 2.3125 2 C6.77192032 4.99418222 11.83331633 4.64677554 17 4 C19.75311443 3.0498544 19.75311443 3.0498544 22 2 C20.125 5.875 20.125 5.875 19 7 C16.75473532 7.17926852 14.50197261 7.26811465 12.25 7.3125 C10.40148437 7.36857422 10.40148437 7.36857422 8.515625 7.42578125 C4.43468328 6.93153386 2.80008821 5.96574228 0 3 C0 2.01 0 1.02 0 0 Z " fill="#CFEAFE" transform="translate(162,318)"/>
<path d="M0 0 C0.33 0.66 0.66 1.32 1 2 C3.02463255 2.65213292 3.02463255 2.65213292 5 3 C5 3.66 5 4.32 5 5 C5.66 5.33 6.32 5.66 7 6 C7.33 6.33 7.66 6.66 8 7 C12.16464926 7.16017882 15.94726192 6.98248196 20 6 C18.24582371 8.20592068 17.32494453 8.93878596 14.51171875 9.46875 C5.94614073 9.56352818 5.94614073 9.56352818 2.375 6.6875 C0 4 0 4 -1 1 C-0.67 0.67 -0.34 0.34 0 0 Z " fill="#2864CD" transform="translate(162,314)"/>
<path d="M0 0 C1.32 0.66 2.64 1.32 4 2 C4 2.66 4 3.32 4 4 C4.66 4.66 5.32 5.32 6 6 C4.68 6.33 3.36 6.66 2 7 C2 6.34 2 5.68 2 5 C-1.14191424 6.53604696 -4.08596738 8.05731159 -7 10 C-5.33248852 6.05860922 -2.77289351 3.2107188 0 0 Z " fill="#105DEA" transform="translate(235,233)"/>
<path d="M0 0 C2.86724686 0.57344937 3.8614515 0.8614515 6 3 C5.625 6.125 5.625 6.125 5 9 C2.69 7.35 0.38 5.7 -2 4 C-1.34 2.68 -0.68 1.36 0 0 Z " fill="#5EA8F4" transform="translate(227,304)"/>
<path d="M0 0 C1.32 0.33 2.64 0.66 4 1 C0.7 4.3 -2.6 7.6 -6 11 C-6.33 9.68 -6.66 8.36 -7 7 C-6.34 7 -5.68 7 -5 7 C-5 6.34 -5 5.68 -5 5 C-4.360625 4.731875 -3.72125 4.46375 -3.0625 4.1875 C-0.66868314 3.11332248 -0.66868314 3.11332248 0 0 Z " fill="#CDE5FC" transform="translate(231,234)"/>
<path d="M0 0 C2.609375 0.37109375 2.609375 0.37109375 5.296875 2.37109375 C5.73 3.03109375 6.163125 3.69109375 6.609375 4.37109375 C0.85778264 3.43478802 0.85778264 3.43478802 -1.828125 2.74609375 C-5.1660278 2.25762017 -8.08655646 2.78802283 -11.390625 3.37109375 C-8.20479081 -0.6728776 -4.82397037 -0.10847552 0 0 Z " fill="#6BA8E7" transform="translate(176.390625,227.62890625)"/>
<path d="M0 0 C9.6402439 -0.37804878 9.6402439 -0.37804878 14 2 C14.66 2.66 15.32 3.32 16 4 C15.625 6.125 15.625 6.125 15 8 C14.38125 7.21625 13.7625 6.4325 13.125 5.625 C9.52998931 1.94662674 4.90939462 1.63869794 0 1 C0 0.67 0 0.34 0 0 Z " fill="#C4E5FD" transform="translate(244,227)"/>
<path d="M0 0 C0.66 0.33 1.32 0.66 2 1 C2 1.99 2 2.98 2 4 C0.68 4.33 -0.64 4.66 -2 5 C-2.33 6.98 -2.66 8.96 -3 11 C-3.33 11 -3.66 11 -4 11 C-3.56179109 6.44262737 -3.14958831 3.42346555 0 0 Z " fill="#68A6E3" transform="translate(164,231)"/>
<path d="M0 0 C6.625 -0.125 6.625 -0.125 10 1 C10 1.99 10 2.98 10 4 C6.37 3.34 2.74 2.68 -1 2 C-0.67 1.34 -0.34 0.68 0 0 Z " fill="#D5F0FE" transform="translate(172,226)"/>
<path d="M0 0 C-1.875 3.875 -1.875 3.875 -3 5 C-4.99958364 5.04080783 -7.00045254 5.04254356 -9 5 C-2.40909091 0 -2.40909091 0 0 0 Z " fill="#DFF5FE" transform="translate(184,320)"/>
<path d="M0 0 C3.53586014 3.17320782 5.58578031 5.16743695 6 10 C2.49797737 7.66531825 1.66176363 5.79831687 0 2 C0 1.34 0 0.68 0 0 Z " fill="#2762D6" transform="translate(255,230)"/>
<path d="M0 0 C1.43088528 2.86177057 0.59991697 4.93375773 0 8 C-0.99 8.33 -1.98 8.66 -3 9 C-3 8.34 -3 7.68 -3 7 C-3.66 6.67 -4.32 6.34 -5 6 C-3.35 4.02 -1.7 2.04 0 0 Z " fill="#4091E7" transform="translate(216,252)"/>
<path d="M0 0 C0.33 0.66 0.66 1.32 1 2 C3.02463255 2.65213292 3.02463255 2.65213292 5 3 C5 3.66 5 4.32 5 5 C5.66 5.33 6.32 5.66 7 6 C4.125 5.75 4.125 5.75 1 5 C-0.375 2.9375 -0.375 2.9375 -1 1 C-0.67 0.67 -0.34 0.34 0 0 Z " fill="#1660DE" transform="translate(162,314)"/>
<path d="M0 0 C0.66 0.33 1.32 0.66 2 1 C0.35830472 3.02054804 -1.30911778 5.02043058 -3 7 C-3.33 7 -3.66 7 -4 7 C-4 5.35 -4 3.7 -4 2 C-2.68 2 -1.36 2 0 2 C0 1.34 0 0.68 0 0 Z " fill="#3470E0" transform="translate(192,308)"/>
<path d="M0 0 C2.31 1.98 4.62 3.96 7 6 C5 7 5 7 2.9375 6.375 C1 5 1 5 0.25 2.375 C0.1675 1.59125 0.085 0.8075 0 0 Z " fill="#CFEBFB" transform="translate(216,298)"/>
<path d="M0 0 C2.2477975 2.05233685 3.0022242 3.00667261 4 6 C3.34 6.66 2.68 7.32 2 8 C2 7.34 2 6.68 2 6 C1.34 6 0.68 6 0 6 C0 4.02 0 2.04 0 0 Z " fill="#EDEDED" transform="translate(298,275)"/>
<path d="M0 0 C3.56311466 1.78155733 5.35645475 3.16763009 8 6 C7.34 6.66 6.68 7.32 6 8 C4.02 5.36 2.04 2.72 0 0 Z " fill="#F3FCEF" transform="translate(256,227)"/>
</svg>
