<svg width="201" height="50" viewBox="0 0 201 50" fill="none" xmlns="http://www.w3.org/2000/svg">
<path d="M0.411133 21.0524C0.411133 9.89114 9.45461 0.847656 20.6159 0.847656C31.7771 0.847656 40.8206 9.89114 40.8206 21.0524V41.2571H20.6159C9.45461 41.2519 0.411133 32.2085 0.411133 21.0524Z" fill="url(#paint0_linear_657_17941)"/>
<path d="M29.5234 14.829C29.5234 16.0049 28.9458 17.0976 27.7959 18.1071L18.716 25.9382H29.5182C29.5182 28.6335 27.3328 30.819 24.6374 30.819H16.4005C15.1205 30.819 14.0642 30.5536 13.2212 30.0176C12.2118 29.3828 11.707 28.467 11.707 27.2755C11.707 26.0839 12.2898 25.0276 13.4502 24.039L22.5405 16.1454H11.7122C11.7122 13.4501 13.8977 11.2646 16.593 11.2646H24.8664C26.1256 11.2646 27.1715 11.5456 28.0144 12.0972C29.0239 12.7372 29.5286 13.6426 29.5286 14.8186H29.5338L29.5234 14.829Z" fill="white"/>
<path d="M75.0317 40.8299H69.5213V25.1686C69.5213 24.7835 69.4484 24.4245 69.2975 24.0915C69.1519 23.7584 68.9489 23.467 68.6992 23.2173C68.4494 22.9675 68.158 22.7698 67.825 22.6293C67.492 22.4888 67.1329 22.416 66.7479 22.416C66.3628 22.416 66.0038 22.4888 65.6708 22.6293C65.3378 22.7698 65.0464 22.9675 64.7966 23.2173C64.5469 23.467 64.3491 23.7584 64.2086 24.0915C64.0681 24.4245 63.9953 24.7835 63.9953 25.1686V40.8299H58.4641V25.1686C58.4641 24.7835 58.3913 24.4245 58.2508 24.0915C58.1103 23.7584 57.9125 23.467 57.6628 23.2173C57.413 22.9675 57.1216 22.7698 56.7886 22.6293C56.4556 22.4888 56.0966 22.416 55.7115 22.416C55.3265 22.416 54.9674 22.4888 54.6344 22.6293C54.3014 22.7698 54.01 22.9675 53.7602 23.2173C53.5105 23.467 53.3128 23.7584 53.1723 24.0915C53.0318 24.4245 52.9589 24.7835 52.9589 25.1686V40.8299H47.4277V25.1686C47.4277 24.0238 47.6411 22.9519 48.073 21.9425C48.5048 20.933 49.0928 20.0536 49.8473 19.3043C50.5966 18.5551 51.476 17.9619 52.4854 17.53C53.4949 17.0981 54.5668 16.8848 55.7115 16.8848C56.7366 16.8848 57.7304 17.0669 58.6774 17.4363C59.6297 17.8006 60.483 18.3313 61.2375 19.0234C61.9972 18.3313 62.8454 17.8006 63.7924 17.4363C64.7342 17.0721 65.7228 16.8848 66.7479 16.8848C67.8926 16.8848 68.9645 17.0981 69.974 17.53C70.9834 17.9619 71.8628 18.5498 72.6121 19.3043C73.3614 20.0588 73.9546 20.933 74.3865 21.9425C74.8183 22.9519 75.0317 24.0238 75.0317 25.1686V40.8299Z" fill="black"/>
<path d="M82.6197 49.5416V44.2445L85.5492 44.281C86.0643 44.281 86.5587 44.1977 87.0322 44.0312C87.5057 43.8647 87.948 43.6305 88.3538 43.3392C88.7597 43.0426 89.1135 42.6939 89.4257 42.2881C89.7327 41.8822 89.9825 41.4451 90.175 40.9664C89.5974 41.211 89.0094 41.4555 88.4111 41.7001C87.8127 41.9446 87.2143 42.0643 86.6107 42.0643C85.3411 42.0643 84.1443 41.8406 83.0256 41.3879C81.9068 40.9404 80.9286 40.3004 80.0856 39.473C79.2427 38.6457 78.5819 37.6362 78.1032 36.4499C77.6192 35.2635 77.3799 33.9314 77.3799 32.4537V21.0479H82.6197V32.4537C82.6197 33.1873 82.7238 33.8274 82.9371 34.3685C83.1504 34.9097 83.4366 35.3676 83.7957 35.737C84.1547 36.1012 84.5762 36.377 85.0549 36.5539C85.5336 36.7309 86.0539 36.8245 86.6055 36.8245C87.157 36.8245 87.6566 36.6996 88.1353 36.4499C88.6192 36.2001 89.0355 35.8671 89.3997 35.456C89.7587 35.045 90.0397 34.5819 90.2478 34.0615C90.4508 33.5412 90.5549 33.0052 90.5549 32.4537V21.0479H95.8519V39.0776C95.8363 40.5293 95.5553 41.8926 95.0037 43.1622C94.4522 44.4319 93.6977 45.5454 92.7403 46.4976C91.7828 47.4498 90.6693 48.1991 89.3997 48.7507C88.1301 49.3022 86.7668 49.578 85.315 49.578L82.6197 49.5416Z" fill="black"/>
<path d="M114.313 26.0323V16.8848H119.829V40.685H114.318V31.5375H104.203V40.685H98.6875V16.8848H104.198V26.0323H114.313Z" fill="black"/>
<path d="M122.822 24.2165H128.296V40.6904H122.822V24.2165Z" fill="black"/>
<path d="M122.666 19.7779C122.666 21.3776 123.96 22.6711 125.559 22.6711C127.159 22.6711 128.452 21.3776 128.452 19.7779C128.452 18.1783 127.159 16.8848 125.559 16.8848C123.96 16.8848 122.666 18.1783 122.666 19.7779Z" fill="black"/>
<path d="M136.771 28.4831V40.6855H131.297V28.4831C131.297 25.3371 132.38 22.6195 134.552 20.3201C136.72 18.0254 139.37 16.8848 142.526 16.8848C145.68 16.8848 148.351 18.0499 150.557 20.3773C152.687 22.6392 153.749 25.3357 153.749 28.4831V40.6855H148.276V28.4831C148.276 26.8459 147.727 25.3899 146.649 24.1375L146.649 24.1369C145.555 22.8731 144.179 22.2338 142.526 22.2338C140.873 22.2338 139.491 22.8728 138.398 24.1369C137.313 25.39 136.771 26.8412 136.771 28.4831Z" fill="black"/>
<path d="M156.744 28.785C156.744 25.5356 157.873 22.7441 160.148 20.3993C162.421 18.0513 165.161 16.8848 168.395 16.8848H173.64C175.512 16.8848 177.103 17.5454 178.435 18.8703C179.766 20.1953 180.43 21.7788 180.43 23.6427V24.7561C180.43 26.6201 179.766 28.2092 178.434 29.5448C177.102 30.8799 175.512 31.5451 173.64 31.5451H168.587C167.074 31.5451 165.85 30.3275 165.85 28.8212C165.85 27.315 167.074 26.0973 168.587 26.0973H173.64C174.024 26.0973 174.369 26.0007 174.615 25.7526C174.861 25.5052 174.956 25.1601 174.956 24.7768C174.956 24.3987 174.949 24.0905 174.936 23.8548C174.924 23.6447 174.905 23.4605 174.868 23.3373C174.806 23.0386 174.677 22.7789 174.458 22.5948C174.234 22.4062 173.95 22.3274 173.64 22.3274H168.374C166.636 22.3274 165.163 22.9754 163.986 24.2615C162.809 25.5366 162.218 27.0617 162.218 28.8057C162.218 30.5513 162.804 32.0349 163.981 33.3089C165.163 34.5889 166.625 35.2374 168.368 35.2374H180.43V40.6852H168.395C165.161 40.6852 162.422 39.5141 160.148 37.171C157.878 34.8205 156.744 32.0287 156.744 28.785Z" fill="black"/>
<path d="M200.404 21.3799C200.404 21.3798 200.404 21.38 200.404 21.3799L200.405 21.3614C200.407 21.3279 200.409 21.2944 200.411 21.2608C200.411 21.2592 200.411 21.2575 200.411 21.2558" fill="black"/>
<path d="M189.097 35.2576H199.896V40.6275H187.668C186.493 40.6275 185.553 40.3147 184.807 39.7054L184.807 39.705C183.929 38.9907 183.474 37.964 183.474 36.5637C183.474 35.1811 183.996 33.9492 185.07 32.7712L194.441 22.3064H183.619V16.9365H195.879C197.027 16.9365 197.96 17.2621 198.703 17.8909L198.708 17.8955C199.587 18.6103 200.041 19.6374 200.041 21.016V21.3501C199.963 22.5913 199.449 23.7643 198.464 24.8677L198.463 24.8685L189.097 35.2576Z" fill="black"/>
<defs>
<linearGradient id="paint0_linear_657_17941" x1="37.8339" y1="43.5362" x2="8.9915" y2="5.86893" gradientUnits="userSpaceOnUse">
<stop stop-color="#9747FF"/>
<stop offset="1" stop-color="#E547FF"/>
</linearGradient>
</defs>
</svg>
