<?xml version="1.0" encoding="UTF-8"?>
<svg version="1.1" xmlns="http://www.w3.org/2000/svg" width="400" height="300">
<path d="M0 0 C132 0 264 0 400 0 C400 99 400 198 400 300 C268 300 136 300 0 300 C0 201 0 102 0 0 Z " fill="#FEFEFE" transform="translate(0,0)"/>
<path d="M0 0 C3.08193978 1.6281946 5.26420667 3.03009062 7.375 5.8125 C9.64388065 13.75358227 6.65752125 20.88768385 3 28 C0.25921456 31.61803503 -2.80064556 34.78907466 -6 38 C-7.70888083 39.96935689 -9.35166879 41.97946496 -11 44 C-10.41992188 43.95359375 -9.83984375 43.9071875 -9.2421875 43.859375 C-3.59011326 43.59822305 -0.40745312 44.10504143 4 48 C7.9349202 52.34912233 8.63914943 55.91552097 8.3828125 61.59765625 C7.80097606 65.24897675 6.49646118 67.30644978 4 70 C-0.76757368 73.3262142 -5.36034559 73.76239773 -11 73 C-15.71362305 71.0098036 -18.72172827 67.55654346 -21 63 C-21.16796875 61.046875 -21.16796875 61.046875 -21.1875 58.75 C-21.20167969 58.00234375 -21.21585938 57.2546875 -21.23046875 56.484375 C-20.94946318 53.45523019 -19.99311 50.86641509 -19 48 C-23.37614648 48.02286247 -27.74970063 48.10026244 -32.125 48.1875 C-33.3625 48.19330078 -34.6 48.19910156 -35.875 48.20507812 C-43.24630316 48.19212225 -43.24630316 48.19212225 -49.7734375 51.14453125 C-52.30207904 54.38740312 -52.93297995 56.45525698 -53.5 60.5 C-54.84373388 67.6129386 -54.84373388 67.6129386 -58.0625 70.25 C-62.92727673 73.14816486 -66.36118864 73.67399934 -72 73 C-77.02804344 70.5790902 -78.92375654 68.09871793 -81 63 C-81.34057617 59.38134766 -81.34057617 59.38134766 -81.29296875 55.4140625 C-81.28872391 54.71227875 -81.28447906 54.010495 -81.28010559 53.28744507 C-81.26343599 51.0662244 -81.22580872 48.84594212 -81.1875 46.625 C-81.17243788 45.11069027 -81.15875216 43.59636619 -81.14648438 42.08203125 C-81.11357183 38.38772068 -81.06187259 34.69395207 -81 31 C-80.23598877 30.81026611 -79.47197754 30.62053223 -78.68481445 30.42504883 C-55.78303091 24.72145749 -34.62110904 18.49367907 -15.140625 4.51171875 C-10.05691428 0.92157998 -6.29169353 -0.78646169 0 0 Z " fill="#7300B3" transform="translate(187,121)"/>
<path d="M0 0 C0.92126678 -0.0066568 1.84253357 -0.0133136 2.79171753 -0.02017212 C4.74003104 -0.03028088 6.68837904 -0.03498969 8.63671875 -0.03466797 C11.58653524 -0.0390173 14.53482532 -0.07528939 17.484375 -0.11328125 C28.58968405 -0.17936325 37.82189503 0.16700471 47.4921875 6.2109375 C51.25626033 10.21026489 52.67941635 13.77171117 52.9296875 19.2109375 C52.62600561 27.32531747 48.86872463 32.80818387 43.0546875 38.26953125 C29.60386465 49.1163076 12.85299269 55.87134945 -3.6953125 60.3359375 C-4.84338379 60.64772949 -4.84338379 60.64772949 -6.01464844 60.96582031 C-10.98204929 62.21148825 -15.38683108 62.40559705 -20.5078125 62.3359375 C-20.66026354 54.91636559 -20.76515483 47.49719924 -20.83740234 40.07641602 C-20.86752797 37.55347602 -20.90843718 35.03064034 -20.96044922 32.50805664 C-21.03344412 28.8762027 -21.06731299 25.24573629 -21.09375 21.61328125 C-21.12471771 20.49009995 -21.15568542 19.36691864 -21.18759155 18.20970154 C-21.18980043 13.04037526 -21.10325391 9.32288512 -17.78369141 5.19360352 C-12.38210984 0.0075211 -7.16104598 0.018106 0 0 Z " fill="#6302A8" transform="translate(126.5078125,83.6640625)"/>
<path d="M0 0 C5.59904928 0.03999321 5.59904928 0.03999321 8.15625 1.6015625 C10.31159161 4.04511839 11.21238817 6.09147116 11.5625 9.3125 C11.459375 10.01375 11.35625 10.715 11.25 11.4375 C11.68570313 11.0765625 12.12140625 10.715625 12.5703125 10.34375 C15.53059373 8.03703735 17.64780994 6.55793801 21.375 5.8125 C25.22177734 6.64875594 26.73504481 8.49140963 29.25 11.4375 C29.745 11.9325 29.745 11.9325 30.25 12.4375 C30.77078125 11.61894531 31.2915625 10.80039063 31.828125 9.95703125 C34.25 7.4375 34.25 7.4375 37.484375 6.94921875 C40.73958333 7.11197917 43.99479167 7.27473958 47.25 7.4375 C47.25 12.3875 47.25 17.3375 47.25 22.4375 C43.77669872 23.13216026 41.33697137 23.55761816 37.9375 23.5 C36.1121875 23.4690625 36.1121875 23.4690625 34.25 23.4375 C35.24 24.0975 36.23 24.7575 37.25 25.4375 C37.59057617 27.77587891 37.59057617 27.77587891 37.54296875 30.6640625 C37.5284668 32.2109375 37.5284668 32.2109375 37.51367188 33.7890625 C37.48853516 34.86929688 37.46339844 35.94953125 37.4375 37.0625 C37.41719727 38.69445312 37.41719727 38.69445312 37.39648438 40.359375 C37.36104754 43.05257409 37.31164331 45.74479374 37.25 48.4375 C33.5 49.5625 33.5 49.5625 31.25 48.4375 C30.625 45.875 30.625 45.875 30.25 43.4375 C29.63125 44.241875 29.0125 45.04625 28.375 45.875 C25.90937343 48.84825556 25.20666113 49.30994518 21.4375 49.8125 C18.25 49.4375 18.25 49.4375 15.5 47.3125 C13.19707983 44.36987978 12.16988949 42.03343164 11.25 38.4375 C10.569375 39.076875 9.88875 39.71625 9.1875 40.375 C5.78591161 42.7633493 3.34566299 43.11627153 -0.75 43.4375 C-0.75 45.0875 -0.75 46.7375 -0.75 48.4375 C-2.73 48.4375 -4.71 48.4375 -6.75 48.4375 C-6.77887814 44.95835059 -6.79675687 41.47923169 -6.8125 38 C-6.82087891 37.00677734 -6.82925781 36.01355469 -6.83789062 34.99023438 C-6.84111328 34.04599609 -6.84433594 33.10175781 -6.84765625 32.12890625 C-6.85289307 31.25435791 -6.85812988 30.37980957 -6.86352539 29.47875977 C-6.75 27.4375 -6.75 27.4375 -5.75 26.4375 C-3.73405418 26.20322222 -1.711526 26.02413876 0.3125 25.875 C1.96958984 25.74931641 1.96958984 25.74931641 3.66015625 25.62109375 C4.51480469 25.56050781 5.36945313 25.49992187 6.25 25.4375 C6.25 22.55354263 5.19094673 20.14272185 4.25 17.4375 C2.6 17.4375 0.95 17.4375 -0.75 17.4375 C-0.75 19.0875 -0.75 20.7375 -0.75 22.4375 C-2.40614657 22.81968767 -4.07457024 23.15145102 -5.75 23.4375 C-7.37200515 21.81549485 -6.8799075 20.01726969 -6.8828125 17.78125 C-6.88410156 16.84152344 -6.88539063 15.90179688 -6.88671875 14.93359375 C-6.88285156 13.94488281 -6.87898437 12.95617187 -6.875 11.9375 C-6.87886719 10.94878906 -6.88273438 9.96007812 -6.88671875 8.94140625 C-6.88542969 8.00167969 -6.88414062 7.06195313 -6.8828125 6.09375 C-6.88168457 5.22556641 -6.88055664 4.35738281 -6.87939453 3.46289062 C-6.612663 -0.71221278 -3.57128387 0.1437224 0 0 Z " fill="#F1F1F0" transform="translate(225.75,145.5625)"/>
<path d="M0 0 C2.31 0 4.62 0 7 0 C6.51206858 4.56215874 4.88130196 6.65585408 1.75 9.9375 C0.94175781 10.79988281 0.13351563 11.66226563 -0.69921875 12.55078125 C-1.83810547 13.76314453 -1.83810547 13.76314453 -3 15 C-4.70187827 16.97449035 -6.35212371 18.98002261 -8 21 C-7.41992188 20.95359375 -6.83984375 20.9071875 -6.2421875 20.859375 C-0.59011326 20.59822305 2.59254688 21.10504143 7 25 C10.9349202 29.34912233 11.63914943 32.91552097 11.3828125 38.59765625 C10.80097606 42.24897675 9.49646118 44.30644978 7 47 C3.36775757 49.55907989 0.94392749 50.20638175 -3.375 49.6875 C-5.169375 49.3471875 -5.169375 49.3471875 -7 49 C-7.66 47.35 -8.32 45.7 -9 44 C-8.38125 43.566875 -7.7625 43.13375 -7.125 42.6875 C-4.7802755 41.00259517 -4.7802755 41.00259517 -3 38 C-3.66 38 -4.32 38 -5 38 C-6.625 36.6875 -6.625 36.6875 -8 35 C-8 34.01 -8 33.02 -8 32 C-7.01 32 -6.02 32 -5 32 C-5 31.01 -5 30.02 -5 29 C-6.65 29.33 -8.3 29.66 -10 30 C-11 24.25 -11 24.25 -11 22 C-11.31478446 20.66216607 -11.64587656 19.32796291 -12 18 C-11.01 17.34 -10.02 16.68 -9 16 C-8.61936779 13.6739143 -8.28730055 11.33944736 -8 9 C-7.34 8.01 -6.68 7.02 -6 6 C-6 5.34 -6 4.68 -6 4 C-5.195625 3.690625 -4.39125 3.38125 -3.5625 3.0625 C-1.10919595 2.23664655 -1.10919595 2.23664655 0 1 C0 0.67 0 0.34 0 0 Z " fill="#6402A6" transform="translate(184,144)"/>
<path d="M0 0 C0 0.66 0 1.32 0 2 C-0.71027344 2.19335938 -1.42054687 2.38671875 -2.15234375 2.5859375 C-3.53099609 2.97652344 -3.53099609 2.97652344 -4.9375 3.375 C-5.85402344 3.63023437 -6.77054688 3.88546875 -7.71484375 4.1484375 C-10.16745087 4.76660104 -10.16745087 4.76660104 -11 7 C-10.60061233 9.09821215 -10.60061233 9.09821215 -10 11 C-10.99 11.66 -11.98 12.32 -13 13 C-13.58687784 16.34613512 -13.58687784 16.34613512 -13.6875 20.125 C-13.75324219 21.40632813 -13.81898437 22.68765625 -13.88671875 24.0078125 C-13.92410156 24.99523437 -13.96148437 25.98265625 -14 27 C-12.68 27.33 -11.36 27.66 -10 28 C-10.99 31.465 -10.99 31.465 -12 35 C-11.34 35 -10.68 35 -10 35 C-9.67 37.31 -9.34 39.62 -9 42 C-2.18920161 42.51188768 -2.18920161 42.51188768 4.125 40.3125 C6.21090498 38.15834154 6.21090498 38.15834154 6.3125 35.4375 C6.209375 34.633125 6.10625 33.82875 6 33 C6 32.01 6 31.02 6 30 C5.98839844 29.30003906 5.97679688 28.60007813 5.96484375 27.87890625 C5.95582031 27.11449219 5.94679688 26.35007813 5.9375 25.5625 C5.92589844 24.80066406 5.91429688 24.03882813 5.90234375 23.25390625 C5.99858722 21.03260702 6.38375738 19.1301615 7 17 C8.32 16.67 9.64 16.34 11 16 C10.01 18.475 10.01 18.475 9 21 C9.66 21 10.32 21 11 21 C11.24492187 20.38640625 11.48984375 19.7728125 11.7421875 19.140625 C13.25052285 16.57364433 14.44256788 15.96142096 17.125 14.75 C17.84945312 14.41484375 18.57390625 14.0796875 19.3203125 13.734375 C19.87460938 13.49203125 20.42890625 13.2496875 21 13 C21 13.66 21 14.32 21 15 C23.7920301 14.8595017 26.58349796 14.71284617 29.375 14.5625 C30.1690625 14.52318359 30.963125 14.48386719 31.78125 14.44335938 C36.02601221 14.31106596 36.02601221 14.31106596 40 13 C40 13.66 40 14.32 40 15 C40.99 15.33 41.98 15.66 43 16 C42.505 16.474375 42.01 16.94875 41.5 17.4375 C39.88457803 18.75923698 39.88457803 18.75923698 40 20 C39.39526855 20.00410889 38.79053711 20.00821777 38.16748047 20.01245117 C35.40235651 20.04553948 32.63939185 20.11619624 29.875 20.1875 C28.44800781 20.19620117 28.44800781 20.19620117 26.9921875 20.20507812 C22.60260825 20.34225248 19.02068009 20.4585903 15.4140625 23.14453125 C12.66565941 26.39547406 12.08532614 28.32467357 11.5 32.5 C10.15626612 39.6129386 10.15626612 39.6129386 6.9375 42.25 C2.07272327 45.14816486 -1.36118864 45.67399934 -7 45 C-12.02804344 42.5790902 -13.92375654 40.09871793 -16 35 C-16.34057617 31.38134766 -16.34057617 31.38134766 -16.29296875 27.4140625 C-16.28872391 26.71227875 -16.28447906 26.010495 -16.28010559 25.28744507 C-16.26343599 23.0662244 -16.22580872 20.84594212 -16.1875 18.625 C-16.17243788 17.11069027 -16.15875216 15.59636619 -16.14648438 14.08203125 C-16.11357183 10.38772068 -16.06187259 6.69395207 -16 3 C-14.08487728 2.49411853 -12.16783078 1.99551609 -10.25 1.5 C-8.64898437 1.08234375 -8.64898437 1.08234375 -7.015625 0.65625 C-4 0 -4 0 0 0 Z " fill="#8A19B1" transform="translate(122,149)"/>
<path d="M0 0 C0.33 0 0.66 0 1 0 C1 16.5 1 33 1 50 C26.09033278 45.2955626 47.99873378 38.23083004 68 22 C68.99 23.485 68.99 23.485 70 25 C70.99 24.67 71.98 24.34 73 24 C73.99 24.99 73.99 24.99 75 26 C74.51273437 26.25652344 74.02546875 26.51304688 73.5234375 26.77734375 C69.2579805 29.08069053 65.1579022 31.52725849 61.12207031 34.21606445 C44.58799083 45.18410181 21.26693123 56 1 56 C1 55.34 1 54.68 1 54 C0.01 54 -0.98 54 -2 54 C-1.75885216 53.16604706 -1.75885216 53.16604706 -1.51283264 52.31524658 C-0.95681693 49.80504466 -0.84011107 47.52628314 -0.79467773 44.95605469 C-0.77473251 43.95531921 -0.75478729 42.95458374 -0.73423767 41.92352295 C-0.71752518 40.85047913 -0.70081268 39.7774353 -0.68359375 38.671875 C-0.66281265 37.56773254 -0.64203156 36.46359009 -0.62062073 35.32598877 C-0.55526354 31.80072217 -0.49630436 28.27538141 -0.4375 24.75 C-0.39430164 22.35936735 -0.35068693 19.96874218 -0.30664062 17.578125 C-0.19959628 11.71882827 -0.09780415 5.85945786 0 0 Z " fill="#F8E3FB" transform="translate(105,96)"/>
<path d="M0 0 C0.99 0 1.98 0 3 0 C3 1.65 3 3.3 3 5 C2.34 5 1.68 5 1 5 C0.67 20.84 0.34 36.68 0 53 C0.99 52.01 1.98 51.02 3 50 C5.31 50.66 7.62 51.32 10 52 C10 50.68 10 49.36 10 48 C11.32 48.33 12.64 48.66 14 49 C14 47.68 14 46.36 14 45 C17.93670488 43.68776504 20.12488144 44.75703744 24 46 C24 45.01 24 44.02 24 43 C24.66 43 25.32 43 26 43 C26 42.34 26 41.68 26 41 C28.475 40.505 28.475 40.505 31 40 C31.33 40.99 31.66 41.98 32 43 C31.34 43.99 30.68 44.98 30 46 C29.34 46 28.68 46 28 46 C28 46.66 28 47.32 28 48 C25.50090425 48.7946154 23.00078857 49.58574403 20.5 50.375 C19.80390625 50.59671875 19.1078125 50.8184375 18.390625 51.046875 C16.26540682 51.71592517 14.13541564 52.36427305 12 53 C11.32839844 53.20141602 10.65679687 53.40283203 9.96484375 53.61035156 C9.30613281 53.79307617 8.64742187 53.97580078 7.96875 54.1640625 C7.39576172 54.32600098 6.82277344 54.48793945 6.23242188 54.65478516 C2.85976032 55.17632315 -0.58725215 55 -4 55 C-4 37.51 -4 20.02 -4 2 C-3.01 2 -2.02 2 -1 2 C-0.67 1.34 -0.34 0.68 0 0 Z " fill="#9306C5" transform="translate(110,91)"/>
<path d="M0 0 C6.88816201 0.0985196 6.88816201 0.0985196 9.5625 2.75 C12.0471238 6.57249815 11.25648843 10.44116946 10.546875 14.75390625 C10.23491125 17.57389435 10.55748882 19.70208084 11.25 22.4375 C9.6 22.7675 7.95 23.0975 6.25 23.4375 C5.59 21.4575 4.93 19.4775 4.25 17.4375 C2.6 17.4375 0.95 17.4375 -0.75 17.4375 C-0.75 19.0875 -0.75 20.7375 -0.75 22.4375 C-2.40614657 22.81968767 -4.07457024 23.15145102 -5.75 23.4375 C-7.37200515 21.81549485 -6.8799075 20.01726969 -6.8828125 17.78125 C-6.88410156 16.84152344 -6.88539063 15.90179688 -6.88671875 14.93359375 C-6.88285156 13.94488281 -6.87898437 12.95617187 -6.875 11.9375 C-6.87886719 10.94878906 -6.88273438 9.96007812 -6.88671875 8.94140625 C-6.88542969 8.00167969 -6.88414062 7.06195313 -6.8828125 6.09375 C-6.88168457 5.22556641 -6.88055664 4.35738281 -6.87939453 3.46289062 C-6.612663 -0.71221278 -3.57128387 0.1437224 0 0 Z " fill="#383837" transform="translate(225.75,145.5625)"/>
<path d="M0 0 C3.08813077 2.05875385 4.66221204 3.4716479 5.4765625 7.15625 C5.75651394 11.57653582 5.43904153 13.44542123 2.625 17 C-1.19852675 19.91316324 -3.18525148 20.37762733 -8 20 C-10.77428577 18.73896101 -12.48317435 17.68910086 -14.3125 15.25 C-15.32815881 11.9260257 -15.41796486 9.46313738 -15 6 C-11.14250213 -0.42438307 -7.17994878 -1.9494316 0 0 Z " fill="#050464" transform="translate(202,95)"/>
<path d="M0 0 C3.14550813 -0.11792821 6.29043541 -0.18781383 9.4375 -0.25 C10.31599609 -0.28351563 11.19449219 -0.31703125 12.09960938 -0.3515625 C19.95164105 -0.46745965 25.91787348 1.3769136 31.9375 6.5 C35.73767024 11.10626696 36.46027347 14.51908311 36.3046875 20.4140625 C35.35366616 28.48555134 29.97571563 33.92280683 24 39 C19.83679291 42.11486328 17.30396367 44 12 44 C12 43.34 12 42.68 12 42 C13.98 41.505 13.98 41.505 16 41 C16.0825 39.948125 16.165 38.89625 16.25 37.8125 C17.05955221 33.69727629 18.27300244 32.07886822 21 29 C21 28.34 21 27.68 21 27 C22.17369141 26.90912109 22.17369141 26.90912109 23.37109375 26.81640625 C24.88896484 26.69072266 24.88896484 26.69072266 26.4375 26.5625 C27.44683594 26.48128906 28.45617187 26.40007812 29.49609375 26.31640625 C31.93640779 26.26788532 31.93640779 26.26788532 33 25 C33.15193163 22.87880076 33.22183514 20.75144685 33.25 18.625 C33.28867188 16.88089844 33.28867188 16.88089844 33.328125 15.1015625 C33.26404987 12.02841095 33.26404987 12.02841095 31.609375 10.0859375 C30.04726617 8.81355512 30.04726617 8.81355512 28 9 C28 9.66 28 10.32 28 11 C24.7 11 21.4 11 18 11 C17.67 9.35 17.34 7.7 17 6 C17.99 5.34 18.98 4.68 20 4 C15.78134972 1.98487773 11.79114568 1.58645932 7.1875 1.375 C6.49462891 1.33632812 5.80175781 1.29765625 5.08789062 1.2578125 C3.39232985 1.16426432 1.69620288 1.08107636 0 1 C0 0.67 0 0.34 0 0 Z " fill="#120B63" transform="translate(143,85)"/>
<path d="M0 0 C5.56766981 0.05308863 5.56766981 0.05308863 8.19140625 1.53125 C10.73475342 4.25574726 11.24801665 6.39915516 11.4375 10.0625 C9.9150092 14.38957912 8.34070875 15.4708131 4.25 17.4375 C1.375 17.6875 1.375 17.6875 -0.75 17.4375 C-0.75 19.0875 -0.75 20.7375 -0.75 22.4375 C-2.73 22.4375 -4.71 22.4375 -6.75 22.4375 C-6.77887814 18.95835059 -6.79675687 15.47923169 -6.8125 12 C-6.82087891 11.00677734 -6.82925781 10.01355469 -6.83789062 8.99023438 C-6.84111328 8.04599609 -6.84433594 7.10175781 -6.84765625 6.12890625 C-6.85289307 5.25435791 -6.85812988 4.37980957 -6.86352539 3.47875977 C-6.63025149 -0.7156554 -3.58058318 0.14409664 0 0 Z " fill="#383838" transform="translate(225.75,171.5625)"/>
<path d="M0 0 C2.31 0 4.62 0 7 0 C6.51206858 4.56215874 4.88130196 6.65585408 1.75 9.9375 C0.94175781 10.79988281 0.13351563 11.66226563 -0.69921875 12.55078125 C-1.83810547 13.76314453 -1.83810547 13.76314453 -3 15 C-4.70187827 16.97449035 -6.35212371 18.98002261 -8 21 C-7.41992188 20.95359375 -6.83984375 20.9071875 -6.2421875 20.859375 C-0.59011326 20.59822305 2.59254688 21.10504143 7 25 C10.98009294 29.39905009 11.46024215 32.9344324 11.53125 38.6328125 C11 41 11 41 7 45 C7.33 40.71 7.66 36.42 8 32 C6.68 31.67 5.36 31.34 4 31 C2.6520257 30.36345658 1.31403276 29.70394612 0 29 C0 27.68 0 26.36 0 25 C-2.97 24.01 -5.94 23.02 -9 22 C-8.88590318 19.89521396 -8.75834639 17.79115423 -8.625 15.6875 C-8.55539063 14.51574219 -8.48578125 13.34398437 -8.4140625 12.13671875 C-8 9 -8 9 -6 6 C-6 5.34 -6 4.68 -6 4 C-5.195625 3.690625 -4.39125 3.38125 -3.5625 3.0625 C-1.10919595 2.23664655 -1.10919595 2.23664655 0 1 C0 0.67 0 0.34 0 0 Z " fill="#4F0B94" transform="translate(184,144)"/>
<path d="M0 0 C0 4.95 0 9.9 0 15 C-10.22727273 17.04545455 -10.22727273 17.04545455 -14.4375 14.5625 C-16.68195258 10.88159776 -16.86106961 7.21225944 -16 3 C-12.73234891 -2.20062778 -5.27289531 -0.15662065 0 0 Z " fill="#3E3D3C" transform="translate(273,153)"/>
<path d="M0 0 C2.475 0.495 2.475 0.495 5 1 C5.33 3.31 5.66 5.62 6 8 C6.9075 7.896875 7.815 7.79375 8.75 7.6875 C12 8 12 8 14.375 9.875 C16.65903354 14.26737219 16.33936123 18.14524911 16 23 C14.34385343 23.38218767 12.67542976 23.71395102 11 24 C9.41727399 22.41727399 9.65264253 20.61965997 9.4375 18.4375 C9.35371094 17.61121094 9.26992188 16.78492188 9.18359375 15.93359375 C9.12300781 15.29550781 9.06242187 14.65742188 9 14 C8.01 14 7.02 14 6 14 C5.67 16.97 5.34 19.94 5 23 C3.35 23.33 1.7 23.66 0 24 C0 16.08 0 8.16 0 0 Z " fill="#2A2A28" transform="translate(292,145)"/>
<path d="M0 0 C2.87459336 1.99971712 4.62907801 3.48939028 5.484375 6.97265625 C5.73645855 10.71889787 5.30563428 12.64043025 2.875 15.5 C-0.53285587 17.27801176 -2.21545532 17.70960213 -6 17 C-8.87459336 15.00028288 -10.62907801 13.51060972 -11.484375 10.02734375 C-11.73645855 6.28110213 -11.30563428 4.35956975 -8.875 1.5 C-5.46714413 -0.27801176 -3.78454468 -0.70960213 0 0 Z " fill="#333332" transform="translate(250,178)"/>
<path d="M0 0 C2.375 1.0625 2.375 1.0625 4 3 C4.25 6.6875 4.25 6.6875 4 10 C-0.455 10.495 -0.455 10.495 -5 11 C-2.36 11.33 0.28 11.66 3 12 C2.67 13.65 2.34 15.3 2 17 C-5.57264502 17.89089941 -5.57264502 17.89089941 -8.74609375 15.91015625 C-11.35925942 13.11932493 -11.99453446 11.15850077 -12.125 7.375 C-10.07887734 1.23663203 -6.37815523 -0.94993801 0 0 Z " fill="#2B2B2B" transform="translate(250,152)"/>
<path d="M0 0 C1.11375 0.2475 1.11375 0.2475 2.25 0.5 C4.981795 1.21167774 4.981795 1.21167774 7.5 0.25 C10 0 10 0 12.8125 1.75 C15.9547668 6.41851067 15.4309599 10.53159774 15 16 C13.35 16 11.7 16 10 16 C9.67 13.03 9.34 10.06 9 7 C7.68 7 6.36 7 5 7 C4.67 9.97 4.34 12.94 4 16 C2.68 16.33 1.36 16.66 0 17 C-1.75559942 15.24440058 -1.13221919 12.96417558 -1.13671875 10.62890625 C-1.13285156 9.92636719 -1.12898438 9.22382813 -1.125 8.5 C-1.12886719 7.79746094 -1.13273437 7.09492188 -1.13671875 6.37109375 C-1.12661378 1.12661378 -1.12661378 1.12661378 0 0 Z " fill="#3B3A38" transform="translate(267,178)"/>
<path d="M0 0 C3.08193978 1.6281946 5.26420667 3.03009062 7.375 5.8125 C9.20452199 12.21582696 7.47343139 17.12560045 5 23 C4.67 23 4.34 23 4 23 C3.874 16.574 3.874 16.574 4.5625 13.4375 C5.10455884 10.4174579 4.62423444 7.98245346 4 5 C3.360625 5.185625 2.72125 5.37125 2.0625 5.5625 C1.381875 5.706875 0.70125 5.85125 0 6 C-0.33 5.67 -0.66 5.34 -1 5 C-1.66 5.66 -2.32 6.32 -3 7 C-5.0625 6.75 -5.0625 6.75 -7 6 C-7.33 5.34 -7.66 4.68 -8 4 C-8.6496875 4.7425 -8.6496875 4.7425 -9.3125 5.5 C-11 7 -11 7 -14 7 C-14.33 8.32 -14.66 9.64 -15 11 C-15.66 11 -16.32 11 -17 11 C-17.53625 11.66 -18.0725 12.32 -18.625 13 C-22.1097317 15.9345109 -24.53552728 15.29763151 -29 15 C-25.56758834 11.23400357 -21.6652532 8.58887409 -17.4375 5.8125 C-16.76525391 5.36197266 -16.09300781 4.91144531 -15.40039062 4.44726562 C-10.16752121 0.98120416 -6.48927947 -0.54993894 0 0 Z " fill="#180B6B" transform="translate(187,121)"/>
<path d="M0 0 C0.33 0.66 0.66 1.32 1 2 C3.7920301 1.8595017 6.58349796 1.71284617 9.375 1.5625 C10.1690625 1.52318359 10.963125 1.48386719 11.78125 1.44335938 C16.02601221 1.31106596 16.02601221 1.31106596 20 0 C20 0.66 20 1.32 20 2 C20.99 2.33 21.98 2.66 23 3 C19.78053462 5.14631026 18.79406802 5.26412684 15.0703125 5.34375 C14.10996094 5.37339844 13.14960938 5.40304688 12.16015625 5.43359375 C11.15855469 5.45550781 10.15695313 5.47742188 9.125 5.5 C7.14823187 5.54358633 5.17162453 5.5953997 3.1953125 5.65625 C2.31891113 5.67494141 1.44250977 5.69363281 0.53955078 5.71289062 C-2.29628441 6.03349649 -4.44768085 6.73050299 -7 8 C-8.21190912 10.20678828 -8.21190912 10.20678828 -8.75 12.8125 C-8.97171875 13.66457031 -9.1934375 14.51664063 -9.421875 15.39453125 C-10.03475847 18.00354283 -10.03475847 18.00354283 -10.390625 20.69921875 C-11 23 -11 23 -14 25 C-14 22.33333333 -14 19.66666667 -14 17 C-14.01160156 16.30003906 -14.02320312 15.60007813 -14.03515625 14.87890625 C-14.04417969 14.11449219 -14.05320312 13.35007813 -14.0625 12.5625 C-14.07410156 11.80066406 -14.08570312 11.03882813 -14.09765625 10.25390625 C-14.00141278 8.03260702 -13.61624262 6.1301615 -13 4 C-11.68 3.67 -10.36 3.34 -9 3 C-9.66 4.65 -10.32 6.3 -11 8 C-10.34 8 -9.68 8 -9 8 C-8.7215625 7.13375 -8.7215625 7.13375 -8.4375 6.25 C-6.29448878 2.89572157 -3.51177437 1.82092004 0 0 Z " fill="#9D01CF" transform="translate(142,162)"/>
<path d="M0 0 C1.65 0 3.3 0 5 0 C5 1.65 5 3.3 5 5 C6.65 5.33 8.3 5.66 10 6 C9.67 7.65 9.34 9.3 9 11 C7.68 11 6.36 11 5 11 C5 12.98 5 14.96 5 17 C6.32 17 7.64 17 9 17 C8.67 18.65 8.34 20.3 8 22 C2.25 21.25 2.25 21.25 0 19 C-0.26991906 16.31160615 -0.08737357 13.70858064 0 11 C-0.99 10.67 -1.98 10.34 -3 10 C-2.67 8.35 -2.34 6.7 -2 5 C-1.34 5 -0.68 5 0 5 C0 3.35 0 1.7 0 0 Z " fill="#2D2D2C" transform="translate(287,173)"/>
<path d="M0 0 C0.33 1.65 0.66 3.3 1 5 C-2.05263664 5.98120464 -3.94736336 5.98120464 -7 5 C-7 6.65 -7 8.3 -7 10 C-4.69 10 -2.38 10 0 10 C0.33 11.32 0.66 12.64 1 14 C-2.49124017 16.32749345 -3.89222251 16.50299316 -8 16 C-11.26927536 13.34923619 -12.78911852 11.35566665 -13.4375 7.1875 C-13 4 -13 4 -10.4375 1.0625 C-6.90327247 -1.58606192 -4.21709929 -1.09644582 0 0 Z " fill="#373737" transform="translate(288,153)"/>
<path d="M0 0 C0.99 0 1.98 0 3 0 C2.67 2.64 2.34 5.28 2 8 C2.66 8 3.32 8 4 8 C5.58255197 12.32564205 6.45144652 16.428721 7 21 C7.99 20.67 8.98 20.34 10 20 C10.33 20.66 10.66 21.32 11 22 C4.0369224 21.87994694 4.0369224 21.87994694 1.16796875 19.4453125 C-2.28391791 15.39711452 -4.13962319 12.77362321 -4.0625 7.375 C-4.05347656 6.55773437 -4.04445312 5.74046875 -4.03515625 4.8984375 C-4.02355469 4.27195313 -4.01195312 3.64546875 -4 3 C-2.68 2.67 -1.36 2.34 0 2 C0 1.34 0 0.68 0 0 Z " fill="#8207BC" transform="translate(170,172)"/>
<path d="M0 0 C1.4386494 0.06032073 2.87611902 0.14920133 4.3125 0.25 C5.51326172 0.31960937 5.51326172 0.31960937 6.73828125 0.390625 C9 1 9 1 10.81640625 2.70703125 C12.31968481 5.61932339 12.0980689 7.2197389 11.625 10.4375 C11.08022143 14.27765481 11.05425076 17.22385631 12 21 C10.35 21.33 8.7 21.66 7 22 C6.34 19.69 5.68 17.38 5 15 C3.35 15 1.7 15 0 15 C1 13 1 13 2 12 C1.67 11.34 1.34 10.68 1 10 C1.94875 9.938125 2.8975 9.87625 3.875 9.8125 C4.90625 9.544375 5.9375 9.27625 7 9 C8.45291273 6.53744315 8.45291273 6.53744315 9 4 C6.36 4 3.72 4 1 4 C0.67 2.68 0.34 1.36 0 0 Z " fill="#363634" transform="translate(225,147)"/>
<path d="M0 0 C-0.495 0.556875 -0.99 1.11375 -1.5 1.6875 C-3.26456614 4.4078728 -3.12614484 5.83061087 -3 9 C-4.93742341 9.02703381 -6.87495479 9.04641125 -8.8125 9.0625 C-9.89144531 9.07410156 -10.97039062 9.08570313 -12.08203125 9.09765625 C-15 9 -15 9 -18 8 C-18 8.66 -18 9.32 -18 10 C-19.875 10.625 -19.875 10.625 -22 11 C-22.66 10.34 -23.32 9.68 -24 9 C-24 8.01 -24 7.02 -24 6 C-22.90300781 5.66226563 -21.80601563 5.32453125 -20.67578125 4.9765625 C-19.22132093 4.52614898 -17.76689569 4.07562216 -16.3125 3.625 C-15.59126953 3.40328125 -14.87003906 3.1815625 -14.12695312 2.953125 C-11.06439131 2.00219256 -8.11449002 1.04958602 -5.16796875 -0.2265625 C-3 -1 -3 -1 0 0 Z " fill="#8F13BD" transform="translate(147,142)"/>
<path d="M0 0 C3.35806998 1.3895462 5.32052848 2.72945019 7 6 C6.6875 9.75 6.6875 9.75 6 13 C4.68 13.33 3.36 13.66 2 14 C1.34 13.01 0.68 12.02 0 11 C-3.08365871 10.7497843 -3.08365871 10.7497843 -6 11 C-6 9.02 -6 7.04 -6 5 C-4.02 5 -2.04 5 0 5 C0 3.35 0 1.7 0 0 Z " fill="#404040" transform="translate(230,172)"/>
<path d="M0 0 C1.65 0 3.3 0 5 0 C5.98120464 3.05263664 5.98120464 4.94736336 5 8 C4.01 8 3.02 8 2 8 C2 8.66 2 9.32 2 10 C2.66 10.33 3.32 10.66 4 11 C2.59138651 12.01131225 1.17274547 13.00866767 -0.25 14 C-1.43335938 14.8353125 -1.43335938 14.8353125 -2.640625 15.6875 C-5 17 -5 17 -9 17 C-9 16.34 -9 15.68 -9 15 C-7.68 14.67 -6.36 14.34 -5 14 C-4.9175 12.948125 -4.835 11.89625 -4.75 10.8125 C-3.94044779 6.69727629 -2.72699756 5.07886822 0 2 C0 1.34 0 0.68 0 0 Z " fill="#3C038E" transform="translate(164,112)"/>
<path d="M0 0 C2.375 2 2.375 2 4 4 C2.68 4.33 1.36 4.66 0 5 C0 6.65 0 8.3 0 10 C-1.65 10.33 -3.3 10.66 -5 11 C-5.33 9.68 -5.66 8.36 -6 7 C-7.65 6.67 -9.3 6.34 -11 6 C-8.67951747 0.64504033 -5.76584878 -0.7060223 0 0 Z " fill="#383735" transform="translate(250,178)"/>
<path d="M0 0 C0 0.33 0 0.66 0 1 C-1.98 1.66 -3.96 2.32 -6 3 C-5.67 4.65 -5.34 6.3 -5 8 C-5.99 8.66 -6.98 9.32 -8 10 C-8.58687784 13.34613512 -8.58687784 13.34613512 -8.6875 17.125 C-8.75324219 18.40632813 -8.81898437 19.68765625 -8.88671875 21.0078125 C-8.92410156 21.99523437 -8.96148437 22.98265625 -9 24 C-7.68 24.33 -6.36 24.66 -5 25 C-5.66 27.31 -6.32 29.62 -7 32 C-6.34 32 -5.68 32 -5 32 C-5.66 33.32 -6.32 34.64 -7 36 C-9.96941178 31.87296287 -10.35730445 28.98884838 -10.29296875 23.94921875 C-10.28872391 23.29041214 -10.28447906 22.63160553 -10.28010559 21.95283508 C-10.26341196 19.86396115 -10.22578058 17.77607861 -10.1875 15.6875 C-10.17244097 14.26498797 -10.15875469 12.8424607 -10.14648438 11.41992188 C-10.11354003 7.94629649 -10.06182408 4.47324513 -10 1 C-6.52674819 -0.1577506 -3.63932552 -0.06866652 0 0 Z " fill="#9802C9" transform="translate(117,152)"/>
<path d="M0 0 C2.31 0 4.62 0 7 0 C6.50128936 4.45673159 4.97995638 6.57687178 1.9375 9.8125 C0.83728516 10.99779297 0.83728516 10.99779297 -0.28515625 12.20703125 C-1.13400391 13.09455078 -1.13400391 13.09455078 -2 14 C-2.66 13.67 -3.32 13.34 -4 13 C-3.67 11.35 -3.34 9.7 -3 8 C-3.99 7.34 -4.98 6.68 -6 6 C-6 5.34 -6 4.68 -6 4 C-5.195625 3.690625 -4.39125 3.38125 -3.5625 3.0625 C-1.10919595 2.23664655 -1.10919595 2.23664655 0 1 C0 0.67 0 0.34 0 0 Z " fill="#370582" transform="translate(184,144)"/>
<path d="M0 0 C0.33 0 0.66 0 1 0 C1 7.59 1 15.18 1 23 C0.01 22.67 -0.98 22.34 -2 22 C-2.33 21.01 -2.66 20.02 -3 19 C-5.31 18.67 -7.62 18.34 -10 18 C-10 16.35 -10 14.7 -10 13 C-7.69 13 -5.38 13 -3 13 C-1.32889958 10.03821227 -0.67317248 7.62928808 -0.375 4.25 C-0.30023438 3.45078125 -0.22546875 2.6515625 -0.1484375 1.828125 C-0.09945313 1.22484375 -0.05046875 0.6215625 0 0 Z " fill="#DBDBDA" transform="translate(291,145)"/>
<path d="M0 0 C1.65 0 3.3 0 5 0 C5 4.95 5 9.9 5 15 C3.68 15.33 2.36 15.66 1 16 C0 15 0 15 -0.09765625 11.62109375 C-0.09098369 10.22652923 -0.07902532 8.83198257 -0.0625 7.4375 C-0.05798828 6.72658203 -0.05347656 6.01566406 -0.04882812 5.28320312 C-0.03700864 3.52209987 -0.01907263 1.76103964 0 0 Z " fill="#31302E" transform="translate(258,179)"/>
<path d="M0 0 C0.350625 0.474375 0.70125 0.94875 1.0625 1.4375 C3.84163543 3.67873825 6.5144717 3.67117658 10 4 C10.33 5.32 10.66 6.64 11 8 C7.50875983 10.32749345 6.10777749 10.50299316 2 10 C-1.04889927 7.69272487 -2.45738189 5.79832675 -3 2 C-2.01 1.34 -1.02 0.68 0 0 Z " fill="#2B2B2B" transform="translate(278,159)"/>
<path d="M0 0 C0.99 1.485 0.99 1.485 2 3 C2.99 3 3.98 3 5 3 C4.67 3.33 4.34 3.66 4 4 C7.63 4.66 11.26 5.32 15 6 C14.67 7.65 14.34 9.3 14 11 C6.33063291 11.90227848 6.33063291 11.90227848 3.2890625 9.83984375 C1.09675867 7.3624137 0.04485278 5.41264561 -0.3125 2.125 C-0.209375 1.42375 -0.10625 0.7225 0 0 Z " fill="#3E3E3E" transform="translate(238,158)"/>
<path d="M0 0 C1.65 0 3.3 0 5 0 C5 4.95 5 9.9 5 15 C4.67 15 4.34 15 4 15 C4 11.7 4 8.4 4 5 C1.05270463 7.63106761 1.05270463 7.63106761 0 10 C-1.65 10 -3.3 10 -5 10 C-5.33 8.68 -5.66 7.36 -6 6 C-4.02 5.34 -2.04 4.68 0 4 C0 2.68 0 1.36 0 0 Z " fill="#434343" transform="translate(268,153)"/>
<path d="M0 0 C2.475 0.99 2.475 0.99 5 2 C4.34 3.32 3.68 4.64 3 6 C3.33 6.33 3.66 6.66 4 7 C5 8 5 8 5.0625 11.5625 C5.041875 12.696875 5.02125 13.83125 5 15 C3.0625 15.5625 3.0625 15.5625 1 16 C0 15 0 15 -0.09765625 11.62109375 C-0.09098369 10.22652923 -0.07902532 8.83198257 -0.0625 7.4375 C-0.05798828 6.72658203 -0.05347656 6.01566406 -0.04882812 5.28320312 C-0.03700864 3.52209987 -0.01907263 1.76103964 0 0 Z " fill="#272624" transform="translate(266,179)"/>
<path d="M0 0 C0.99 0.33 1.98 0.66 3 1 C3 4.3 3 7.6 3 11 C1.34385343 11.38218767 -0.32457024 11.71395102 -2 12 C-3 11 -3 11 -3.09765625 8.93359375 C-3.08605469 8.10988281 -3.07445312 7.28617188 -3.0625 6.4375 C-3.05347656 5.61121094 -3.04445313 4.78492188 -3.03515625 3.93359375 C-3.02355469 3.29550781 -3.01195312 2.65742188 -3 2 C-2.01 2 -1.02 2 0 2 C0 1.34 0 0.68 0 0 Z " fill="#414141" transform="translate(305,157)"/>
<path d="M0 0 C0.66 0 1.32 0 2 0 C2 0.66 2 1.32 2 2 C2.99 2.33 3.98 2.66 5 3 C1.84685215 5.10209857 1.13896919 5.2434761 -2.44921875 5.1953125 C-3.72055664 5.18564453 -3.72055664 5.18564453 -5.01757812 5.17578125 C-5.89865234 5.15902344 -6.77972656 5.14226562 -7.6875 5.125 C-8.58017578 5.11597656 -9.47285156 5.10695312 -10.39257812 5.09765625 C-12.59532314 5.07409748 -14.79752588 5.04120329 -17 5 C-16.34 4.01 -15.68 3.02 -15 2 C-12.390379 1.61588725 -9.9941926 1.39706803 -7.375 1.3125 C-6.66859375 1.27833984 -5.9621875 1.24417969 -5.234375 1.20898438 C-3.49014312 1.12648692 -1.74509605 1.06156665 0 1 C0 0.67 0 0.34 0 0 Z " fill="#9200C3" transform="translate(160,162)"/>
<path d="M0 0 C1.02574883 0.00212242 1.02574883 0.00212242 2.07221985 0.00428772 C4.25261847 0.00987749 6.43291376 0.02242803 8.61328125 0.03515625 C10.09309747 0.04017258 11.57291531 0.04473525 13.05273438 0.04882812 C16.67711682 0.05984354 20.30143895 0.07710113 23.92578125 0.09765625 C23.92578125 0.42765625 23.92578125 0.75765625 23.92578125 1.09765625 C23.13929199 1.11223877 22.35280273 1.12682129 21.54248047 1.1418457 C17.96143167 1.21654988 14.38129214 1.31313832 10.80078125 1.41015625 C9.56328125 1.43271484 8.32578125 1.45527344 7.05078125 1.47851562 C5.85195312 1.51396484 4.653125 1.54941406 3.41796875 1.5859375 C1.76837158 1.62521362 1.76837158 1.62521362 0.08544922 1.6652832 C-5.54880724 2.43628214 -9.32694775 4.91800783 -13.07421875 9.09765625 C-13.07421875 8.43765625 -13.07421875 7.77765625 -13.07421875 7.09765625 C-13.73421875 7.09765625 -14.39421875 7.09765625 -15.07421875 7.09765625 C-15.07421875 6.43765625 -15.07421875 5.77765625 -15.07421875 5.09765625 C-14.08421875 5.09765625 -13.09421875 5.09765625 -12.07421875 5.09765625 C-11.80609375 4.45828125 -11.53796875 3.81890625 -11.26171875 3.16015625 C-8.86477301 -1.00296004 -4.29728096 -0.01753992 0 0 Z " fill="#FFF2FE" transform="translate(120.07421875,82.90234375)"/>
<path d="M0 0 C1.32 0.33 2.64 0.66 4 1 C5.26305335 6.07476794 6.27036084 10.72796354 6 16 C0.05446359 10.20691325 0.05446359 10.20691325 -0.09765625 6.8359375 C-0.08605469 6.02382812 -0.07445312 5.21171875 -0.0625 4.375 C-0.05347656 3.55773437 -0.04445312 2.74046875 -0.03515625 1.8984375 C-0.02355469 1.27195313 -0.01195312 0.64546875 0 0 Z " fill="#850FB5" transform="translate(166,175)"/>
<path d="M0 0 C0.66 0.33 1.32 0.66 2 1 C1.67 2.65 1.34 4.3 1 6 C0.34 6 -0.32 6 -1 6 C-1.53625 6.66 -2.0725 7.32 -2.625 8 C-6.1097317 10.9345109 -8.53552728 10.29763151 -13 10 C-9.28249221 5.79759989 -4.68339021 3.00217321 0 0 Z " fill="#4C0D8A" transform="translate(171,126)"/>
<path d="M0 0 C-4.94909715 2.40191016 -9.82997334 2.3998123 -15.20507812 2.56640625 C-19.02472068 2.73138612 -21.65194507 3.20612299 -25 5 C-25.99 4.67 -26.98 4.34 -28 4 C-24.04094853 -0.2122957 -20.68307273 -0.53719155 -15.19335938 -0.75585938 C-14.24267578 -0.77455078 -13.29199219 -0.79324219 -12.3125 -0.8125 C-11.35021484 -0.85052734 -10.38792969 -0.88855469 -9.39648438 -0.92773438 C-2.32212804 -1.16106402 -2.32212804 -1.16106402 0 0 Z " fill="#FBE0FD" transform="translate(164,169)"/>
<path d="M0 0 C1.23556641 0.01740234 1.23556641 0.01740234 2.49609375 0.03515625 C3.32238281 0.04417969 4.14867187 0.05320313 5 0.0625 C5.63808594 0.07410156 6.27617187 0.08570313 6.93359375 0.09765625 C3.88252286 3.14872714 0.15106265 3.66116831 -3.94140625 4.78515625 C-5.16537109 5.1419043 -5.16537109 5.1419043 -6.4140625 5.50585938 C-7.20425781 5.72564453 -7.99445313 5.94542969 -8.80859375 6.171875 C-9.52901855 6.37385498 -10.24944336 6.57583496 -10.99169922 6.78393555 C-13.30925404 7.13437776 -14.85214338 6.81007397 -17.06640625 6.09765625 C-16.06640625 5.09765625 -16.06640625 5.09765625 -13.50390625 5.03515625 C-12.29734375 5.06609375 -12.29734375 5.06609375 -11.06640625 5.09765625 C-11.06640625 3.77765625 -11.06640625 2.45765625 -11.06640625 1.09765625 C-9.76703125 1.11828125 -8.46765625 1.13890625 -7.12890625 1.16015625 C-5.77474992 1.18165079 -4.41884542 1.16913824 -3.06640625 1.09765625 C-2.06640625 0.09765625 -2.06640625 0.09765625 0 0 Z " fill="#8F0FBD" transform="translate(131.06640625,137.90234375)"/>
<path d="M0 0 C0 0.66 0 1.32 0 2 C0.78375 2.0825 1.5675 2.165 2.375 2.25 C5 3 5 3 6.3125 5.0625 C6.6528125 6.0215625 6.6528125 6.0215625 7 7 C5.35 7 3.7 7 2 7 C2.33 7.99 2.66 8.98 3 10 C1.68 10.33 0.36 10.66 -1 11 C-0.67 8.69 -0.34 6.38 0 4 C-2.64 3.67 -5.28 3.34 -8 3 C-4.93882432 0.37613513 -4.26826873 0 0 0 Z " fill="#740FA5" transform="translate(168,165)"/>
<path d="M0 0 C-1.0625 1.5 -1.0625 1.5 -3 3 C-6.72986522 3.26641894 -9.44646071 3.1845131 -13 2 C-13 2.66 -13 3.32 -13 4 C-14.875 4.625 -14.875 4.625 -17 5 C-17.66 4.34 -18.32 3.68 -19 3 C-19 2.01 -19 1.02 -19 0 C-18.31292969 0.01160156 -17.62585938 0.02320313 -16.91796875 0.03515625 C-15.56638672 0.04869141 -15.56638672 0.04869141 -14.1875 0.0625 C-12.84751953 0.07990234 -12.84751953 0.07990234 -11.48046875 0.09765625 C-1.48026316 -0.29605263 -1.48026316 -0.29605263 0 0 Z " fill="#A100D4" transform="translate(142,148)"/>
<path d="M0 0 C-2.62368232 4.17845703 -5.24345739 7.72506542 -9 11 C-9.99 11 -10.98 11 -12 11 C-12 10.34 -12 9.68 -12 9 C-11.01 9 -10.02 9 -9 9 C-9.020625 8.05125 -9.04125 7.1025 -9.0625 6.125 C-9 3 -9 3 -8 1 C-2.47058824 -1.23529412 -2.47058824 -1.23529412 0 0 Z " fill="#1D0A6F" transform="translate(178,111)"/>
<path d="M0 0 C1.65 0.33 3.3 0.66 5 1 C5.46882399 9.12628256 5.46882399 9.12628256 3.625 12.5625 C2 14 2 14 0 14 C0.33 12.02 0.66 10.04 1 8 C1.66 8 2.32 8 3 8 C2.34 6.68 1.68 5.36 1 4 C0.01 4.495 0.01 4.495 -1 5 C-0.67 3.35 -0.34 1.7 0 0 Z " fill="#100F61" transform="translate(202,99)"/>
<path d="M0 0 C0 0.99 0 1.98 0 3 C-0.66 3 -1.32 3 -2 3 C-2 4.32 -2 5.64 -2 7 C-3.98 7 -5.96 7 -8 7 C-8.6875 4.6875 -8.6875 4.6875 -9 2 C-6.73607469 -1.99516231 -4.01344788 -0.98106504 0 0 Z " fill="#09006F" transform="translate(169,89)"/>
<path d="M0 0 C0.99 0.33 1.98 0.66 3 1 C3 3.97 3 6.94 3 10 C1.35 10 -0.3 10 -2 10 C-2.1953125 3.9453125 -2.1953125 3.9453125 -2 2 C-1.34 1.34 -0.68 0.68 0 0 Z " fill="#2A2A28" transform="translate(279,184)"/>
<path d="M0 0 C2.31 0.66 4.62 1.32 7 2 C6.67 2.66 6.34 3.32 6 4 C5.01 4 4.02 4 3 4 C2.67 6.97 2.34 9.94 2 13 C0.35 13.33 -1.3 13.66 -3 14 C-2.690625 13.0925 -2.38125 12.185 -2.0625 11.25 C-0.15673304 6.57207072 -0.15673304 6.57207072 -1 2 C-0.67 1.34 -0.34 0.68 0 0 Z " fill="#353534" transform="translate(295,155)"/>
<path d="M0 0 C-1.485 1.98 -1.485 1.98 -3 4 C-2.34 4.33 -1.68 4.66 -1 5 C-1 5.99 -1 6.98 -1 8 C-2.65 8 -4.3 8 -6 8 C-5.67 6.35 -5.34 4.7 -5 3 C-5.66 3 -6.32 3 -7 3 C-7.33 3.99 -7.66 4.98 -8 6 C-8.99 5.34 -9.98 4.68 -11 4 C-7.26280719 0.48264206 -5.13496308 -0.47767098 0 0 Z " fill="#656564" transform="translate(250,152)"/>
<path d="M0 0 C0 0.66 0 1.32 0 2 C-1.32 2 -2.64 2 -4 2 C-4 2.66 -4 3.32 -4 4 C-4.94875 4.061875 -5.8975 4.12375 -6.875 4.1875 C-7.90625 4.455625 -8.9375 4.72375 -10 5 C-11.45291273 7.46255685 -11.45291273 7.46255685 -12 10 C-12.8125 8.375 -12.8125 8.375 -13 6 C-9.35215425 -0.11896707 -6.94743359 -0.70651867 0 0 Z " fill="#7604B1" transform="translate(120,86)"/>
<path d="M0 0 C-0.99 1.485 -0.99 1.485 -2 3 C-2 4.32 -2 5.64 -2 7 C-2.66 7 -3.32 7 -4 7 C-4 6.01 -4 5.02 -4 4 C-7.96 4.99 -11.92 5.98 -16 7 C-11.62526983 2.62526983 -6.43408634 -0.80426079 0 0 Z " fill="#650FA0" transform="translate(162,135)"/>
<path d="M0 0 C0.99 0 1.98 0 3 0 C3 4.62 3 9.24 3 14 C2.01 13.67 1.02 13.34 0 13 C0 8.71 0 4.42 0 0 Z " fill="#E7E6E4" transform="translate(263,180)"/>
<path d="M0 0 C2.97 0 5.94 0 9 0 C9.33 0.99 9.66 1.98 10 3 C9.67 3.66 9.34 4.32 9 5 C6.125 5.125 6.125 5.125 3 5 C1 3 1 3 0 0 Z " fill="#282827" transform="translate(221,172)"/>
<path d="M0 0 C2.875 -0.125 2.875 -0.125 6 0 C6.66 0.66 7.32 1.32 8 2 C7.67 2.33 7.34 2.66 7 3 C7.99 3.66 8.98 4.32 10 5 C7.36 5.33 4.72 5.66 2 6 C2 5.34 2 4.68 2 4 C1.01 4 0.02 4 -1 4 C-0.67 2.68 -0.34 1.36 0 0 Z " fill="#F3E1F9" transform="translate(104,146)"/>
<path d="M0 0 C1.98 0 3.96 0 6 0 C6.33 1.32 6.66 2.64 7 4 C3.5647952 6.29013653 2.014669 6.17842973 -2 6 C-1.67 5.195625 -1.34 4.39125 -1 3.5625 C0.06059041 1.30318875 0.06059041 1.30318875 0 0 Z " fill="#393939" transform="translate(282,163)"/>
<path d="M0 0 C0.99 0.33 1.98 0.66 3 1 C3 2.98 3 4.96 3 7 C2.34 7 1.68 7 1 7 C0.34 8.32 -0.32 9.64 -1 11 C-1 9.68 -1 8.36 -1 7 C-3.64 7 -6.28 7 -9 7 C-9.33 6.34 -9.66 5.68 -10 5 C-6.7 5 -3.4 5 0 5 C0 3.35 0 1.7 0 0 Z " fill="#C0C0C0" transform="translate(254,157)"/>
<path d="M0 0 C2.33944736 0.28730055 4.6739143 0.61936779 7 1 C6.67 2.32 6.34 3.64 6 5 C3.69 5 1.38 5 -1 5 C-1 1 -1 1 0 0 Z " fill="#292929" transform="translate(262,153)"/>
<path d="M0 0 C0.66 0 1.32 0 2 0 C1.67 1.65 1.34 3.3 1 5 C1.99 5 2.98 5 4 5 C4 5.66 4 6.32 4 7 C2.02 7.33 0.04 7.66 -2 8 C-2 7.34 -2 6.68 -2 6 C-2.99 6.495 -2.99 6.495 -4 7 C-4 5.35 -4 3.7 -4 2 C-3.01 2 -2.02 2 -1 2 C-0.67 1.34 -0.34 0.68 0 0 Z " fill="#282828" transform="translate(243,155)"/>
<path d="M0 0 C0.66 0.33 1.32 0.66 2 1 C1.67 2.65 1.34 4.3 1 6 C-0.98 6.66 -2.96 7.32 -5 8 C-4.67 6.68 -4.34 5.36 -4 4 C-4.99 3.67 -5.98 3.34 -7 3 C-4.69631264 1.93347808 -2.35981813 0.93578995 0 0 Z " fill="#F5DDF9" transform="translate(150,133)"/>
<path d="M0 0 C0.66 0.33 1.32 0.66 2 1 C2 3.31 2 5.62 2 8 C0.1875 9.0625 0.1875 9.0625 -2 10 C-2.99 9.67 -3.98 9.34 -5 9 C-4.34 9 -3.68 9 -3 9 C-2.06576355 5.98968256 -1.95550089 5.13349732 -3 2 C-2.01 2 -1.02 2 0 2 C0 1.34 0 0.68 0 0 Z " fill="#7D0BB3" transform="translate(143,128)"/>
<path d="M0 0 C0.66 0.33 1.32 0.66 2 1 C1 4 1 4 -0.625 5.1875 C-3.89934179 6.30766956 -6.56538003 6.31223818 -10 6 C-11.71484375 4.48046875 -11.71484375 4.48046875 -13 3 C-12.39671875 3.03480469 -11.7934375 3.06960937 -11.171875 3.10546875 C-6.07474512 3.3514449 -6.07474512 3.3514449 -1.4375 1.5 C-0.963125 1.005 -0.48875 0.51 0 0 Z " fill="#930CB9" transform="translate(127,188)"/>
<path d="M0 0 C0.66 0 1.32 0 2 0 C2 3.3 2 6.6 2 10 C1.01 10 0.02 10 -1 10 C-1 9.01 -1 8.02 -1 7 C-1.99 6.34 -2.98 5.68 -4 5 C-3.34 4.34 -2.68 3.68 -2 3 C-1.34 2.01 -0.68 1.02 0 0 Z " fill="#282725" transform="translate(270,158)"/>
<path d="M0 0 C3.3 0 6.6 0 10 0 C9.34 1.32 8.68 2.64 8 4 C5.36 4 2.72 4 0 4 C0 2.66666667 0 1.33333333 0 0 Z " fill="#FDF3FE" transform="translate(110,146)"/>
<path d="M0 0 C1.65 0 3.3 0 5 0 C5 1.65 5 3.3 5 5 C4.01 5 3.02 5 2 5 C1.67 7.97 1.34 10.94 1 14 C0.67 14 0.34 14 0 14 C0 9.38 0 4.76 0 0 Z " fill="#2A2927" transform="translate(258,179)"/>
<path d="M0 0 C2.31 0.33 4.62 0.66 7 1 C7.33 2.65 7.66 4.3 8 6 C6.1875 6.625 6.1875 6.625 4 7 C3.01 6.34 2.02 5.68 1 5 C1.99 4.01 2.98 3.02 4 2 C2.68 1.34 1.36 0.68 0 0 Z " fill="#454545" transform="translate(281,152)"/>
<path d="M0 0 C1.65 0 3.3 0 5 0 C6.125 3.75 6.125 3.75 5 6 C3.02 6 1.04 6 -1 6 C-0.67 4.02 -0.34 2.04 0 0 Z " fill="#2A0181" transform="translate(164,112)"/>
<path d="M0 0 C2.97 0.495 2.97 0.495 6 1 C6 1.99 6 2.98 6 4 C5.01 4 4.02 4 3 4 C3 4.66 3 5.32 3 6 C2.34 6 1.68 6 1 6 C1 6.66 1 7.32 1 8 C0.34 8 -0.32 8 -1 8 C-0.67 5.36 -0.34 2.72 0 0 Z " fill="#6F03B3" transform="translate(173,172)"/>
<path d="M0 0 C0.66 0 1.32 0 2 0 C2.36263859 5.8022175 1.25684543 9.63999211 -1 15 C-1.33 15 -1.66 15 -2 15 C-2.10601889 9.59303686 -1.70654986 5.11964958 0 0 Z " fill="#292270" transform="translate(193,129)"/>
<path d="M0 0 C5.02254631 -0.2954439 7.89542386 0.01485372 12 3 C8.61725734 4.12758089 7.23221777 3.81750262 3.8125 3.0625 C2.91144531 2.86785156 2.01039063 2.67320312 1.08203125 2.47265625 C0.39496094 2.31667969 -0.29210937 2.16070312 -1 2 C-0.67 1.34 -0.34 0.68 0 0 Z " fill="#4D118A" transform="translate(178,165)"/>
<path d="M0 0 C5.50588235 0.48941176 5.50588235 0.48941176 7.875 2.9375 C9 5 9 5 9 7 C8.01 6.67 7.02 6.34 6 6 C6 5.34 6 4.68 6 4 C4.68 4.33 3.36 4.66 2 5 C1.34 3.35 0.68 1.7 0 0 Z " fill="#0A0A5E" transform="translate(185,122)"/>
<path d="M0 0 C2.31 0 4.62 0 7 0 C6.01 0.66 5.02 1.32 4 2 C1.54335048 3.91738499 -0.79582183 5.79582183 -3 8 C-3 7.34 -3 6.68 -3 6 C-3.66 6 -4.32 6 -5 6 C-5 5.34 -5 4.68 -5 4 C-4.01 4 -3.02 4 -2 4 C-1.34 2.68 -0.68 1.36 0 0 Z " fill="#F7DBFC" transform="translate(110,84)"/>
<path d="M0 0 C0.99 0.33 1.98 0.66 3 1 C3 2.65 3 4.3 3 6 C1.02 6.99 1.02 6.99 -1 8 C-1.33 5.69 -1.66 3.38 -2 1 C-1.34 0.67 -0.68 0.34 0 0 Z " fill="#292826" transform="translate(252,182)"/>
<path d="M0 0 C2.85109227 2.85109227 2.86327758 5.03504975 3 9 C1.68 10.32 0.36 11.64 -1 13 C-0.67 8.71 -0.34 4.42 0 0 Z " fill="#4D0D92" transform="translate(192,176)"/>
<path d="M0 0 C1.98 0 3.96 0 6 0 C5.67 1.65 5.34 3.3 5 5 C3.35 5 1.7 5 0 5 C0 3.35 0 1.7 0 0 Z " fill="#F5F5F5" transform="translate(225,178)"/>
<path d="M0 0 C-0.33 1.65 -0.66 3.3 -1 5 C-3.31 5 -5.62 5 -8 5 C-7.67 3.68 -7.34 2.36 -7 1 C-4.50935112 0.31292445 -2.62113708 0 0 0 Z " fill="#2D2D2D" transform="translate(253,164)"/>
<path d="M0 0 C1.98 0 3.96 0 6 0 C5.67 1.65 5.34 3.3 5 5 C3.35 5 1.7 5 0 5 C0 3.35 0 1.7 0 0 Z " fill="#F7F6F4" transform="translate(225,152)"/>
<path d="M0 0 C0 0.33 0 0.66 0 1 C-0.61488281 1.09796875 -1.22976562 1.1959375 -1.86328125 1.296875 C-6.99409305 2.13291046 -6.99409305 2.13291046 -11.0625 5.125 C-11.371875 5.74375 -11.68125 6.3625 -12 7 C-12.66 6.67 -13.32 6.34 -14 6 C-9.13438331 -0.01799959 -8.04242173 -1.34040362 0 0 Z " fill="#262363" transform="translate(201,95)"/>
<path d="M0 0 C1.3271261 3.9813783 1.06915913 7.85045227 1 12 C-0.32 12.33 -1.64 12.66 -3 13 C-2.69240822 11.02006459 -2.3787932 9.04106401 -2.0625 7.0625 C-1.88847656 5.96035156 -1.71445313 4.85820312 -1.53515625 3.72265625 C-1 1 -1 1 0 0 Z " fill="#F1CAF8" transform="translate(135,174)"/>
<path d="M0 0 C2.8125 -0.25 2.8125 -0.25 6 0 C7.875 2 7.875 2 9 4 C8.34 4 7.68 4 7 4 C7 4.66 7 5.32 7 6 C6.01 6 5.02 6 4 6 C4 4.68 4 3.36 4 2 C2.68 1.67 1.36 1.34 0 1 C0 0.67 0 0.34 0 0 Z " fill="#2E2E2D" transform="translate(298,153)"/>
<path d="M0 0 C0.66 0.33 1.32 0.66 2 1 C1.67 2.65 1.34 4.3 1 6 C-0.65 6.33 -2.3 6.66 -4 7 C-3.6875 4.625 -3.6875 4.625 -3 2 C-2.01 1.34 -1.02 0.68 0 0 Z " fill="#360C7E" transform="translate(171,126)"/>
<path d="M0 0 C1.32 0 2.64 0 4 0 C4 0.66 4 1.32 4 2 C4.33 2.33 4.66 2.66 5 3 C4.5625 5.0625 4.5625 5.0625 4 7 C2.68 6.67 1.36 6.34 0 6 C0 4.02 0 2.04 0 0 Z " fill="#383736" transform="translate(266,188)"/>
<path d="M0 0 C1.65 0.33 3.3 0.66 5 1 C4.67 2.32 4.34 3.64 4 5 C2.35 4.67 0.7 4.34 -1 4 C-0.67 2.68 -0.34 1.36 0 0 Z " fill="#F7F7F5" transform="translate(245,184)"/>
<path d="M0 0 C2.1875 0.3125 2.1875 0.3125 4 1 C4.33 2.32 4.66 3.64 5 5 C4.01 5 3.02 5 2 5 C1.34 5.66 0.68 6.32 0 7 C0 6.01 0 5.02 0 4 C-0.99 3.67 -1.98 3.34 -3 3 C-1.75 1.4375 -1.75 1.4375 0 0 Z " fill="#323232" transform="translate(249,153)"/>
<path d="M0 0 C2.97 0 5.94 0 9 0 C6.42853943 2.57146057 4.3949583 2.80117997 0.875 3.625 C-0.76855469 4.01558594 -0.76855469 4.01558594 -2.4453125 4.4140625 C-3.28835937 4.60742188 -4.13140625 4.80078125 -5 5 C-5 4.34 -5 3.68 -5 3 C-3.68 3 -2.36 3 -1 3 C-0.67 2.01 -0.34 1.02 0 0 Z " fill="#8E22B3" transform="translate(129,138)"/>
<path d="M0 0 C0.99 0.33 1.98 0.66 3 1 C2.67 2.32 2.34 3.64 2 5 C-1.61029169 5 -4.55806676 4.03907418 -8 3 C-7.67 2.34 -7.34 1.68 -7 1 C-5.5459375 1.0309375 -5.5459375 1.0309375 -4.0625 1.0625 C-1.12534105 1.35618499 -1.12534105 1.35618499 0 0 Z " fill="#444341" transform="translate(252,187)"/>
<path d="M0 0 C1.65 0 3.3 0 5 0 C5 1.65 5 3.3 5 5 C3.35 5 1.7 5 0 5 C0 3.35 0 1.7 0 0 Z " fill="#353432" transform="translate(258,171)"/>
<path d="M0 0 C2.97 0.33 5.94 0.66 9 1 C9 1.99 9 2.98 9 4 C6.36 4 3.72 4 1 4 C0.67 2.68 0.34 1.36 0 0 Z " fill="#282725" transform="translate(225,147)"/>
<path d="M0 0 C0.33 0.99 0.66 1.98 1 3 C-0.32 4.32 -1.64 5.64 -3 7 C-3.66 6.67 -4.32 6.34 -5 6 C-5 4.33333333 -5 2.66666667 -5 1 C-2 0 -2 0 0 0 Z " fill="#8A02BE" transform="translate(141,131)"/>
<path d="M0 0 C-0.66 1.65 -1.32 3.3 -2 5 C-2.33 3.68 -2.66 2.36 -3 1 C-4.98 1 -6.96 1 -9 1 C-9 2.65 -9 4.3 -9 6 C-9.33 6 -9.66 6 -10 6 C-10 4.02 -10 2.04 -10 0 C-6.42355152 -1.2380014 -3.66305234 -0.74926071 0 0 Z " fill="#575654" transform="translate(234,151)"/>
<path d="M0 0 C1.32 0.33 2.64 0.66 4 1 C3.67 2.65 3.34 4.3 3 6 C2.34 6 1.68 6 1 6 C1 5.34 1 4.68 1 4 C0.34 4 -0.32 4 -1 4 C-1.33 4.66 -1.66 5.32 -2 6 C-1.49396008 3.83125748 -1.00016187 2.00032373 0 0 Z " fill="#420295" transform="translate(178,151)"/>
<path d="M0 0 C2.475 0.495 2.475 0.495 5 1 C5 2.65 5 4.3 5 6 C3.35 5.67 1.7 5.34 0 5 C0 3.35 0 1.7 0 0 Z " fill="#2A2928" transform="translate(239,184)"/>
<path d="M0 0 C2.38672669 2.96283313 4.7353371 5.94270509 7 9 C4.625 8.6875 4.625 8.6875 2 8 C-0.1519437 4.77208445 -0.20086443 3.71599191 0 0 Z " fill="#F8D7FC" transform="translate(166,184)"/>
<path d="M0 0 C-2.93828597 2.50298434 -5.17902761 3.46930939 -9 4 C-8 1 -8 1 -6.1875 -0.25 C-3.66056586 -1.11637742 -2.47778006 -0.88492145 0 0 Z " fill="#F0EFF8" transform="translate(208,113)"/>
<path d="M0 0 C1.9375 0.375 1.9375 0.375 4 1 C5.4783226 3.95664519 5.06032783 6.74229737 5 10 C3 6.25 3 6.25 3 4 C2.01 3.67 1.02 3.34 0 3 C0 2.01 0 1.02 0 0 Z " fill="#3D0A7A" transform="translate(190,172)"/>
<path d="M0 0 C0 3 0 3 -1.25 4.75 C-3 6 -3 6 -5.1875 5.6875 C-5.785625 5.460625 -6.38375 5.23375 -7 5 C-7 4.34 -7 3.68 -7 3 C-2.61538462 0 -2.61538462 0 0 0 Z " fill="#280E73" transform="translate(179,122)"/>
<path d="M0 0 C2.8086289 2.8086289 2.72711179 5.11134294 3 9 C2.01 10.485 2.01 10.485 1 12 C0.63896464 10.18885568 0.28634496 8.37603177 -0.0625 6.5625 C-0.25972656 5.55316406 -0.45695313 4.54382813 -0.66015625 3.50390625 C-0.77230469 2.67761719 -0.88445312 1.85132813 -1 1 C-0.67 0.67 -0.34 0.34 0 0 Z " fill="#E7D2F3" transform="translate(194,170)"/>
<path d="M0 0 C1.98 0.495 1.98 0.495 4 1 C3.67 2.32 3.34 3.64 3 5 C1.68 4.67 0.36 4.34 -1 4 C-0.67 2.68 -0.34 1.36 0 0 Z " fill="#F8F8F6" transform="translate(263,158)"/>
<path d="M0 0 C-0.3125 2.375 -0.3125 2.375 -1 5 C-1.99 5.66 -2.98 6.32 -4 7 C-4.33 5.35 -4.66 3.7 -5 2 C-2 0 -2 0 0 0 Z " fill="#2B106F" transform="translate(191,144)"/>
<path d="M0 0 C0.33 1.32 0.66 2.64 1 4 C-1.25 4.75 -1.25 4.75 -4 5 C-6.3125 3.0625 -6.3125 3.0625 -8 1 C-5.36 1.66 -2.72 2.32 0 3 C0 2.01 0 1.02 0 0 Z " fill="#434343" transform="translate(295,190)"/>
<path d="M0 0 C2.475 0.495 2.475 0.495 5 1 C4.67 2.65 4.34 4.3 4 6 C2.68 5.67 1.36 5.34 0 5 C0 3.33333333 0 1.66666667 0 0 Z " fill="#505050" transform="translate(292,178)"/>
<path d="M0 0 C0.99 0.33 1.98 0.66 3 1 C1.35 2.65 -0.3 4.3 -2 6 C-2.33 4.68 -2.66 3.36 -3 2 C-2.01 1.34 -1.02 0.68 0 0 Z " fill="#9417C1" transform="translate(137,168)"/>
<path d="M0 0 C1.5 1.3125 1.5 1.3125 3 3 C3 3.99 3 4.98 3 6 C1.68 6.33 0.36 6.66 -1 7 C-1.04254356 5.00045254 -1.04080783 2.99958364 -1 1 C-0.67 0.67 -0.34 0.34 0 0 Z " fill="#282826" transform="translate(258,157)"/>
<path d="M0 0 C0.66 0.33 1.32 0.66 2 1 C1.67 1.66 1.34 2.32 1 3 C2.32 3 3.64 3 5 3 C4.67 3.66 4.34 4.32 4 5 C1.4375 5.625 1.4375 5.625 -1 6 C-1.33 4.35 -1.66 2.7 -2 1 C-1.34 0.67 -0.68 0.34 0 0 Z " fill="#9B00C8" transform="translate(130,157)"/>
<path d="M0 0 C1.65 0 3.3 0 5 0 C5.33 1.32 5.66 2.64 6 4 C4.68 4.33 3.36 4.66 2 5 C1.34 3.35 0.68 1.7 0 0 Z " fill="#6A00AA" transform="translate(153,139)"/>
<path d="M0 0 C2.31 0.66 4.62 1.32 7 2 C4.64046906 4.35953094 3.22104383 4.49141413 0 5 C0 3.35 0 1.7 0 0 Z " fill="#6F14A8" transform="translate(145,130)"/>
<path d="M0 0 C1.98 0.66 3.96 1.32 6 2 C6 2.66 6 3.32 6 4 C4.125 4.625 4.125 4.625 2 5 C1.34 4.34 0.68 3.68 0 3 C0 2.01 0 1.02 0 0 Z " fill="#9A0ACD" transform="translate(123,148)"/>
<path d="M0 0 C0.66 0.33 1.32 0.66 2 1 C1.67 2.32 1.34 3.64 1 5 C-0.65 5 -2.3 5 -4 5 C-2.25 1.125 -2.25 1.125 0 0 Z " fill="#FAFCEE" transform="translate(206,114)"/>
<path d="M0 0 C0.66 0.33 1.32 0.66 2 1 C1.566875 1.37125 1.13375 1.7425 0.6875 2.125 C-1.46152985 4.51281095 -2.64757984 7.1019568 -4 10 C-4.8125 8.375 -4.8125 8.375 -5 6 C-3.53181864 3.75390165 -1.84147142 1.97621323 0 0 Z " fill="#7C1BA9" transform="translate(112,86)"/>
<path d="M0 0 C0.33 0.66 0.66 1.32 1 2 C0.34 2 -0.32 2 -1 2 C-0.67 3.32 -0.34 4.64 0 6 C-1.65 6 -3.3 6 -5 6 C-4 4 -4 4 -3 3 C-3.33 2.34 -3.66 1.68 -4 1 C-2.68 0.67 -1.36 0.34 0 0 Z " fill="#30302E" transform="translate(230,156)"/>
<path d="M0 0 C2.63636364 5.27272727 2.63636364 5.27272727 3 8 C2.34 8.66 1.68 9.32 1 10 C0.34 9.67 -0.32 9.34 -1 9 C-0.67 6.03 -0.34 3.06 0 0 Z " fill="#DEE1F0" transform="translate(179,101)"/>
<path d="M0 0 C1.65 0 3.3 0 5 0 C3.35 1.65 1.7 3.3 0 5 C-0.99 4.67 -1.98 4.34 -3 4 C-2.34 3.67 -1.68 3.34 -1 3 C-0.67 2.01 -0.34 1.02 0 0 Z " fill="#464646" transform="translate(245,164)"/>
<path d="M0 0 C1.65 0.33 3.3 0.66 5 1 C3.6875 2.5 3.6875 2.5 2 4 C1.01 4 0.02 4 -1 4 C-0.67 2.68 -0.34 1.36 0 0 Z " fill="#292929" transform="translate(281,153)"/>
<path d="M0 0 C-2.31 1.32 -4.62 2.64 -7 4 C-7 2.68 -7 1.36 -7 0 C-3.98968256 -0.93423645 -3.13349732 -1.04449911 0 0 Z " fill="#431A85" transform="translate(168,123)"/>
<path d="M0 0 C0.33 0 0.66 0 1 0 C1.1953125 6.0546875 1.1953125 6.0546875 1 8 C0.34 8.66 -0.32 9.32 -1 10 C-2.25 3.375 -2.25 3.375 0 0 Z " fill="#070650" transform="translate(178,100)"/>
</svg>
