<?xml version="1.0" encoding="UTF-8"?>
<svg version="1.1" xmlns="http://www.w3.org/2000/svg" width="736" height="552">
<path d="M0 0 C242.88 0 485.76 0 736 0 C736 182.16 736 364.32 736 552 C493.12 552 250.24 552 0 552 C0 369.84 0 187.68 0 0 Z " fill="#FEFEFE" transform="translate(0,0)"/>
<path d="M0 0 C11.43085967 0.19829042 21.23893324 3.49003687 29.73046875 11.38671875 C34.36664495 16.37082562 39.68062336 22.5754788 40.875 29.48046875 C41.32006341 31.48225923 41.32006341 31.48225923 43.28515625 32.21875 C44.41244141 32.51265625 44.41244141 32.51265625 45.5625 32.8125 C54.74039415 35.57167704 60.92049457 39.21828789 66.5 47.3125 C69.47811137 54.44454664 69.80956545 63.14208972 67.5 70.5625 C64.40216044 77.42719612 58.66101879 83.70045777 51.69140625 86.66015625 C42.08928118 89.51854286 34.02398941 88.18072527 25.25 83.625 C16.04545744 75.88481648 13.0840665 65.65432563 10.0625 54.4375 C6.02542115 39.50169134 0.70992023 23.93654377 -13.25 15.6875 C-15.5 14.3125 -15.5 14.3125 -17.5 11.3125 C-18.49 10.6525 -19.48 9.9925 -20.5 9.3125 C-16.41838452 3.49929007 -16.41838452 3.49929007 -11.8125 2.5625 C-10.719375 2.48 -9.62625 2.3975 -8.5 2.3125 C-5.70363238 -0.48386762 -3.90485016 0.01273321 0 0 Z " fill="#62CDFD" transform="translate(208.5,226.6875)"/>
<path d="M0 0 C13.28767639 9.57779594 17.36464385 24.52006591 21.68579102 39.61376953 C23.5041796 45.7886529 25.77959201 51.23690246 28.8984375 56.8828125 C30 59 30 59 30 61 C15.87221007 61.53200883 3.95501986 61.48910095 -7.671875 52.3671875 C-9 51 -9 51 -9 49 C-9.66 49 -10.32 49 -11 49 C-14 45.53846154 -14 45.53846154 -14 43 C-14.66 43 -15.32 43 -16 43 C-16.67154933 41.71086513 -17.33708859 40.41859796 -18 39.125 C-18.37125 38.40570313 -18.7425 37.68640625 -19.125 36.9453125 C-20 35 -20 35 -20 33 C-20.99 33 -21.98 33 -23 33 C-23 33.66 -23 34.32 -23 35 C-22.34 35 -21.68 35 -21 35 C-20.73445313 35.54269531 -20.46890625 36.08539063 -20.1953125 36.64453125 C-19.84210938 37.35996094 -19.48890625 38.07539063 -19.125 38.8125 C-18.77695313 39.52019531 -18.42890625 40.22789062 -18.0703125 40.95703125 C-16.9343514 43.21246418 -16.9343514 43.21246418 -15 46 C-15 47.32 -15 48.64 -15 50 C-14.071875 50.2475 -13.14375 50.495 -12.1875 50.75 C-8.83541675 52.06454245 -7.8122197 52.97963384 -6 56 C-8.7697161 59.46214512 -10.1429116 60.8965583 -14.625 61.4375 C-20.90749323 61.01866712 -27.70745023 60.52836651 -33 57 C-33.391875 56.195625 -33.78375 55.39125 -34.1875 54.5625 C-36.21302727 51.69882352 -36.73887346 51.5997009 -39.9375 50.6875 C-42.47555109 49.86787249 -43.70395643 49.38666916 -45.33984375 47.25 C-46.37499143 45.18751708 -47.23026738 43.17582833 -48 41 C-48.35578125 40.06285156 -48.7115625 39.12570312 -49.078125 38.16015625 C-51.46004257 29.99502357 -50.93958396 20.94301817 -47.31640625 13.2421875 C-42.68015874 5.34543358 -35.90639744 -0.56942236 -27.1796875 -3.640625 C-18.07947536 -5.1410184 -7.83125744 -5.30959254 0 0 Z " fill="#EA8596" transform="translate(187,253)"/>
<path d="M0 0 C0 25.41 0 50.82 0 77 C-4.95 77 -9.9 77 -15 77 C-15.33 76.01 -15.66 75.02 -16 74 C-16.61746094 74.28875 -17.23492188 74.5775 -17.87109375 74.875 C-26.07520414 78.47132236 -31.96698751 79.15205895 -40.5625 76.5 C-47.76085979 73.62670513 -52.78036204 68.77829497 -56.5 62 C-59.24236223 54.96045409 -59.31010365 45.65892474 -57.26953125 38.40234375 C-56.33292003 36.41825713 -55.3105892 34.75601821 -54 33 C-53.236875 31.9275 -52.47375 30.855 -51.6875 29.75 C-48.58798641 26.5784047 -45.94045749 25.00605108 -42 23 C-41.41992188 22.64035156 -40.83984375 22.28070313 -40.2421875 21.91015625 C-37.02353666 20.60363073 -34.14894088 20.69793651 -30.6875 20.6875 C-29.41261719 20.67074219 -28.13773437 20.65398437 -26.82421875 20.63671875 C-23 21 -23 21 -16 24 C-15.67 16.74 -15.34 9.48 -15 2 C-7 0 -7 0 0 0 Z " fill="#163659" transform="translate(533,227)"/>
<path d="M0 0 C4.29 0 8.58 0 13 0 C15.26153386 7.10767784 17.39372902 14.21455084 19.25 21.4375 C19.42499023 22.09878906 19.59998047 22.76007813 19.78027344 23.44140625 C20.7705225 27.37849306 21.17546979 30.94539443 21 35 C21.66 35 22.32 35 23 35 C23.0825 33.95714844 23.165 32.91429687 23.25 31.83984375 C24.03808353 25.54488783 26.097465 19.5927377 28 13.5625 C28.55300781 11.7690918 28.55300781 11.7690918 29.1171875 9.93945312 C31.85792991 1.14207009 31.85792991 1.14207009 33 0 C35.18639453 -0.07258946 37.37500389 -0.08373783 39.5625 -0.0625 C41.35880859 -0.04896484 41.35880859 -0.04896484 43.19140625 -0.03515625 C44.11824219 -0.02355469 45.04507813 -0.01195312 46 0 C47.2909151 4.0356356 48.57234057 8.07412674 49.84521484 12.11547852 C50.27916701 13.48868955 50.71566136 14.8611 51.15478516 16.23266602 C51.7870486 18.20902691 52.4099878 20.18812613 53.03125 22.16796875 C53.59682617 23.95110474 53.59682617 23.95110474 54.17382812 25.77026367 C54.92073894 28.69014639 55.17746985 31.01012603 55 34 C55.66 34 56.32 34 57 34 C57.08636719 33.44957031 57.17273438 32.89914062 57.26171875 32.33203125 C58.42178721 25.46740593 59.95580903 18.70859585 61.5625 11.9375 C61.78446045 10.99688721 62.0064209 10.05627441 62.23510742 9.0871582 C62.44756104 8.20116943 62.66001465 7.31518066 62.87890625 6.40234375 C63.16616577 5.20339478 63.16616577 5.20339478 63.45922852 3.98022461 C64 2 64 2 65 0 C69.29 0 73.58 0 78 0 C77.5842862 6.9632061 76.25146204 12.97008823 74.1015625 19.59765625 C70.32484505 31.26262398 67.26885314 43.1838997 64 55 C59.38 55 54.76 55 50 55 C47.86097786 49.36425303 45.81333333 43.70785595 43.875 38 C43.47861328 36.86691406 43.47861328 36.86691406 43.07421875 35.7109375 C41.40638812 30.78364093 40.48285498 26.18185835 40 21 C39.34 21 38.68 21 38 21 C37.89558594 22.134375 37.79117188 23.26875 37.68359375 24.4375 C37.08753943 29.19755421 35.66528121 33.49530077 34.0625 38 C32.08924955 43.62688449 30.36609364 49.19245214 29 55 C24.05 55 19.1 55 14 55 C12.29296875 49.01953125 12.29296875 49.01953125 11.70639038 46.96426392 C10.56437486 42.96624024 9.41475903 38.97048588 8.26028442 34.9760437 C7.47148959 32.24081636 6.68919448 29.5037523 5.90795898 26.76635742 C5.50820868 25.37075519 5.10582777 23.97590399 4.70092773 22.58178711 C2.52523827 15.08328862 0.51294558 7.83328765 0 0 Z " fill="#183759" transform="translate(303,249)"/>
<path d="M0 0 C5.28 0 10.56 0 16 0 C17.71347366 4.64320765 19.42395909 9.28729567 21.12695312 13.93432617 C21.70724713 15.51504314 22.28926866 17.09512703 22.87304688 18.67456055 C23.71157911 20.94415928 24.54388408 23.21595792 25.375 25.48828125 C25.63748535 26.19463211 25.8999707 26.90098297 26.17041016 27.6287384 C27.23695003 30.56071715 28 32.85349781 28 36 C28.66 36 29.32 36 30 36 C30.15057861 35.43619629 30.30115723 34.87239258 30.45629883 34.29150391 C32.59349225 26.71466421 35.56893071 19.59398491 38.6875 12.375 C39.19861328 11.18003906 39.70972656 9.98507812 40.23632812 8.75390625 C41.48609776 5.83388374 42.74238126 2.9166506 44 0 C49.28 0 54.56 0 60 0 C59.11276207 2.62817558 58.21545912 5.25222388 57.3125 7.875 C57.06822266 8.60203125 56.82394531 9.3290625 56.57226562 10.078125 C55.18838749 14.0721024 53.63400875 17.84160233 51.69921875 21.6015625 C48.21525886 28.38573605 45.39853299 35.45255354 42.5 42.5 C30.14929279 72.5293107 30.14929279 72.5293107 20.3125 76.9375 C14.99749189 78.65675312 9.51727631 78.18808897 4 78 C4 73.71 4 69.42 4 65 C5.381875 64.9175 6.76375 64.835 8.1875 64.75 C12.54850191 64.25630167 14.95512486 63.32168197 18 60 C19.42062755 57.26570377 20.13042733 55.71441176 19.57061768 52.64807129 C19.2524408 51.83930542 18.93426392 51.03053955 18.60644531 50.19726562 C18.2523761 49.2728064 17.89830688 48.34834717 17.5335083 47.39587402 C17.13573181 46.4092981 16.73795532 45.42272217 16.328125 44.40625 C15.93050964 43.38196899 15.53289429 42.35768799 15.12322998 41.30236816 C13.84803864 38.02843552 12.54941094 34.76438554 11.25 31.5 C10.38906919 29.30138984 9.52967574 27.10217702 8.671875 24.90234375 C4.88094394 15.10226338 4.88094394 15.10226338 0.8805542 5.3873291 C0 3 0 3 0 0 Z " fill="#173759" transform="translate(539,249)"/>
<path d="M0 0 C4.95 0 9.9 0 15 0 C15 1.32 15 2.64 15 4 C16.03125 3.34 17.0625 2.68 18.125 2 C24.66345185 -1.25759167 32.53041295 -1.24116458 39.50390625 0.6953125 C45.44127362 3.37670421 49.46328931 8.00819467 52 14 C52.24050903 16.07550049 52.24050903 16.07550049 52.22705078 18.30957031 C52.22689972 19.15013977 52.22674866 19.99070923 52.22659302 20.85675049 C52.21627045 21.75480408 52.20594788 22.65285767 52.1953125 23.578125 C52.1924826 24.5046991 52.18965271 25.43127319 52.18673706 26.38592529 C52.17555611 29.34074909 52.15045527 32.29526805 52.125 35.25 C52.11496751 37.25520395 52.10584213 39.26041266 52.09765625 41.265625 C52.07562358 46.17720051 52.04110795 51.08854859 52 56 C47.38 56 42.76 56 38 56 C37.98541748 54.93563721 37.97083496 53.87127441 37.95581055 52.7746582 C37.8977022 48.81403531 37.82047055 44.85397352 37.73754883 40.89379883 C37.70435831 39.18197762 37.67630811 37.47004852 37.65356445 35.75805664 C37.61990968 33.29266521 37.56759026 30.82825719 37.51171875 28.36328125 C37.50532883 27.60163162 37.4989389 26.83998199 37.49235535 26.05525208 C37.3683977 21.54405779 36.75658078 18.60772054 34 15 C31.03111183 12.69086476 27.88421186 12.70334547 24.1953125 12.5390625 C20.66172499 13.28099013 18.7283231 14.6315814 16 17 C15.10213881 19.96296612 15.16168165 22.84340489 15.1953125 25.921875 C15.18160614 26.78186096 15.16789978 27.64184692 15.15377808 28.52789307 C15.11644829 31.26912609 15.12019465 34.00854868 15.125 36.75 C15.10687519 38.61070544 15.08607318 40.47138686 15.0625 42.33203125 C15.01062146 46.88832461 14.99557123 51.44342747 15 56 C10.05 56 5.1 56 0 56 C0 37.52 0 19.04 0 0 Z " fill="#133557" transform="translate(414,248)"/>
<path d="M0 0 C8.76988627 0.12579755 15.82594177 2.07157308 23.5 6.3125 C23.17 7.3025 22.84 8.2925 22.5 9.3125 C23.13808594 9.67601562 23.77617187 10.03953125 24.43359375 10.4140625 C25.25988281 10.91679687 26.08617187 11.41953125 26.9375 11.9375 C27.76121094 12.42476562 28.58492187 12.91203125 29.43359375 13.4140625 C32.20718347 15.96219974 32.25089948 17.59863774 32.5 21.3125 C32.93357115 32.72084081 32.93357115 32.72084081 29.94140625 36.04296875 C27.52229943 37.43609263 25.31645963 38.3125 22.5 38.3125 C22.5 39.3025 22.5 40.2925 22.5 41.3125 C21.84 41.3125 21.18 41.3125 20.5 41.3125 C20.231875 41.84875 19.96375 42.385 19.6875 42.9375 C18.5 45.3125 18.5 45.3125 17 47.8125 C14.85490452 52.81772278 14.23860216 57.94242784 13.5 63.3125 C13.17 63.3125 12.84 63.3125 12.5 63.3125 C12.19707031 62.15234375 11.89414063 60.9921875 11.58203125 59.796875 C4.78639824 34.09977697 4.78639824 34.09977697 -13.25 15.6875 C-15.5 14.3125 -15.5 14.3125 -17.5 11.3125 C-18.49 10.6525 -19.48 9.9925 -20.5 9.3125 C-16.41838452 3.49929007 -16.41838452 3.49929007 -11.8125 2.5625 C-10.719375 2.48 -9.62625 2.3975 -8.5 2.3125 C-5.70363238 -0.48386762 -3.90485016 0.01273321 0 0 Z " fill="#8BA2FC" transform="translate(208.5,226.6875)"/>
<path d="M0 0 C4.11657111 0.10040417 6.48867822 1.0638245 9.4375 3.8125 C18.40855284 13.46136572 22.35760539 23.87960983 22.375 36.8125 C22.39949219 37.75931641 22.42398438 38.70613281 22.44921875 39.68164062 C22.50034524 52.06277188 16.20809048 61.14682924 8 70 C5.9375 72.0625 5.9375 72.0625 4 73 C1.5625 72.75 1.5625 72.75 -1 71 C-5.89654938 63.95006616 -7.76481484 57.52222246 -7 49 C-5.7332533 43.33689713 -3.61007149 38.54170284 0 34 C0.66 34 1.32 34 2 34 C2 33.01 2 32.02 2 31 C4.64 29.68 7.28 28.36 10 27 C10.27616405 24.2503666 10.52164742 21.50366342 10.75 18.75 C10.83121094 17.97269531 10.91242188 17.19539063 10.99609375 16.39453125 C11.40650397 11.65267318 11.40650397 11.65267318 9.21484375 7.55078125 C6.91997679 5.85900514 6.91997679 5.85900514 3.8125 4.4375 C1 3 1 3 0 0 Z " fill="#3C6BFA" transform="translate(229,234)"/>
<path d="M0 0 C2.08644333 0.93690608 4.0616189 1.91539078 6.015625 3.1015625 C5.685625 4.4215625 5.355625 5.7415625 5.015625 7.1015625 C3.035625 7.4315625 1.055625 7.7615625 -0.984375 8.1015625 C-0.406875 8.3903125 0.170625 8.6790625 0.765625 8.9765625 C2.84895833 10.01822917 4.93229167 11.05989583 7.015625 12.1015625 C7.015625 12.7615625 7.015625 13.4215625 7.015625 14.1015625 C5.453125 14.7890625 5.453125 14.7890625 3.015625 15.1015625 C1.29431208 14.35457765 -0.42594927 13.60434157 -2.12890625 12.81640625 C-6.55382775 11.11164702 -10.28648185 11.87681725 -14.671875 13.2890625 C-18.74780245 15.51928696 -20.92098472 17.97478195 -22.984375 22.1015625 C-23.46714135 26.6599909 -23.42993522 30.67956524 -21.421875 34.8515625 C-19.89557302 38.30233219 -19.81590189 39.59614317 -20.984375 43.1015625 C-21.644375 42.7715625 -22.304375 42.4415625 -22.984375 42.1015625 C-23.314375 42.7615625 -23.644375 43.4215625 -23.984375 44.1015625 C-23.324375 44.1015625 -22.664375 44.1015625 -21.984375 44.1015625 C-22.314375 45.0915625 -22.644375 46.0815625 -22.984375 47.1015625 C-26.87668833 48.39900028 -28.30069752 47.8306356 -31.984375 46.1015625 C-38.6582933 37.75916462 -38.81283909 29.29883037 -37.984375 19.1015625 C-37.12130624 15.98051924 -35.91234138 13.68478543 -33.984375 11.1015625 C-33.22125 10.0290625 -32.458125 8.9565625 -31.671875 7.8515625 C-28.57236141 4.6799672 -25.92483249 3.10761358 -21.984375 1.1015625 C-21.40171875 0.74320313 -20.8190625 0.38484375 -20.21875 0.015625 C-14.41061466 -2.36043037 -5.94021317 -1.78828407 0 0 Z " fill="#163558" transform="translate(512.984375,248.8984375)"/>
<path d="M0 0 C4.95 0 9.9 0 15 0 C15 18.48 15 36.96 15 56 C10.05 56 5.1 56 0 56 C0 37.52 0 19.04 0 0 Z " fill="#1D3C5D" transform="translate(388,248)"/>
<path d="M0 0 C1 1 1 1 1.11352539 3.22485352 C1.10828857 4.18319092 1.10305176 5.14152832 1.09765625 6.12890625 C1.09443359 7.16337891 1.09121094 8.19785156 1.08789062 9.26367188 C1.07951172 10.35228516 1.07113281 11.44089844 1.0625 12.5625 C1.05798828 13.65498047 1.05347656 14.74746094 1.04882812 15.87304688 C1.03699826 18.58208495 1.02051543 21.29101599 1 24 C-5.53667586 27.61069607 -10.45936891 29.1085767 -18 28 C-22.87960072 25.87071969 -25.19851141 22.96701418 -27.3046875 18.21484375 C-28.97201145 12.90376129 -28.83936648 8.64764532 -26.3125 3.6875 C-18.50581271 -5.38513659 -10.13162405 -6.15310826 0 0 Z " fill="#F9FBFC" transform="translate(517,264)"/>
<path d="M0 0 C0.33 2.31 0.66 4.62 1 7 C1.969375 6.979375 2.93875 6.95875 3.9375 6.9375 C7 7 7 7 8 8 C8.08874135 11.10251201 8.11518455 14.1826812 8.09765625 17.28515625 C8.0962413 18.21597519 8.09482635 19.14679413 8.09336853 20.1058197 C8.08775172 23.09141191 8.0751964 26.07693029 8.0625 29.0625 C8.05748716 31.08137913 8.05292388 33.10025943 8.04882812 35.11914062 C8.03777683 40.07945572 8.02050095 45.03971532 8 50 C3.38 50 -1.24 50 -6 50 C-6.21754131 44.68033396 -6.41430023 39.36045149 -6.59204102 34.03930664 C-6.65537423 32.2301797 -6.72433024 30.42124034 -6.79907227 28.61254883 C-6.90567872 26.00891861 -6.99188103 23.40527817 -7.07421875 20.80078125 C-7.11157639 19.99538406 -7.14893402 19.18998688 -7.18742371 18.36018372 C-7.31466202 13.58161143 -6.80128555 11.03487068 -4 7 C-4.21329449 4.25760857 -4.21329449 4.25760857 -5 2 C-1.125 0 -1.125 0 0 0 Z " fill="#133556" transform="translate(458,254)"/>
<path d="M0 0 C4.95 0 9.9 0 15 0 C15 1.32 15 2.64 15 4 C16.03125 3.34 17.0625 2.68 18.125 2 C24.66345185 -1.25759167 32.53041295 -1.24116458 39.50390625 0.6953125 C44.20856368 2.8199965 47.05798937 5.80986365 50 10 C50.495 11.485 50.495 11.485 51 13 C50.34 13.66 49.68 14.32 49 15 C48.34 15 47.68 15 47 15 C47 14.34 47 13.68 47 13 C46.34 13 45.68 13 45 13 C44.67 13.66 44.34 14.32 44 15 C43.505 11.04 43.505 11.04 43 7 C42.34 7.66 41.68 8.32 41 9 C41.020625 9.78375 41.04125 10.5675 41.0625 11.375 C40.98642024 14.57034982 40.18836373 15.72746843 38 18 C36 18 36 18 34 16.0625 C33.34 15.381875 32.68 14.70125 32 14 C28.83350487 12.41675243 25.42541806 12.35625764 22 13 C18.75860034 14.37035983 18.75860034 14.37035983 16 17 C15.10258377 19.96315173 15.16168088 22.84333389 15.1953125 25.921875 C15.18160614 26.78186096 15.16789978 27.64184692 15.15377808 28.52789307 C15.11644829 31.26912609 15.12019465 34.00854868 15.125 36.75 C15.10687519 38.61070544 15.08607318 40.47138686 15.0625 42.33203125 C15.01062146 46.88832461 14.99557123 51.44342747 15 56 C14.67 56 14.34 56 14 56 C14 43.13 14 30.26 14 17 C13.34 17 12.68 17 12 17 C11.67 14.69 11.34 12.38 11 10 C11.66 10 12.32 10 13 10 C13.33 7.03 13.66 4.06 14 1 C9.71 1 5.42 1 1 1 C1 19.15 1 37.3 1 56 C0.67 56 0.34 56 0 56 C0 37.52 0 19.04 0 0 Z " fill="#173657" transform="translate(414,248)"/>
<path d="M0 0 C7.2975986 4.94777185 12.0222113 10.46239134 15.953125 18.32421875 C16.02308514 20.0312461 16.03752654 21.74089878 16.015625 23.44921875 C16.00660156 24.35929687 15.99757812 25.269375 15.98828125 26.20703125 C15.97667969 26.90570313 15.96507812 27.604375 15.953125 28.32421875 C15.623125 28.32421875 15.293125 28.32421875 14.953125 28.32421875 C14.458125 24.85921875 14.458125 24.85921875 13.953125 21.32421875 C12.963125 20.99421875 11.973125 20.66421875 10.953125 20.32421875 C9.963125 20.81921875 9.963125 20.81921875 8.953125 21.32421875 C8.93894531 20.70933594 8.92476562 20.09445312 8.91015625 19.4609375 C8.76439295 16.99084047 8.55679849 14.72606857 7.953125 12.32421875 C5.56255558 10.38880395 5.56255558 10.38880395 2.953125 9.32421875 C2.458125 7.83921875 2.458125 7.83921875 1.953125 6.32421875 C0.963125 5.99421875 -0.026875 5.66421875 -1.046875 5.32421875 C-1.541875 4.33421875 -1.541875 4.33421875 -2.046875 3.32421875 C-2.706875 3.32421875 -3.366875 3.32421875 -4.046875 3.32421875 C-4.046875 2.66421875 -4.046875 2.00421875 -4.046875 1.32421875 C-4.706875 1.32421875 -5.366875 1.32421875 -6.046875 1.32421875 C-6.046875 1.98421875 -6.046875 2.64421875 -6.046875 3.32421875 C-7.036875 2.99421875 -8.026875 2.66421875 -9.046875 2.32421875 C-8.716875 1.99421875 -8.386875 1.66421875 -8.046875 1.32421875 C-11.016875 0.66421875 -13.986875 0.00421875 -17.046875 -0.67578125 C-17.046875 0.97421875 -17.046875 2.62421875 -17.046875 4.32421875 C-18.036875 3.33421875 -19.026875 2.34421875 -20.046875 1.32421875 C-20.376875 1.98421875 -20.706875 2.64421875 -21.046875 3.32421875 C-23.02576461 4.05115779 -25.02642058 4.72238126 -27.046875 5.32421875 C-26.716875 4.33421875 -26.386875 3.34421875 -26.046875 2.32421875 C-30.69773653 3.91921705 -30.69773653 3.91921705 -34.046875 7.32421875 C-33.81643636 9.97887924 -33.81643636 9.97887924 -33.046875 12.32421875 C-33.789375 12.26234375 -34.531875 12.20046875 -35.296875 12.13671875 C-38.50070506 12.35516171 -39.68718756 13.2267188 -42.046875 15.32421875 C-42.046875 11.61141028 -41.89321782 9.38932903 -39.55078125 6.44140625 C-29.30824293 -3.07982655 -12.81231699 -6.96853119 0 0 Z M-43.046875 15.32421875 C-42.716875 15.98421875 -42.386875 16.64421875 -42.046875 17.32421875 C-41.386875 17.65421875 -40.726875 17.98421875 -40.046875 18.32421875 C-40.706875 19.64421875 -41.366875 20.96421875 -42.046875 22.32421875 C-44.046875 19.32421875 -44.046875 19.32421875 -43.671875 17.13671875 C-43.465625 16.53859375 -43.259375 15.94046875 -43.046875 15.32421875 Z " fill="#F06F62" transform="translate(185.046875,251.67578125)"/>
<path d="M0 0 C0 3.14668286 -0.52735129 4.31458176 -2 7 C-2.33 7.66 -2.66 8.32 -3 9 C-3.804375 9.474375 -4.60875 9.94875 -5.4375 10.4375 C-8.2355972 11.89664045 -8.2355972 11.89664045 -10 15 C-8.91460937 14.89300781 -7.82921875 14.78601563 -6.7109375 14.67578125 C-5.26570125 14.55378079 -3.82038397 14.43273772 -2.375 14.3125 C-1.66214844 14.23966797 -0.94929688 14.16683594 -0.21484375 14.09179688 C4.70579663 13.70807721 7.66688385 14.34135303 12 17 C12.33 15.68 12.66 14.36 13 13 C14.32 13 15.64 13 17 13 C17 14.65 17 16.3 17 18 C9.76340232 22.8422666 3.02029546 25.06699761 -5.7109375 23.51953125 C-10.79582914 22.13760124 -14.82046984 20.18964144 -19 17 C-16.9449123 14.86879794 -14.94235287 12.95713419 -12.5625 11.1875 C-9.8030649 8.83188467 -8.12153266 6.44244815 -6.2109375 3.390625 C-5.81132812 2.93171875 -5.41171875 2.4728125 -5 2 C-4.01 2 -3.02 2 -2 2 C-1.34 1.34 -0.68 0.68 0 0 Z " fill="#3DBEF6" transform="translate(250,291)"/>
<path d="M0 0 C0.99 0 1.98 0 3 0 C3.67154933 1.28913487 4.33708859 2.58140204 5 3.875 C5.37125 4.59429687 5.7425 5.31359375 6.125 6.0546875 C7 8 7 8 7 10 C7.66 10 8.32 10 9 10 C12 13.46153846 12 13.46153846 12 16 C12.66 16 13.32 16 14 16 C14 16.66 14 17.32 14 18 C14.515625 18.2475 15.03125 18.495 15.5625 18.75 C17.48016115 19.73341597 19.34590485 20.81809902 21.1875 21.9375 C30.12534372 26.98032551 38.89873857 27.6140493 49 28 C49 28.33 49 28.66 49 29 C41.92004795 29.10196962 34.84028743 29.17170349 27.75976562 29.21972656 C25.35442019 29.23976034 22.94912297 29.26699522 20.54394531 29.30175781 C17.07344622 29.35063808 13.60359474 29.37305205 10.1328125 29.390625 C9.06886261 29.41127014 8.00491272 29.43191528 6.90872192 29.45318604 C-0.1927133 29.45528886 -5.61867639 28.12104596 -12 25 C-12 24.34 -12 23.68 -12 23 C-12.598125 22.7525 -13.19625 22.505 -13.8125 22.25 C-16.28647521 20.83629988 -17.43370255 19.34944617 -19 17 C-15.64708882 16.62745431 -14.3961577 16.68949802 -11.6875 18.8125 C-10 21 -10 21 -10 24 C0.92539576 26.44328454 0.92539576 26.44328454 12 28 C12.28875 27.38125 12.5775 26.7625 12.875 26.125 C14 24 14 24 16 22 C14.02579865 19.47740939 13.03254358 19.0070192 9.8125 18.3125 C8.884375 18.209375 7.95625 18.10625 7 18 C6.9175 16.96875 6.835 15.9375 6.75 14.875 C5.93641018 10.67145259 4.435495 8.45683162 2 5 C2 4.01 2 3.02 2 2 C1.34 2 0.68 2 0 2 C0 1.34 0 0.68 0 0 Z " fill="#F2DAEC" transform="translate(164,286)"/>
<path d="M0 0 C3.3125 1.0625 3.3125 1.0625 5.25 2.625 C6.78851805 6.15454141 7.1334459 9.28305094 6.3125 13.0625 C3.77017292 16.05347304 2.1550303 16.90452557 -1.6875 17.625 C-5.82357554 16.84948584 -7.23749553 15.44927089 -9.6875 12.0625 C-10.375 8.5625 -10.375 8.5625 -9.6875 5.0625 C-6.51799644 1.35186169 -4.92641155 0.0834985 0 0 Z " fill="#1A3758" transform="translate(396.6875,224.9375)"/>
<path d="M0 0 C2.1396554 2.1396554 2.54056966 3.20566987 3.40234375 6.03515625 C3.65306641 6.84533203 3.90378906 7.65550781 4.16210938 8.49023438 C4.41798828 9.33908203 4.67386719 10.18792969 4.9375 11.0625 C8.53937184 23.55182501 8.53937184 23.55182501 13.6875 35.4375 C16 39.79646018 16 39.79646018 16 42 C12.95809137 42.05421223 9.91716001 42.09377548 6.875 42.125 C6.0190625 42.14175781 5.163125 42.15851563 4.28125 42.17578125 C-0.56587293 42.21306681 -4.44707905 41.89580643 -9 40 C-9 39.67 -9 39.34 -9 39 C-7.906875 39.04125 -6.81375 39.0825 -5.6875 39.125 C-1.91107771 39.32074666 -1.91107771 39.32074666 1 37 C4.1875 36.875 4.1875 36.875 7 37 C6.814375 36.46375 6.62875 35.9275 6.4375 35.375 C6 33 6 33 6.5625 30.25 C7.13607738 25.98913944 6.20457206 23.10971644 5 19 C4.34 19 3.68 19 3 19 C2.67 19.66 2.34 20.32 2 21 C-0.12508244 17.81237635 -0.5020163 15.73487777 -1 12 C-0.34 12 0.32 12 1 12 C0.835 11.505 0.67 11.01 0.5 10.5 C-0.20688818 6.96555911 -0.06005155 3.60309299 0 0 Z " fill="#A682CE" transform="translate(201,272)"/>
<path d="M0 0 C4.11657111 0.10040417 6.48867822 1.0638245 9.4375 3.8125 C15.21939873 10.0312533 19.71154411 17.8236576 22 26 C21.625 28.375 21.625 28.375 21 30 C20.505 27.525 20.505 27.525 20 25 C16.85018814 25.69995819 13.98423386 26.78255136 11 28 C11.04640625 26.74703125 11.0928125 25.4940625 11.140625 24.203125 C11.17814813 22.55210719 11.21454771 20.90106358 11.25 19.25 C11.28351563 18.425 11.31703125 17.6 11.3515625 16.75 C11.47427548 11.79356963 11.47427548 11.79356963 9.18359375 7.51953125 C6.91248812 5.85721284 6.91248812 5.85721284 3.8125 4.4375 C1 3 1 3 0 0 Z " fill="#5E79EB" transform="translate(229,234)"/>
<path d="M0 0 C4.95 0 9.9 0 15 0 C15 1.32 15 2.64 15 4 C15.51949219 3.69964844 16.03898437 3.39929688 16.57421875 3.08984375 C22.34133791 -0.05488851 22.34133791 -0.05488851 26 0.25 C26.66 0.4975 27.32 0.745 28 1 C26.9375 3.4375 26.9375 3.4375 25 6 C21.3125 6.8125 21.3125 6.8125 18 7 C18.33 8.32 18.66 9.64 19 11 C16.83125748 10.49396008 15.00032373 10.00016187 13 9 C13.33 6.36 13.66 3.72 14 1 C9.71 1 5.42 1 1 1 C1 19.15 1 37.3 1 56 C0.67 56 0.34 56 0 56 C0 37.52 0 19.04 0 0 Z " fill="#415A74" transform="translate(414,248)"/>
<path d="M0 0 C7.85854244 0.42864777 13.69720559 2.71918759 19.34765625 8.33203125 C21.29379688 10.51157146 23.17549672 12.71812804 25 15 C24.67 15.66 24.34 16.32 24 17 C19.2 13.55384615 19.2 13.55384615 18.1875 10.75 C18.125625 10.1725 18.06375 9.595 18 9 C15.69 8.34 13.38 7.68 11 7 C10.3503125 7.7425 10.3503125 7.7425 9.6875 8.5 C8 10 8 10 5 10 C5 11.32 5 12.64 5 14 C4 16.25 4 16.25 3 18 C2.67 18 2.34 18 2 18 C1.93941406 17.03578125 1.87882813 16.0715625 1.81640625 15.078125 C1.73261719 13.81484375 1.64882812 12.5515625 1.5625 11.25 C1.48128906 9.99703125 1.40007812 8.7440625 1.31640625 7.453125 C1.07484478 4.81682447 0.75716066 2.51962706 0 0 Z " fill="#B1E3F9" transform="translate(250,259)"/>
<path d="M0 0 C0 0.33 0 0.66 0 1 C-0.61488281 1.01417969 -1.22976563 1.02835938 -1.86328125 1.04296875 C-4.33499473 1.18882744 -6.59677148 1.39493183 -9 2 C-11.1386077 4.38987933 -11.1386077 4.38987933 -12 7 C-11.34 7 -10.68 7 -10 7 C-9.67 7.99 -9.34 8.98 -9 10 C-9.33 10.33 -9.66 10.66 -10 11 C-9.34 11.66 -8.68 12.32 -8 13 C-9.0725 13.391875 -10.145 13.78375 -11.25 14.1875 C-15.58198545 16.02903227 -17.90058741 18.80117481 -20 23 C-20.66 23 -21.32 23 -22 23 C-20.88290073 18.15923652 -19.94098471 15.1296055 -16 12 C-13.75 10.75 -13.75 10.75 -12 10 C-12.66 9.34 -13.32 8.68 -14 8 C-16.10820797 8.3185177 -16.10820797 8.3185177 -18 9 C-17.67 8.01 -17.34 7.02 -17 6 C-18.65 6 -20.3 6 -22 6 C-22 5.01 -22 4.02 -22 3 C-15.08715353 -1.04654428 -7.74175497 -0.26901851 0 0 Z " fill="#233F5B" transform="translate(510,248)"/>
<path d="M0 0 C2.15007826 2.15007826 2.56115334 3.25950823 3.4375 6.10546875 C3.82035156 7.33426758 3.82035156 7.33426758 4.2109375 8.58789062 C4.47132813 9.44576172 4.73171875 10.30363281 5 11.1875 C5.26039063 12.02603516 5.52078125 12.86457031 5.7890625 13.72851562 C6.29958199 15.37996881 6.80363005 17.0334382 7.30078125 18.68896484 C7.74045543 20.14216171 8.19419713 21.59125078 8.66796875 23.03369141 C9.726923 26.3624679 10.32545012 28.6863747 9 32 C8.32942113 30.2097939 7.6636531 28.41778511 7 26.625 C6.62875 25.62726563 6.2575 24.62953125 5.875 23.6015625 C5 21 5 21 5 19 C4.34 19 3.68 19 3 19 C2.67 19.66 2.34 20.32 2 21 C-0.12508244 17.81237635 -0.5020163 15.73487777 -1 12 C-0.34 12 0.32 12 1 12 C0.835 11.505 0.67 11.01 0.5 10.5 C-0.20688818 6.96555911 -0.06005155 3.60309299 0 0 Z " fill="#C3749F" transform="translate(201,272)"/>
<path d="M0 0 C0.33 0.66 0.66 1.32 1 2 C-2.80683702 8.00308915 -6.96544966 14.05433247 -13 18 C-14.32 17.34 -15.64 16.68 -17 16 C-17 14.68 -17 13.36 -17 12 C-17.66 11.67 -18.32 11.34 -19 11 C-18.67 10.01 -18.34 9.02 -18 8 C-16.35 8.33 -14.7 8.66 -13 9 C-12.67 9.99 -12.34 10.98 -12 12 C-11.34 12.33 -10.68 12.66 -10 13 C-9.773125 12.443125 -9.54625 11.88625 -9.3125 11.3125 C-7.63832737 8.36276727 -5.42167689 6.3626116 -3 4 C-1.97186389 2.68824014 -0.95915568 1.3630107 0 0 Z " fill="#1A58F9" transform="translate(246,289)"/>
<path d="M0 0 C2.31 0 4.62 0 7 0 C7 25.41 7 50.82 7 77 C6.67 77 6.34 77 6 77 C5.67 52.58 5.34 28.16 5 3 C2.525 2.01 2.525 2.01 0 1 C0 0.67 0 0.34 0 0 Z " fill="#516475" transform="translate(526,227)"/>
<path d="M0 0 C2.66666667 0.66666667 5.33333333 1.33333333 8 2 C8 1.34 8 0.68 8 0 C10.31 0 12.62 0 15 0 C14.01 0.495 14.01 0.495 13 1 C13.30035156 1.83144531 13.60070312 2.66289062 13.91015625 3.51953125 C14.48056641 5.14955078 14.48056641 5.14955078 15.0625 6.8125 C15.44535156 7.89144531 15.82820312 8.97039062 16.22265625 10.08203125 C17 13 17 13 16 16 C15.5153125 15.33613281 15.030625 14.67226562 14.53125 13.98828125 C10.62769569 8.84609912 7.17913105 4.92564582 1.46875 1.83984375 C0.9840625 1.56269531 0.499375 1.28554687 0 1 C0 0.67 0 0.34 0 0 Z " fill="#B1BFF6" transform="translate(193,240)"/>
<path d="M0 0 C-3.44069624 2.29379749 -4.72290301 3 -9 3 C-9.66 4.32 -10.32 5.64 -11 7 C-11.33 6.67 -11.66 6.34 -12 6 C-12.33 6.66 -12.66 7.32 -13 8 C-11.68 9.32 -10.36 10.64 -9 12 C-9.99 12 -10.98 12 -12 12 C-12 11.34 -12 10.68 -12 10 C-12.94875 9.87625 -13.8975 9.7525 -14.875 9.625 C-18 9 -18 9 -20 7 C-12.54748343 0.95741899 -12.54748343 0.95741899 -8.0625 -0.1875 C-7.39347656 -0.36667969 -6.72445312 -0.54585937 -6.03515625 -0.73046875 C-3.75319112 -1.03268678 -2.17973341 -0.68756692 0 0 Z " fill="#CED6F9" transform="translate(202,228)"/>
<path d="M0 0 C0.99 0 1.98 0 3 0 C3.67154933 1.28913487 4.33708859 2.58140204 5 3.875 C5.37125 4.59429687 5.7425 5.31359375 6.125 6.0546875 C7 8 7 8 7 10 C7.66 10 8.32 10 9 10 C12 13.46153846 12 13.46153846 12 16 C12.66 16 13.32 16 14 16 C14 16.66 14 17.32 14 18 C14.598125 18.268125 15.19625 18.53625 15.8125 18.8125 C17.97224808 19.98493467 19.35790256 21.19369282 21 23 C16.35705045 22.37257439 16.35705045 22.37257439 14.5625 20.5 C12.29782111 18.32590827 10.04292263 18.33810251 7 18 C6.9175 16.96875 6.835 15.9375 6.75 14.875 C5.93641018 10.67145259 4.435495 8.45683162 2 5 C2 4.01 2 3.02 2 2 C1.34 2 0.68 2 0 2 C0 1.34 0 0.68 0 0 Z " fill="#F7BDCE" transform="translate(164,286)"/>
<path d="M0 0 C4.72247357 3.14831571 7.33287896 6.6251289 9 12 C9.30207837 15.36601616 9.2484355 18.63231878 9 22 C8.67 22 8.34 22 8 22 C7.67 19.69 7.34 17.38 7 15 C6.01 14.67 5.02 14.34 4 14 C3.01 14.495 3.01 14.495 2 15 C1.93941406 14.41992188 1.87882813 13.83984375 1.81640625 13.2421875 C1.33983439 8.79907137 0.78991334 4.40094577 0 0 Z " fill="#D6688C" transform="translate(192,258)"/>
<path d="M0 0 C0.33 0 0.66 0 1 0 C1.33 4.62 1.66 9.24 2 14 C4.475 14.99 4.475 14.99 7 16 C6.34 16.99 5.68 17.98 5 19 C5.7425 20.0828125 5.7425 20.0828125 6.5 21.1875 C8.07919285 24.14848659 8.28178312 25.71253029 8 29 C3.50866733 25.15028628 1.56506607 19.56097944 0 14 C-0.1953125 10.3515625 -0.1953125 10.3515625 -0.125 6.625 C-0.10695312 5.37976563 -0.08890625 4.13453125 -0.0703125 2.8515625 C-0.04710937 1.91054688 -0.02390625 0.96953125 0 0 Z " fill="#EEA298" transform="translate(137,274)"/>
<path d="M0 0 C0.66 0 1.32 0 2 0 C2 2.97 2 5.94 2 9 C3.32 9.33 4.64 9.66 6 10 C6 10.66 6 11.32 6 12 C4.06318839 12.08107583 2.1254066 12.13922475 0.1875 12.1875 C-0.89144531 12.22230469 -1.97039062 12.25710938 -3.08203125 12.29296875 C-6 12 -6 12 -7.88671875 10.48828125 C-8.43779297 9.75158203 -8.43779297 9.75158203 -9 9 C-5.94152152 8.45627049 -3.11227195 8 0 8 C-0.185625 7.4225 -0.37125 6.845 -0.5625 6.25 C-1.04023546 3.79307475 -0.75729364 2.35602466 0 0 Z " fill="#A976E1" transform="translate(208,301)"/>
<path d="M0 0 C1.32 0.66 2.64 1.32 4 2 C3.35256836 2.31300049 2.70513672 2.62600098 2.03808594 2.94848633 C-1.09154014 6.09873165 -0.60320903 9.62071897 -0.609375 13.82421875 C-0.62591125 14.68561966 -0.64244751 15.54702057 -0.65948486 16.43452454 C-0.7080667 19.18558813 -0.72935789 21.93609862 -0.75 24.6875 C-0.77815124 26.55276236 -0.80807748 28.41799883 -0.83984375 30.28320312 C-0.91382815 34.85542322 -0.9633403 39.42733443 -1 44 C-1.33 44 -1.66 44 -2 44 C-2 31.13 -2 18.26 -2 5 C-2.66 4.67 -3.32 4.34 -4 4 C-2.68 2.68 -1.36 1.36 0 0 Z " fill="#334559" transform="translate(430,260)"/>
<path d="M0 0 C4.02511753 0.61924885 6.82648821 2.51638207 10 5 C11.4375 7.625 11.4375 7.625 12 10 C11.67 10.66 11.34 11.32 11 12 C9.0625 11.1875 9.0625 11.1875 7 10 C6.67 9.01 6.34 8.02 6 7 C5.01 6.67 4.02 6.34 3 6 C2.67 5.34 2.34 4.68 2 4 C1.34 4 0.68 4 0 4 C0 2.68 0 1.36 0 0 Z " fill="#EB646F" transform="translate(181,251)"/>
<path d="M0 0 C1.134375 0.020625 2.26875 0.04125 3.4375 0.0625 C3.4375 0.7225 3.4375 1.3825 3.4375 2.0625 C5.4175 2.7225 7.3975 3.3825 9.4375 4.0625 C9.4375 4.3925 9.4375 4.7225 9.4375 5.0625 C4.1575 5.0625 -1.1225 5.0625 -6.5625 5.0625 C-4.06692478 0.07134956 -4.06692478 0.07134956 0 0 Z " fill="#FCD6CC" transform="translate(182.5625,308.9375)"/>
<path d="M0 0 C2.015625 3.6875 2.015625 3.6875 1.875 6.5 C1.72441264 9.18780634 1.72441264 9.18780634 4.0625 11 C4.701875 11.66 5.34125 12.32 6 13 C5.875 15.6875 5.875 15.6875 5 18 C4.34 18.33 3.68 18.66 3 19 C1 18 1 18 0 15 C-0.07029121 12.42734182 -0.09370832 9.88358569 -0.0625 7.3125 C-0.05798828 6.61060547 -0.05347656 5.90871094 -0.04882812 5.18554688 C-0.03706927 3.45699462 -0.01913454 1.72848635 0 0 Z " fill="#F99385" transform="translate(138,270)"/>
<path d="M0 0 C3 1 3 1 4.75 4.3125 C6 8 6 8 6 10.3125 C5 12 5 12 0 14 C0 9.38 0 4.76 0 0 Z " fill="#5D7DFA" transform="translate(240,248)"/>
<path d="M0 0 C0.66 0.33 1.32 0.66 2 1 C2.3125 3.3125 2.3125 3.3125 2 6 C-0.3832946 7.81883009 -1.95818337 9 -5 9 C-5 10.32 -5 11.64 -5 13 C-5.66 13 -6.32 13 -7 13 C-7 14.32 -7 15.64 -7 17 C-7.66 17 -8.32 17 -9 17 C-8.65310247 10.2354981 -4.68483134 4.68483134 0 0 Z " fill="#223C57" transform="translate(484,254)"/>
<path d="M0 0 C3.35291118 -0.37254569 4.6038423 -0.31050198 7.3125 1.8125 C9 4 9 4 9 7 C13.62 7.99 18.24 8.98 23 10 C23 10.33 23 10.66 23 11 C16.79029227 11.33266291 12.71735105 10.45029331 7 8 C7 7.34 7 6.68 7 6 C6.401875 5.7525 5.80375 5.505 5.1875 5.25 C2.71352479 3.83629988 1.56629745 2.34944617 0 0 Z " fill="#FAE0DB" transform="translate(145,303)"/>
<path d="M0 0 C0 0.66 0 1.32 0 2 C1.32 2 2.64 2 4 2 C3.67 2.99 3.34 3.98 3 5 C3.33 5.99 3.66 6.98 4 8 C-1.62917348 7.59791618 -4.00386479 5.71069698 -8 2 C-4.91190305 0.23537317 -3.76687864 0 0 0 Z " fill="#C788D0" transform="translate(188,303)"/>
<path d="M0 0 C1.85625 0.0309375 1.85625 0.0309375 3.75 0.0625 C3.75 1.0525 3.75 2.0425 3.75 3.0625 C2.29176788 3.0895043 0.83339325 3.10889787 -0.625 3.125 C-1.43710937 3.13660156 -2.24921875 3.14820313 -3.0859375 3.16015625 C-5.25 3.0625 -5.25 3.0625 -7.25 2.0625 C-7.25 9.3225 -7.25 16.5825 -7.25 24.0625 C-7.58 24.0625 -7.91 24.0625 -8.25 24.0625 C-8.25 16.4725 -8.25 8.8825 -8.25 1.0625 C-5.12110801 0.280277 -3.1099909 -0.05183318 0 0 Z " fill="#33475E" transform="translate(526.25,227.9375)"/>
<path d="M0 0 C2.62030687 4.86628419 4.3283194 9.4185702 4 15 C4.66 15 5.32 15 6 15 C5.67 15.66 5.34 16.32 5 17 C3.68 16.67 2.36 16.34 1 16 C0.67 12.7 0.34 9.4 0 6 C-0.66 6 -1.32 6 -2 6 C-2 4.68 -2 3.36 -2 2 C-1.34 2 -0.68 2 0 2 C0 1.34 0 0.68 0 0 Z " fill="#263F5A" transform="translate(354,268)"/>
<path d="M0 0 C0 0.99 0 1.98 0 3 C0.66 3.66 1.32 4.32 2 5 C1.625 7.125 1.625 7.125 1 9 C-1.9375 8.25 -1.9375 8.25 -5 7 C-5.875 4.875 -5.875 4.875 -6 3 C-7.65 3 -9.3 3 -11 3 C-11 2.67 -11 2.34 -11 2 C-5.555 1.01 -5.555 1.01 0 0 Z " fill="#203D5B" transform="translate(513,290)"/>
<path d="M0 0 C0.99 0.33 1.98 0.66 3 1 C3 2.32 3 3.64 3 5 C1.88625 4.9071875 1.88625 4.9071875 0.75 4.8125 C-2.45383006 5.03094296 -3.64031256 5.90250005 -6 8 C-5.67 6.02 -5.34 4.04 -5 2 C-4.01 2 -3.02 2 -2 2 C-1.34 1.34 -0.68 0.68 0 0 Z M-7 8 C-6.67 8.66 -6.34 9.32 -6 10 C-5.34 10.33 -4.68 10.66 -4 11 C-4.66 12.32 -5.32 13.64 -6 15 C-8 12 -8 12 -7.625 9.8125 C-7.41875 9.214375 -7.2125 8.61625 -7 8 Z " fill="#FC7461" transform="translate(149,259)"/>
<path d="M0 0 C2.19858192 3.29787288 3.08315174 6.13806357 4.1875 9.9375 C4.55230469 11.16339844 4.91710937 12.38929688 5.29296875 13.65234375 C5.93853762 16.70898753 6.1197357 18.15430227 5 21 C4.32942113 19.2097939 3.6636531 17.41778511 3 15.625 C2.62875 14.62726563 2.2575 13.62953125 1.875 12.6015625 C1 10 1 10 1 8 C0.34 8 -0.32 8 -1 8 C-1.33 8.66 -1.66 9.32 -2 10 C-2 8.35 -2 6.7 -2 5 C-1.34 5 -0.68 5 0 5 C0 3.35 0 1.7 0 0 Z " fill="#BB7EB6" transform="translate(205,283)"/>
<path d="M0 0 C0.33 0 0.66 0 1 0 C1.06058594 0.89203125 1.12117187 1.7840625 1.18359375 2.703125 C1.26738281 3.87359375 1.35117188 5.0440625 1.4375 6.25 C1.55931641 7.99023438 1.55931641 7.99023438 1.68359375 9.765625 C2.01826436 13.18670234 2.46632798 15.93265596 4 19 C2.68 20.32 1.36 21.64 0 23 C-0.88099735 20.02181366 -1.06705164 17.54707135 -0.87890625 14.453125 C-0.83056641 13.60878906 -0.78222656 12.76445312 -0.73242188 11.89453125 C-0.64831055 10.58548828 -0.64831055 10.58548828 -0.5625 9.25 C-0.51029297 8.36183594 -0.45808594 7.47367187 -0.40429688 6.55859375 C-0.27498267 4.37200804 -0.14003358 2.18592106 0 0 Z " fill="#75BEFB" transform="translate(251,263)"/>
<path d="M0 0 C0.99 0.33 1.98 0.66 3 1 C4.12351123 3.33690337 5.08447945 5.58775764 6 8 C6.391875 8.845625 6.78375 9.69125 7.1875 10.5625 C8.15788842 13.47366527 8.14178029 15.95172383 8 19 C5.57673296 16.57673296 4.74458358 14.3518128 3.4375 11.1875 C3.00308594 10.14980469 2.56867188 9.11210937 2.12109375 8.04296875 C1.12680669 5.34418959 0.4657013 2.83083597 0 0 Z " fill="#97A9E9" transform="translate(210,255)"/>
<path d="M0 0 C1.26328125 0.02707031 2.5265625 0.05414063 3.828125 0.08203125 C4.79234375 0.11683594 5.7565625 0.15164062 6.75 0.1875 C6.151875 0.47625 5.55375 0.765 4.9375 1.0625 C2.55672208 2.23492026 2.55672208 2.23492026 -0.25 4.1875 C-3.4375 3.3125 -3.4375 3.3125 -6.25 2.1875 C-6.58 3.1775 -6.91 4.1675 -7.25 5.1875 C-8.57 4.5275 -9.89 3.8675 -11.25 3.1875 C-7.67487951 -0.25219926 -4.83224625 -0.13422906 0 0 Z " fill="#A9B8F2" transform="translate(209.25,226.8125)"/>
<path d="M0 0 C0.33 0.99 0.66 1.98 1 3 C-3.455 6.96 -3.455 6.96 -8 11 C-8.66 10.01 -9.32 9.02 -10 8 C-8.71064081 6.85157077 -7.41843421 5.70633773 -6.125 4.5625 C-5.04605469 3.60537109 -5.04605469 3.60537109 -3.9453125 2.62890625 C-2 1 -2 1 0 0 Z " fill="#EB7A6B" transform="translate(154,252)"/>
<path d="M0 0 C6.93 0.495 6.93 0.495 14 1 C10.52630934 2.73684533 8.92380063 3.30084112 5.25 3.625 C4.05117188 3.73714844 4.05117188 3.73714844 2.828125 3.8515625 C2.22484375 3.90054688 1.6215625 3.94953125 1 4 C0.67 5.65 0.34 7.3 0 9 C-0.66 9 -1.32 9 -2 9 C-2 9.66 -2 10.32 -2 11 C-2.66 11 -3.32 11 -4 11 C-3.52269162 9.5410574 -3.04308958 8.08286504 -2.5625 6.625 C-2.29566406 5.81289062 -2.02882813 5.00078125 -1.75390625 4.1640625 C-1 2 -1 2 0 0 Z " fill="#24405B" transform="translate(583,249)"/>
<path d="M0 0 C0.33 0.66 0.66 1.32 1 2 C-0.6359339 6.04678385 -2.08311048 8.93275275 -6 11 C-9.75 11.6875 -9.75 11.6875 -13 12 C-12.484375 11.62875 -11.96875 11.2575 -11.4375 10.875 C-9.37572702 9.28902079 -7.36698221 7.67176795 -5.375 6 C-4.78460938 5.505 -4.19421875 5.01 -3.5859375 4.5 C-1.76523005 2.88979334 -1.76523005 2.88979334 0 0 Z " fill="#D0F6FC" transform="translate(273,301)"/>
<path d="M0 0 C0.33 0 0.66 0 1 0 C1.33 1.65 1.66 3.3 2 5 C3.5778125 4.9690625 3.5778125 4.9690625 5.1875 4.9375 C8.32704904 4.98896802 10.96883396 5.26517187 14 6 C12 8 12 8 9.1796875 8.1953125 C8.08914063 8.17210937 6.99859375 8.14890625 5.875 8.125 C4.77929688 8.10695313 3.68359375 8.08890625 2.5546875 8.0703125 C1.71164062 8.04710937 0.86859375 8.02390625 0 8 C0 5.36 0 2.72 0 0 Z " fill="#273E55" transform="translate(543,319)"/>
<path d="M0 0 C4.6085709 0.11240417 6.72909798 1.38456232 9.875 4.5625 C10.92932432 5.69669738 11.97534633 6.83892794 13 8 C12.34 8.66 11.68 9.32 11 10 C10.46375 9.401875 9.9275 8.80375 9.375 8.1875 C7.04803438 5.83604554 7.04803438 5.83604554 3.8125 4.4375 C1 3 1 3 0 0 Z " fill="#7A90E8" transform="translate(229,234)"/>
<path d="M0 0 C0 3.14668286 -0.52735129 4.31458176 -2 7 C-2.33 7.66 -2.66 8.32 -3 9 C-5.5625 9.625 -5.5625 9.625 -8 10 C-7.62403791 7.21788056 -7.32681541 5.4120716 -5.5625 3.1875 C-4 2 -4 2 -2 2 C-1.34 1.34 -0.68 0.68 0 0 Z " fill="#50BFFD" transform="translate(250,291)"/>
<path d="M0 0 C1.32 0 2.64 0 4 0 C3.67 1.65 3.34 3.3 3 5 C2.01 4.67 1.02 4.34 0 4 C0.33 4.99 0.66 5.98 1 7 C0.34 7.66 -0.32 8.32 -1 9 C-1 7.35 -1 5.7 -1 4 C-2.32 4.99 -3.64 5.98 -5 7 C-5.66 6.67 -6.32 6.34 -7 6 C-5.68 4.68 -4.36 3.36 -3 2 C-2.01 2.33 -1.02 2.66 0 3 C0 2.01 0 1.02 0 0 Z " fill="#1D3D5D" transform="translate(369,281)"/>
<path d="M0 0 C2.82956479 2.70654023 3.96750313 3.9886975 4.09765625 8.0390625 C4.08605469 9.22242188 4.07445312 10.40578125 4.0625 11.625 C4.05347656 12.81351562 4.04445313 14.00203125 4.03515625 15.2265625 C4.02355469 16.14179688 4.01195312 17.05703125 4 18 C3.67 18 3.34 18 3 18 C2.81824219 16.75283203 2.81824219 16.75283203 2.6328125 15.48046875 C2.46523438 14.39378906 2.29765625 13.30710937 2.125 12.1875 C1.96257812 11.10855469 1.80015625 10.02960938 1.6328125 8.91796875 C1.14867662 5.82678207 1.14867662 5.82678207 -1 3 C-0.67 2.01 -0.34 1.02 0 0 Z " fill="#82CEEA" transform="translate(273,275)"/>
<path d="M0 0 C0.66 0 1.32 0 2 0 C1.690625 1.11375 1.38125 2.2275 1.0625 3.375 C-0.15800664 8.20509012 -0.61399637 13.04290069 -1 18 C-3.48002593 15.51997407 -3.29694693 14.67167487 -3.3125 11.25 C-3.24180906 6.81575025 -2.40454652 3.80719866 0 0 Z " fill="#FFEDE4" transform="translate(138,266)"/>
<path d="M0 0 C0.33 0 0.66 0 1 0 C0.73147898 6.44450441 -1.65746836 10.27735286 -6 15 C-6.99 15.495 -6.99 15.495 -8 16 C-7.67 14.35 -7.34 12.7 -7 11 C-6.01 11 -5.02 11 -4 11 C-4 9.68 -4 8.36 -4 7 C-3.34 7 -2.68 7 -2 7 C-1.34 4.69 -0.68 2.38 0 0 Z " fill="#57BFE5" transform="translate(275,292)"/>
<path d="M0 0 C0.99 0.33 1.98 0.66 3 1 C0.525 2.485 0.525 2.485 -2 4 C-2 3.01 -2 2.02 -2 1 C-1.34 0.67 -0.68 0.34 0 0 Z M-4 4 C-3.34 4 -2.68 4 -2 4 C-2.1875 6.3125 -2.1875 6.3125 -3 9 C-5.5625 10.8125 -5.5625 10.8125 -8 12 C-6.87548273 9.0280615 -5.77706209 6.66559313 -4 4 Z " fill="#537AF8" transform="translate(233,264)"/>
<path d="M0 0 C2 0 4 0 6 0 C5.34 3.3 4.68 6.6 4 10 C3.34 10 2.68 10 2 10 C1.34 6.7 0.68 3.4 0 0 Z " fill="#DCE9F0" transform="translate(356,273)"/>
<path d="M0 0 C0.33 0.66 0.66 1.32 1 2 C-1.63886654 6.2026393 -4.36440339 9.56638098 -8 13 C-8.33 12.01 -8.66 11.02 -9 10 C-8.2575 9.278125 -7.515 8.55625 -6.75 7.8125 C-4.30709485 5.31407427 -2.1318953 2.76356798 0 0 Z " fill="#2068ED" transform="translate(246,289)"/>
<path d="M0 0 C0.99 0 1.98 0 3 0 C3.67154933 1.28913487 4.33708859 2.58140204 5 3.875 C5.37125 4.59429687 5.7425 5.31359375 6.125 6.0546875 C7 8 7 8 7 10 C7.66 10 8.32 10 9 10 C9.33 10.99 9.66 11.98 10 13 C9.01 13 8.02 13 7 13 C5.61328125 11.35546875 5.61328125 11.35546875 4.3125 9.1875 C3.87550781 8.47980469 3.43851563 7.77210938 2.98828125 7.04296875 C2 5 2 5 2 2 C1.34 2 0.68 2 0 2 C0 1.34 0 0.68 0 0 Z " fill="#F8A1A7" transform="translate(164,286)"/>
<path d="M0 0 C2.5 1.5625 2.5 1.5625 5 4 C5.3125 7.75 5.3125 7.75 5 11 C4.01 11.495 4.01 11.495 3 12 C2.01 8.04 1.02 4.08 0 0 Z " fill="#DF6A82" transform="translate(192,258)"/>
<path d="M0 0 C0 0.66 0 1.32 0 2 C-2.16967689 2.95465783 -3.56328793 3.14401212 -5.82421875 2.3984375 C-7.5684743 1.64129615 -9.28627131 0.82390802 -11 0 C-11 -0.66 -11 -1.32 -11 -2 C-6.12250757 -3.15519558 -4.36067195 -2.18033598 0 0 Z " fill="#203C56" transform="translate(520,261)"/>
<path d="M0 0 C0.99 0.66 1.98 1.32 3 2 C3.1875 5.625 3.1875 5.625 3 9 C3.66 9 4.32 9 5 9 C4.67 9.99 4.34 10.98 4 12 C1.75972706 9.11964908 -0.16172132 6.15133488 -2 3 C-1.34 2.01 -0.68 1.02 0 0 Z " fill="#FAEFEE" transform="translate(196,256)"/>
<path d="M0 0 C2.52349243 3.12432397 4.27256146 6.38060496 6 10 C5.01 10 4.02 10 3 10 C2.34 9.34 1.68 8.68 1 8 C0.01 8.495 0.01 8.495 -1 9 C-0.67 6.03 -0.34 3.06 0 0 Z " fill="#FCF4F1" transform="translate(139,294)"/>
<path d="M0 0 C0.99 0 1.98 0 3 0 C1.25 7.625 1.25 7.625 -1 11 C-2 10 -2 10 -2.0625 6.9375 C-2.041875 5.968125 -2.02125 4.99875 -2 4 C-1.34 4 -0.68 4 0 4 C0 2.68 0 1.36 0 0 Z " fill="#283F5A" transform="translate(338,272)"/>
<path d="M0 0 C0.33 0 0.66 0 1 0 C1.78774617 8.03501094 1.78774617 8.03501094 -1.5 12.0625 C-2.325 12.701875 -3.15 13.34125 -4 14 C-4 13.34 -4 12.68 -4 12 C-5.98 12 -7.96 12 -10 12 C-10 11.67 -10 11.34 -10 11 C-8.88625 10.71125 -7.7725 10.4225 -6.625 10.125 C-2.99708908 9.30758671 -2.99708908 9.30758671 -1 7 C-0.59952556 4.67724823 -0.2602896 2.34260643 0 0 Z " fill="#DBE6ED" transform="translate(403,231)"/>
<path d="M0 0 C1.47177418 3.82661288 0.57016757 6.31010622 -1 10 C-2.625 11.875 -2.625 11.875 -4 13 C-4.5497272 7.36529617 -2.95047835 4.61012242 0 0 Z " fill="#EC837A" transform="translate(143,261)"/>
<path d="M0 0 C0.66 0 1.32 0 2 0 C1.60196439 2.88575819 1.20990931 3.82189513 -1.0625 5.75 C-1.701875 6.1625 -2.34125 6.575 -3 7 C-4.32 6.34 -5.64 5.68 -7 5 C-6.67 4.34 -6.34 3.68 -6 3 C-2.9375 2.375 -2.9375 2.375 0 2 C0 1.34 0 0.68 0 0 Z " fill="#1159EA" transform="translate(236,300)"/>
<path d="M0 0 C4.23429756 1.31061591 8.07407404 2.94356259 12 5 C10.02 5.99 10.02 5.99 8 7 C2.25 3.375 2.25 3.375 0 0 Z " fill="#274057" transform="translate(483,296)"/>
<path d="M0 0 C0.66 0 1.32 0 2 0 C2 0.66 2 1.32 2 2 C3.98 2.66 5.96 3.32 8 4 C8 4.33 8 4.66 8 5 C3.71 5 -0.58 5 -5 5 C-3.68 4.34 -2.36 3.68 -1 3 C-0.67 2.01 -0.34 1.02 0 0 Z " fill="#F9DADA" transform="translate(184,309)"/>
<path d="M0 0 C1.875 0.25 1.875 0.25 4 1 C6.11103658 3.95545121 6.19785783 6.43855901 6 10 C2.63408573 7.27521226 1.55773724 3.93143208 0 0 Z " fill="#F7B7B4" transform="translate(139,293)"/>
<path d="M0 0 C0.66 0.66 1.32 1.32 2 2 C1.83754442 5.73647845 1.41216356 7.52538742 -1.0625 10.375 C-1.701875 10.91125 -2.34125 11.4475 -3 12 C-2.49202991 7.6822542 -1.80317221 3.96697886 0 0 Z " fill="#61BCFE" transform="translate(249,284)"/>
<path d="M0 0 C0.99 0.66 1.98 1.32 3 2 C1.70982586 2.98113243 0.41780894 3.95984199 -0.875 4.9375 C-1.59429687 5.48277344 -2.31359375 6.02804687 -3.0546875 6.58984375 C-5 8 -5 8 -7 9 C-6.4568634 5.19804378 -4.84334437 3.49869657 -2 1 C-1.34 0.67 -0.68 0.34 0 0 Z " fill="#FEEADF" transform="translate(151,251)"/>
<path d="M0 0 C0.350625 0.474375 0.70125 0.94875 1.0625 1.4375 C3.84163543 3.67873825 6.5144717 3.67117658 10 4 C9.67 4.99 9.34 5.98 9 7 C4.48521602 6.46884894 1.65333143 4.63379708 -2 2 C-1.34 1.34 -0.68 0.68 0 0 Z " fill="#53B5EA" transform="translate(233,306)"/>
<path d="M0 0 C0.66 1.32 1.32 2.64 2 4 C-0.25 6.0625 -0.25 6.0625 -3 8 C-5.3125 7.75 -5.3125 7.75 -7 7 C-5.47005208 5.76302083 -3.94010417 4.52604167 -2.41015625 3.2890625 C-0.86733563 2.0333609 -0.86733563 2.0333609 0 0 Z " fill="#40B2FE" transform="translate(241,298)"/>
<path d="M0 0 C0.99 0 1.98 0 3 0 C2.54917531 1.46067199 2.08906463 2.91848032 1.625 4.375 C1.36976563 5.18710937 1.11453125 5.99921875 0.8515625 6.8359375 C0 9 0 9 -2 11 C-2.28571429 3.57142857 -2.28571429 3.57142857 0 0 Z " fill="#243D55" transform="translate(579,289)"/>
<path d="M0 0 C2.25 -0.25 2.25 -0.25 5 0 C7.3125 2 7.3125 2 9 4 C8.67 4.66 8.34 5.32 8 6 C2.25 3.375 2.25 3.375 0 0 Z " fill="#F8C9C3" transform="translate(145,303)"/>
<path d="M0 0 C0.66 0.33 1.32 0.66 2 1 C2 1.99 2 2.98 2 4 C2.804375 4.28875 3.60875 4.5775 4.4375 4.875 C7 6 7 6 8 8 C7.01 8 6.02 8 5 8 C5 7.34 5 6.68 5 6 C4.05125 5.87625 3.1025 5.7525 2.125 5.625 C-1 5 -1 5 -3 3 C-2.01 2.01 -1.02 1.02 0 0 Z " fill="#D6DAF2" transform="translate(185,232)"/>
<path d="M0 0 C1.32 0.66 2.64 1.32 4 2 C3.38125 2.433125 2.7625 2.86625 2.125 3.3125 C-0.2197245 4.99740483 -0.2197245 4.99740483 -2 8 C-2 7.01 -2 6.02 -2 5 C-2.66 4.67 -3.32 4.34 -4 4 C-2.68 2.68 -1.36 1.36 0 0 Z " fill="#243D57" transform="translate(430,260)"/>
<path d="M0 0 C0 0.99 0 1.98 0 3 C-0.5775 2.835 -1.155 2.67 -1.75 2.5 C-4.26664369 1.85537969 -4.26664369 1.85537969 -8 2 C-8.33 1.34 -8.66 0.68 -9 0 C-5.93109813 -1.53445094 -3.29905734 -0.54984289 0 0 Z " fill="#354A5E" transform="translate(400,226)"/>
<path d="M0 0 C0.33 0 0.66 0 1 0 C1.99 4.29 2.98 8.58 4 13 C3.34 13 2.68 13 2 13 C0.73158423 9.3638748 -0.46899001 5.82327191 -1 2 C-0.67 1.34 -0.34 0.68 0 0 Z " fill="#D7E2EB" transform="translate(313,290)"/>
<path d="M0 0 C1.32 0 2.64 0 4 0 C2.515 5.445 2.515 5.445 1 11 C0.67 11 0.34 11 0 11 C0 7.37 0 3.74 0 0 Z " fill="#7899FD" transform="translate(222,272)"/>
<path d="M0 0 C3.48539917 0.64544429 6.02819057 2.10134397 9 4 C5.80926781 5.0635774 5.06624043 4.89019883 2 4 C1.34 4 0.68 4 0 4 C0 2.68 0 1.36 0 0 Z " fill="#DD7574" transform="translate(181,251)"/>
<path d="M0 0 C0.66 0.99 1.32 1.98 2 3 C1.25 5.625 1.25 5.625 0 8 C-0.99 8.495 -0.99 8.495 -2 9 C-2.25 3.375 -2.25 3.375 0 0 Z " fill="#DDE8F0" transform="translate(558,301)"/>
<path d="M0 0 C0.99 0 1.98 0 3 0 C1.8141763 3.37503669 0.72426311 5.64722731 -2 8 C-1.125 1.125 -1.125 1.125 0 0 Z " fill="#2E63FB" transform="translate(243,288)"/>
<path d="M0 0 C0.66 0.33 1.32 0.66 2 1 C2.625 3.0625 2.625 3.0625 3 5 C1.35 6.32 -0.3 7.64 -2 9 C-1.34 6.03 -0.68 3.06 0 0 Z " fill="#D8E3EA" transform="translate(337,283)"/>
<path d="M0 0 C1.485 0.99 1.485 0.99 3 2 C2.39816251 4.02045442 1.72693904 6.02111039 1 8 C0.01 8.495 0.01 8.495 -1 9 C-0.67 6.03 -0.34 3.06 0 0 Z " fill="#94DAFA" transform="translate(253,268)"/>
<path d="M0 0 C0.66 0.33 1.32 0.66 2 1 C1.50628906 1.40992188 1.01257813 1.81984375 0.50390625 2.2421875 C-0.13675781 2.78101563 -0.77742188 3.31984375 -1.4375 3.875 C-2.07558594 4.40867187 -2.71367187 4.94234375 -3.37109375 5.4921875 C-5.10805004 6.9222757 -5.10805004 6.9222757 -6 9 C-6.66 8.67 -7.32 8.34 -8 8 C-7.04578192 6.85073734 -6.08647955 5.70569459 -5.125 4.5625 C-4.59132813 3.92441406 -4.05765625 3.28632813 -3.5078125 2.62890625 C-2 1 -2 1 0 0 Z " fill="#DBE7EF" transform="translate(498,261)"/>
<path d="M0 0 C0.33 0 0.66 0 1 0 C1.1875 2.875 1.1875 2.875 1 6 C0.01 6.66 -0.98 7.32 -2 8 C-2.33 6.02 -2.66 4.04 -3 2 C-2.01 2 -1.02 2 0 2 C0 1.34 0 0.68 0 0 Z " fill="#CF6BAE" transform="translate(203,282)"/>
<path d="M0 0 C0.33 0.66 0.66 1.32 1 2 C0.01 2.99 -0.98 3.98 -2 5 C-2 2 -2 2 0 0 Z M-5 5 C-4.34 5 -3.68 5 -3 5 C-3.33 6.32 -3.66 7.64 -4 9 C-4.66 9 -5.32 9 -6 9 C-5.67 7.68 -5.34 6.36 -5 5 Z " fill="#EAF3F6" transform="translate(495,265)"/>
<path d="M0 0 C0.66 1.32 1.32 2.64 2 4 C1.34 4 0.68 4 0 4 C-0.66 5.32 -1.32 6.64 -2 8 C-2.33 7.34 -2.66 6.68 -3 6 C-1.44444444 1.44444444 -1.44444444 1.44444444 0 0 Z " fill="#7293FE" transform="translate(229,264)"/>
<path d="M0 0 C0.99 0.33 1.98 0.66 3 1 C3.33 3.64 3.66 6.28 4 9 C1.49701566 6.06171403 0.53069061 3.82097239 0 0 Z " fill="#A2B3EB" transform="translate(210,255)"/>
<path d="M0 0 C-2.3125 1.5625 -2.3125 1.5625 -5 3 C-5.99 2.67 -6.98 2.34 -8 2 C-6.14210462 -1.71579076 -3.44525918 -1.06921837 0 0 Z " fill="#BFCAF5" transform="translate(202,228)"/>
<path d="M0 0 C0 0.99 0 1.98 0 3 C0.33 3.99 0.66 4.98 1 6 C-0.9375 5.625 -0.9375 5.625 -3 5 C-3.33 4.34 -3.66 3.68 -4 3 C-3 1 -3 1 0 0 Z " fill="#BC83D1" transform="translate(191,305)"/>
<path d="M0 0 C1.98 0.495 1.98 0.495 4 1 C3.67 2.32 3.34 3.64 3 5 C1.68 4.67 0.36 4.34 -1 4 C-0.67 2.68 -0.34 1.36 0 0 Z " fill="#FBB7B7" transform="translate(172,299)"/>
<path d="M0 0 C0.33 0.66 0.66 1.32 1 2 C1.66 2 2.32 2 3 2 C2.67 2.99 2.34 3.98 2 5 C1.01 5.33 0.02 5.66 -1 6 C-1.625 4.125 -1.625 4.125 -2 2 C-1.34 1.34 -0.68 0.68 0 0 Z " fill="#0C3460" transform="translate(488,291)"/>
<path d="M0 0 C0.66 0 1.32 0 2 0 C2 1.32 2 2.64 2 4 C1.34 4 0.68 4 0 4 C0 5.32 0 6.64 0 8 C-0.66 8 -1.32 8 -2 8 C-1.125 2.25 -1.125 2.25 0 0 Z " fill="#2A405C" transform="translate(477,263)"/>
<path d="M0 0 C2 3 2 3 1.625 6.1875 C1.41875 7.115625 1.2125 8.04375 1 9 C0.34 8.67 -0.32 8.34 -1 8 C-1.125 2.25 -1.125 2.25 0 0 Z " fill="#2A455F" transform="translate(556,254)"/>
<path d="M0 0 C-0.66 0 -1.32 0 -2 0 C-2 0.66 -2 1.32 -2 2 C-2.66 2.66 -3.32 3.32 -4 4 C-4.99 4 -5.98 4 -7 4 C-6.625 2.0625 -6.625 2.0625 -6 0 C-3.50907189 -1.24546405 -2.58919267 -0.7767578 0 0 Z " fill="#103453" transform="translate(548,252)"/>
<path d="M0 0 C2.7972908 2.06756277 3.02692273 3.14440371 3.6875 6.6875 C3.790625 7.780625 3.89375 8.87375 4 10 C1.38952199 8.694761 1.31933577 7.64173426 0.375 4.9375 C0.11460937 4.20402344 -0.14578125 3.47054687 -0.4140625 2.71484375 C-0.60742188 2.14894531 -0.80078125 1.58304688 -1 1 C-0.67 0.67 -0.34 0.34 0 0 Z " fill="#A8BAFC" transform="translate(206,246)"/>
</svg>
