<svg width="88" height="72" viewBox="0 0 88 72" fill="none" xmlns="http://www.w3.org/2000/svg">
<path d="M51.2141 69.6737L55.8923 49.3612C56.2209 47.9342 57.4732 46.9375 58.9375 46.9375H74.8275L59.7218 33.7461C57.4445 31.7572 54.5234 30.6613 51.4996 30.6613H47.3569L43.6603 37.4383C43.1044 38.4574 41.6949 38.5927 40.9554 37.6978L35.14 30.6613H31.3737C26.7523 30.6613 22.5079 33.211 20.3378 37.2912L9.74644 57.2028C8.07141 60.3519 8.24307 64.1629 10.1941 67.1487C12.0009 69.9136 15.2896 71.9375 18.3837 71.9375H32.6747V71.8493V61.7904L32.1833 61.6885L24.2511 60.0425C23.5095 59.8884 22.8854 59.3826 22.581 58.6891C22.2766 57.9956 22.3269 57.1937 22.716 56.5437L26.4125 50.3707C26.6337 50 27.1144 49.8809 27.4844 50.1014C27.8544 50.3234 27.975 50.8033 27.7537 51.1734L24.0573 57.3463C23.9253 57.566 23.9085 57.827 24.0115 58.0612C24.1145 58.2962 24.3174 58.4602 24.5684 58.5121L33.1769 60.2988L33.6146 60.3897C33.977 60.4652 34.2372 60.7849 34.2372 61.1549V61.2186V62.006L37.5345 62.4181L38.3363 62.5183L39.1669 62.6222L39.6357 62.6808C40.9282 62.8428 42.1016 63.3569 43.0653 64.1183C43.2715 64.2812 43.4648 64.4584 43.6509 64.643C43.839 64.8296 44.0148 65.0275 44.1806 65.2343C45.138 66.4286 45.711 67.9364 45.711 69.564C45.711 69.9951 45.3608 70.3453 44.9298 70.3453H34.2372V71.1268V71.9078V71.9375H51.5736C51.1756 71.2555 51.0336 70.4573 51.2141 69.6737ZM39.6212 52.2144C39.8205 51.3544 40.4007 50.6715 41.1612 50.3251L41.1974 50.169C41.4898 48.9064 42.5985 48.0247 43.8936 48.0248C43.8936 48.0248 43.8936 48.0248 43.8937 48.0248C44.1038 48.0248 44.3145 48.0489 44.5227 48.0972C46.0096 48.4419 46.9393 49.9323 46.595 51.4195L46.5585 51.5772C47.0845 52.22 47.3113 53.0877 47.1117 53.9491L44.8643 63.6539C44.655 63.4381 44.4359 63.2324 44.2046 63.0395C43.9857 62.8569 43.7594 62.6832 43.5223 62.5228L45.5894 53.5966C45.7296 52.9917 45.3849 52.3931 44.8123 52.1919L45.0727 51.0671C45.223 50.4179 44.8188 49.7698 44.1697 49.6193L44.1671 49.6187C44.0755 49.5974 43.9838 49.5873 43.8936 49.5873C43.345 49.5872 42.8488 49.9641 42.7196 50.5215L42.4591 51.647C42.4112 51.6414 42.3635 51.6386 42.3162 51.6386C41.7681 51.6386 41.2724 52.01 41.1435 52.567L39.1791 61.0492L38.3992 60.9517L37.6204 60.8543L39.6212 52.2144Z" fill="black"/>
<path d="M12.2852 37.9636C15.3523 37.5879 17.7292 34.979 17.7292 31.8103C17.7292 30.8354 17.5038 29.9134 17.1028 29.0927C16.936 28.7512 17.1427 28.3546 17.5192 28.3021C20.5364 27.8814 22.8589 25.2918 22.8589 22.1587C22.8589 21.2315 22.654 20.3532 22.2882 19.5644C22.0129 18.971 22.434 18.2995 23.0872 18.3346C23.1953 18.3404 23.3043 18.3434 23.4139 18.3434C24.916 18.3434 26.2931 17.8094 27.3664 16.9212C28.404 24.1323 34.8943 29.5816 42.5342 28.9132C49.1161 28.3374 54.5109 23.0846 55.2409 16.518C56.1846 8.02992 49.5657 0.84375 41.2682 0.84375C35.7013 0.84375 30.9042 4.08691 28.6254 8.77942C27.3408 6.79068 24.9551 5.57992 22.3266 6.02684C19.6748 6.47774 17.5799 8.69776 17.2561 11.368C17.1085 12.5847 17.316 13.7396 17.7867 14.7475C18.063 15.3393 17.6237 15.9964 16.9714 15.9623C16.3557 15.9302 15.7149 15.9907 15.0591 16.1624C12.7825 16.7583 10.994 18.651 10.5615 20.9643C10.2969 22.3796 10.5149 23.7292 11.0776 24.8794C11.244 25.2197 11.0358 25.6145 10.6607 25.6668C7.643 26.087 5.31988 28.6768 5.31988 31.8103C5.31988 33.0944 5.71012 34.2873 6.37826 35.2772C4.58812 35.6588 2.23321 36.8019 0.622839 40.0226C-0.231749 41.8792 0.444978 44.6651 1.05066 46.4465C1.43649 47.5817 1.25768 48.8293 0.583232 49.8204C0.237144 50.3289 0.220787 51.0235 0.56328 51.5345C0.97827 52.1536 1.74872 52.3837 2.40688 52.1195C5.11226 51.0335 12.9983 47.063 12.2852 37.9636ZM41.2682 27.4062C38.3236 27.4062 35.6183 26.3766 33.4798 24.6666C38.1539 21.7955 37.8487 17.1332 37.2514 14.6166C37.0467 13.7543 37.5454 12.8858 38.3985 12.6456C40.5144 12.05 41.8103 10.4118 42.5296 9.13643C44.6614 11.1549 48.087 12.8322 53.5872 12.87C53.6968 13.5343 53.7682 14.2114 53.7682 14.9062C53.7682 21.7988 48.1607 27.4062 41.2682 27.4062Z" fill="black"/>
<path d="M87.581 49.7444C87.578 49.7301 87.5789 49.7148 87.5756 49.7007C87.5495 49.5913 87.5108 49.4862 87.4626 49.3863C87.4612 49.3835 87.4608 49.3803 87.4595 49.3776C87.2083 48.8649 86.6826 48.5 86.0551 48.5H86.0547H76.6163H58.9372H58.935C58.205 48.5 57.5723 49.0054 57.4111 49.7173L57.2802 50.2951L52.7364 70.0243C52.5108 71.0032 53.2544 71.9375 54.259 71.9375H54.3335H55.8358H81.3764H81.4536C82.1835 71.9375 82.8162 71.4321 82.9775 70.7202L87.5789 50.4077C87.602 50.3059 87.6087 50.2053 87.6117 50.1055C87.6122 50.0869 87.6178 50.0676 87.6178 50.0491C87.617 49.9449 87.6017 49.8436 87.581 49.7444ZM55.8358 63.7434L57.2295 57.5909L58.935 50.0625H78.4055H86.0551L81.4536 70.375H55.8358H54.3335L55.8358 63.7434Z" fill="black"/>
<path d="M70.1743 63.3438C72.3317 63.3438 74.0806 61.5949 74.0806 59.4375C74.0806 57.2801 72.3317 55.5312 70.1743 55.5312C68.0169 55.5312 66.2681 57.2801 66.2681 59.4375C66.2681 61.5949 68.0169 63.3438 70.1743 63.3438ZM70.1743 57.0938C71.4666 57.0938 72.5181 58.1451 72.5181 59.4375C72.5181 60.7299 71.4666 61.7812 70.1743 61.7812C68.882 61.7812 67.8306 60.7299 67.8306 59.4375C67.8306 58.1451 68.882 57.0938 70.1743 57.0938Z" fill="black"/>
</svg>
